<mxfile host="app.diagrams.net" agent="Mozilla/5.0 (Macintosh; Intel Mac OS X 10_15_7) AppleWebKit/537.36 (KHTML, like Gecko) Chrome/137.0.0.0 Safari/537.36" version="27.1.6">
  <diagram name="第 1 页" id="a-qAF57k8_4oPYb_Egr2">
    <mxGraphModel dx="2061" dy="772" grid="1" gridSize="10" guides="1" tooltips="1" connect="1" arrows="1" fold="1" page="1" pageScale="1" pageWidth="827" pageHeight="1169" math="1" shadow="0" adaptiveColors="auto">
      <root>
        <mxCell id="0" />
        <mxCell id="1" parent="0" />
        <mxCell id="A1PA44tEhQM_5LtgaNAi-33" value="" style="group" parent="1" vertex="1" connectable="0">
          <mxGeometry x="-400" y="220" width="90" height="90" as="geometry" />
        </mxCell>
        <mxCell id="A1PA44tEhQM_5LtgaNAi-16" value="" style="shape=lineEllipse;line=vertical;perimeter=ellipsePerimeter;whiteSpace=wrap;html=1;backgroundOutline=1;" parent="A1PA44tEhQM_5LtgaNAi-33" vertex="1">
          <mxGeometry width="90" height="90" as="geometry" />
        </mxCell>
        <mxCell id="A1PA44tEhQM_5LtgaNAi-17" value="" style="endArrow=none;html=1;rounded=0;entryX=0.5;entryY=0.513;entryDx=0;entryDy=0;entryPerimeter=0;exitX=0;exitY=0.5;exitDx=0;exitDy=0;" parent="A1PA44tEhQM_5LtgaNAi-33" source="A1PA44tEhQM_5LtgaNAi-16" target="A1PA44tEhQM_5LtgaNAi-16" edge="1">
          <mxGeometry width="50" height="50" relative="1" as="geometry">
            <mxPoint x="-310" y="90" as="sourcePoint" />
            <mxPoint x="-260" y="40" as="targetPoint" />
          </mxGeometry>
        </mxCell>
        <mxCell id="A1PA44tEhQM_5LtgaNAi-21" value="" style="shape=image;verticalLabelPosition=bottom;labelBackgroundColor=default;verticalAlign=top;aspect=fixed;imageAspect=0;image=data:image/png,iVBORw0KGgoAAAANSUhEUgAAACwAAAAyCAYAAAAnWDnqAAAMPWlDQ1BJQ0MgUHJvZmlsZQAASImVVwdYU8kWnluSkEBCCSAgJfQmiNQAUkJooXcEGyEJEEqIgaBiL4sKrl1UwIauiih2QOyInUWwYV8sqCjrYsGuvEkBXfeV702+mfnzz5n/nDl3bhkA1E9yxeJcVAOAPFGhJC4kgDEmJZVB6gE40AI0+GNyeQViVkxMBIBlsP97eXcDILL+qoNM65/j/7Vo8gUFPACQGIjT+QW8PIgPAoBX8cSSQgCIMt58cqFYhmEF2hIYIMQLZThTgatkOF2B98ptEuLYELcAoKLG5UoyAaC1Q55RxMuEGrQ+iJ1EfKEIAHUGxL55efl8iNMgtoE2Yohl+sz0H3Qy/6aZPqTJ5WYOYcVa5EUlUFggzuVO/T/T8b9LXq500IcVrGpZktA42Zph3m7m5IfLsBrEvaL0qGiItSD+IOTL7SFGKVnS0ESFPWrIK2DDnAFdiJ343MBwiA0hDhblRkUo+fQMYTAHYrhD0CnCQk4CxHoQLxQUBMUrbTZJ8uOUvtD6DAmbpeTPcyVyvzJf96U5iSyl/ussAUepj9GKsxKSIaZAbFEkTIqCmAaxY0FOfLjSZnRxFjtq0EYijZPFbwFxnEAUEqDQx4oyJMFxSvvSvILB9WKbsoScKCXeX5iVEKrID9bC48rjh2vB2gUiVuKgjqBgTMTgWviCwCDF2rFnAlFivFLng7gwIE4xF6eIc2OU9riZIDdExptB7FpQFK+ciycVwg2p0MczxIUxCYo48eJsbliMIh58GYgAbBAIGEAKazrIB9lA2Nbb0Av/KUaCARdIQCYQAAclMzgjWT4igm08KAZ/QiQABUPzAuSjAlAE+a9DrKJ1ABny0SL5jBzwBOI8EA5y4X+pfJZoyFsSeAwZ4T+8c2HlwXhzYZWN/3t+kP3OsCAToWSkgx4Z6oOWxCBiIDGUGEy0xQ1wX9wbj4CtP6zOOBP3HFzHd3vCE0IH4SHhOqGLcGuicK7kpygjQRfUD1bmIv3HXOBWUNMND8B9oDpUxnVxA+CAu0I/LNwPenaDLFsZtywrjJ+0/7aCH66G0o7sREbJw8j+ZJufZ9LsaG5DKrJc/5gfRazpQ/lmD4387J/9Q/b5sA//2RJbiB3AzmGnsAvYUawBMLATWCPWih2T4aHd9Vi+uwa9xcnjyYE6wn/4G7yyskwWONU69Th9UYwVCqbIntGAnS+eKhFmZhUyWPCNIGBwRDzHEQxnJ2c3AGTvF8Xj602s/L2B6LZ+5+b9AYDPiYGBgSPfubATAOzzgLf/4e+cDRO+OlQBOH+YJ5UUKThc1hDgU0Id3mn6wBiYAxu4HmfgDryBPwgCYSAaJIAUMAFGnwX3uQRMBtPBHFACysAysBpUgI1gC9gBdoP9oAEcBafAWXAJtIPr4A7cPd3gBegD78BnBEFICBWhI/qICWKJ2CPOCBPxRYKQCCQOSUHSkExEhEiR6cg8pAxZgVQgm5EaZB9yGDmFXEA6kFvIA6QHeY18QjFUDdVGjVArdCTKRFloOJqAjkcz0UloMTofXYKuRavRXWg9egq9hF5Hu9AXaD8GMFVMFzPFHDAmxsaisVQsA5NgM7FSrByrxuqwJnidr2JdWC/2ESfidJyBO8AdHIon4jx8Ej4TX4xX4DvwerwFv4o/wPvwbwQqwZBgT/AicAhjCJmEyYQSQjlhG+EQ4Qy8l7oJ74hEoi7RmugB78UUYjZxGnExcT1xD/EksYP4iNhPIpH0SfYkH1I0iUsqJJWQ1pF2kU6QrpC6SR9UVFVMVJxVglVSVUQqc1XKVXaqHFe5ovJU5TNZg2xJ9iJHk/nkqeSl5K3kJvJlcjf5M0WTYk3xoSRQsilzKGspdZQzlLuUN6qqqmaqnqqxqkLV2aprVfeqnld9oPpRTUvNTo2tNk5NqrZEbbvaSbVbam+oVKoV1Z+aSi2kLqHWUE9T71M/0Og0RxqHxqfNolXS6mlXaC/VyeqW6iz1CerF6uXqB9Qvq/dqkDWsNNgaXI2ZGpUahzU6Nfo16ZqjNKM18zQXa+7UvKD5TIukZaUVpMXXmq+1Reu01iM6Rjens+k8+jz6VvoZerc2Udtam6OdrV2mvVu7TbtPR0vHVSdJZ4pOpc4xnS5dTNdKl6Obq7tUd7/uDd1Pw4yGsYYJhi0aVjfsyrD3esP1/PUEeqV6e/Su633SZ+gH6efoL9dv0L9ngBvYGcQaTDbYYHDGoHe49nDv4bzhpcP3D79tiBraGcYZTjPcYthq2G9kbBRiJDZaZ3TaqNdY19jfONt4lfFx4x4TuomvidBklckJk+cMHQaLkctYy2hh9JkamoaaSk03m7aZfjazNks0m2u2x+yeOcWcaZ5hvsq82bzPwsQi0mK6Ra3FbUuyJdMyy3KN5TnL91bWVslWC6warJ5Z61lzrIuta63v2lBt/Gwm2VTbXLMl2jJtc2zX27bboXZudll2lXaX7VF7d3uh/Xr7jhGEEZ4jRCOqR3Q6qDmwHIocah0eOOo6RjjOdWxwfDnSYmTqyOUjz4385uTmlOu01enOKK1RYaPmjmoa9drZzpnnXOl8zYXqEuwyy6XR5ZWrvavAdYPrTTe6W6TbArdmt6/uHu4S9zr3Hg8LjzSPKo9OpjYzhrmYed6T4BngOcvzqOdHL3evQq/9Xn95O3jneO/0fjbaerRg9NbRj3zMfLg+m326fBm+ab6bfLv8TP24ftV+D/3N/fn+2/yfsmxZ2axdrJcBTgGSgEMB79le7Bnsk4FYYEhgaWBbkFZQYlBF0P1gs+DM4NrgvhC3kGkhJ0MJoeGhy0M7OUYcHqeG0xfmETYjrCVcLTw+vCL8YYRdhCSiKRKNDItcGXk3yjJKFNUQDaI50Suj78VYx0yKORJLjI2JrYx9EjcqbnrcuXh6/MT4nfHvEgISlibcSbRJlCY2J6knjUuqSXqfHJi8IrlrzMgxM8ZcSjFIEaY0ppJSk1K3pfaPDRq7emz3OLdxJeNujLceP2X8hQkGE3InHJuoPpE78UAaIS05bWfaF240t5rbn85Jr0rv47F5a3gv+P78VfwegY9gheBphk/GioxnmT6ZKzN7svyyyrN6hWxhhfBVdmj2xuz3OdE523MGcpNz9+Sp5KXlHRZpiXJELfnG+VPyO8T24hJx1ySvSasn9UnCJdsKkILxBY2F2vBDvlVqI/1F+qDIt6iy6MPkpMkHpmhOEU1pnWo3ddHUp8XBxb9Nw6fxpjVPN50+Z/qDGawZm2ciM9NnNs8ynzV/VvfskNk75lDm5Mz5fa7T3BVz385Lntc032j+7PmPfgn5pbaEViIp6VzgvWDjQnyhcGHbIpdF6xZ9K+WXXixzKisv+7KYt/jir6N+XfvrwJKMJW1L3ZduWEZcJlp2Y7nf8h0rNFcUr3i0MnJl/SrGqtJVb1dPXH2h3LV84xrKGumarrURaxvXWaxbtu5LRVbF9cqAyj1VhlWLqt6v56+/ssF/Q91Go41lGz9tEm66uTlkc321VXX5FuKWoi1PtiZtPfcb87eabQbbyrZ93S7a3rUjbkdLjUdNzU7DnUtr0Vppbc+ucbvadwfubqxzqNu8R3dP2V6wV7r3+b60fTf2h+9vPsA8UHfQ8mDVIfqh0nqkfmp9X0NWQ1djSmPH4bDDzU3eTYeOOB7ZftT0aOUxnWNLj1OOzz8+cKL4RP9J8cneU5mnHjVPbL5zeszpay2xLW1nws+cPxt89vQ51rkT533OH73gdeHwRebFhkvul+pb3VoP/e72+6E297b6yx6XG9s925s6Rnccv+J35dTVwKtnr3GuXboedb3jRuKNm53jOrtu8m8+u5V769Xtotuf78y+S7hbek/jXvl9w/vVf9j+safLvevYg8AHrQ/jH955xHv04nHB4y/d859Qn5Q/NXla88z52dGe4J7252Ofd78Qv/jcW/Kn5p9VL21eHvzL/6/WvjF93a8krwZeL36j/2b7W9e3zf0x/fff5b37/L70g/6HHR+ZH899Sv709PPkL6Qva7/afm36Fv7t7kDewICYK+HKPwUwWNGMDABebweAmgIAHZ7PKGMV5z95QRRnVjkC/wkrzojy4g5AHfx+j+2FXzedAOzdCo9fUF99HAAxVAASPAHq4jJUB89q8nOlrBDhOWBTzNf0vHTwb4rizPlD3D/3QKbqCn7u/wUd5Xx4U4WNHgAAAGxlWElmTU0AKgAAAAgABAEaAAUAAAABAAAAPgEbAAUAAAABAAAARgEoAAMAAAABAAIAAIdpAAQAAAABAAAATgAAAAAAAACQAAAAAQAAAJAAAAABAAKgAgAEAAAAAQAAACygAwAEAAAAAQAAADIAAAAASZQnRgAAAAlwSFlzAAAWJQAAFiUBSVIk8AAAAnpJREFUaAXtmAFugzAMRem0e9GerOVkbU/G/JF+lTLHiR1ChVRLLCW245dPCIzTLDYcyH4OxLqgfoF7X7HDKfzbW5HH4zHggJ3P5+VYTqJ/sEv0sPv9Pgvg6xA+7Ebz9Xqd4YvaEE0s5REujQMswdN+z+8ua/h2uwnXf8OSoF0uF/50tV2ASTBN02v9og/AKTTjXK3nctTGYo0KxHKscwQ461vHaudddgmoKMVM4aJKd10SGjG3uHEcNXe5T5O9Vx93CbRR67atrYEIizXcYrsBy7VeHiItsMjdBRiqtiyDdJLdgXOwUDxisazKSlBVU5bvGZXDvIWdcFbeS/wReDw/n89B277QDxNw/8Bv+BUn1psWfVBVSMxDU76i/Fz9pINieDegScEhfcmhnxcs+iTj+Nm2ZlY5xagS/TyvGTMaU7zpCIO7nXc8WlHg7dgDFpMsAgMsB4M1a/mjKlp5RWArmYpbMVv7wsCfgMXk3cBYBp+CdQN71yzisf45wdy94Fk21Qp7YQGHGzKF5c7SAl4FXAOLmNQAt+7jJDRfmmv9LgKziKUKYwjI83UO/FQZykfMBGYBa3ANDvEE4yQIR581JmO1NgtMWBZmi0KARMvi8KGPxlwNCnEci/GeNgtMGCqUFmJBtilsqTjH9eSkY6rAhCMsE9hPUBRfxzA21zJ3c2ALBD7Ln4PlhKOwGFdVOFewpX8L2N2AcTWwFFqUpVjdFd4SdheFc8qiP2KxrMpK2EW0ZYA++CJW/U+oKOIyfGHnl0rta7v2739VgcgsSzlQUIqbh6Z8aVz4uyksQKZgsiRMf87Z7ctPrmBr/+5f4L/ArQr0zj/ckvgDsUawnYTFUGIAAAAASUVORK5CYII=;" parent="A1PA44tEhQM_5LtgaNAi-33" vertex="1">
          <mxGeometry x="17.47" y="10" width="26.4" height="30" as="geometry" />
        </mxCell>
        <mxCell id="A1PA44tEhQM_5LtgaNAi-22" value="" style="shape=image;verticalLabelPosition=bottom;labelBackgroundColor=default;verticalAlign=top;aspect=fixed;imageAspect=0;image=data:image/png,iVBORw0KGgoAAAANSUhEUgAAADIAAAAyCAYAAAAeP4ixAAAMPWlDQ1BJQ0MgUHJvZmlsZQAASImVVwdYU8kWnluSkEBCCSAgJfQmiNQAUkJooXcEGyEJEEqIgaBiL4sKrl1UwIauiih2QOyInUWwYV8sqCjrYsGuvEkBXfeV702+mfnzz5n/nDl3bhkA1E9yxeJcVAOAPFGhJC4kgDEmJZVB6gE40AI0+GNyeQViVkxMBIBlsP97eXcDILL+qoNM65/j/7Vo8gUFPACQGIjT+QW8PIgPAoBX8cSSQgCIMt58cqFYhmEF2hIYIMQLZThTgatkOF2B98ptEuLYELcAoKLG5UoyAaC1Q55RxMuEGrQ+iJ1EfKEIAHUGxL55efl8iNMgtoE2Yohl+sz0H3Qy/6aZPqTJ5WYOYcVa5EUlUFggzuVO/T/T8b9LXq500IcVrGpZktA42Zph3m7m5IfLsBrEvaL0qGiItSD+IOTL7SFGKVnS0ESFPWrIK2DDnAFdiJ343MBwiA0hDhblRkUo+fQMYTAHYrhD0CnCQk4CxHoQLxQUBMUrbTZJ8uOUvtD6DAmbpeTPcyVyvzJf96U5iSyl/ussAUepj9GKsxKSIaZAbFEkTIqCmAaxY0FOfLjSZnRxFjtq0EYijZPFbwFxnEAUEqDQx4oyJMFxSvvSvILB9WKbsoScKCXeX5iVEKrID9bC48rjh2vB2gUiVuKgjqBgTMTgWviCwCDF2rFnAlFivFLng7gwIE4xF6eIc2OU9riZIDdExptB7FpQFK+ciycVwg2p0MczxIUxCYo48eJsbliMIh58GYgAbBAIGEAKazrIB9lA2Nbb0Av/KUaCARdIQCYQAAclMzgjWT4igm08KAZ/QiQABUPzAuSjAlAE+a9DrKJ1ABny0SL5jBzwBOI8EA5y4X+pfJZoyFsSeAwZ4T+8c2HlwXhzYZWN/3t+kP3OsCAToWSkgx4Z6oOWxCBiIDGUGEy0xQ1wX9wbj4CtP6zOOBP3HFzHd3vCE0IH4SHhOqGLcGuicK7kpygjQRfUD1bmIv3HXOBWUNMND8B9oDpUxnVxA+CAu0I/LNwPenaDLFsZtywrjJ+0/7aCH66G0o7sREbJw8j+ZJufZ9LsaG5DKrJc/5gfRazpQ/lmD4387J/9Q/b5sA//2RJbiB3AzmGnsAvYUawBMLATWCPWih2T4aHd9Vi+uwa9xcnjyYE6wn/4G7yyskwWONU69Th9UYwVCqbIntGAnS+eKhFmZhUyWPCNIGBwRDzHEQxnJ2c3AGTvF8Xj602s/L2B6LZ+5+b9AYDPiYGBgSPfubATAOzzgLf/4e+cDRO+OlQBOH+YJ5UUKThc1hDgU0Id3mn6wBiYAxu4HmfgDryBPwgCYSAaJIAUMAFGnwX3uQRMBtPBHFACysAysBpUgI1gC9gBdoP9oAEcBafAWXAJtIPr4A7cPd3gBegD78BnBEFICBWhI/qICWKJ2CPOCBPxRYKQCCQOSUHSkExEhEiR6cg8pAxZgVQgm5EaZB9yGDmFXEA6kFvIA6QHeY18QjFUDdVGjVArdCTKRFloOJqAjkcz0UloMTofXYKuRavRXWg9egq9hF5Hu9AXaD8GMFVMFzPFHDAmxsaisVQsA5NgM7FSrByrxuqwJnidr2JdWC/2ESfidJyBO8AdHIon4jx8Ej4TX4xX4DvwerwFv4o/wPvwbwQqwZBgT/AicAhjCJmEyYQSQjlhG+EQ4Qy8l7oJ74hEoi7RmugB78UUYjZxGnExcT1xD/EksYP4iNhPIpH0SfYkH1I0iUsqJJWQ1pF2kU6QrpC6SR9UVFVMVJxVglVSVUQqc1XKVXaqHFe5ovJU5TNZg2xJ9iJHk/nkqeSl5K3kJvJlcjf5M0WTYk3xoSRQsilzKGspdZQzlLuUN6qqqmaqnqqxqkLV2aprVfeqnld9oPpRTUvNTo2tNk5NqrZEbbvaSbVbam+oVKoV1Z+aSi2kLqHWUE9T71M/0Og0RxqHxqfNolXS6mlXaC/VyeqW6iz1CerF6uXqB9Qvq/dqkDWsNNgaXI2ZGpUahzU6Nfo16ZqjNKM18zQXa+7UvKD5TIukZaUVpMXXmq+1Reu01iM6Rjens+k8+jz6VvoZerc2Udtam6OdrV2mvVu7TbtPR0vHVSdJZ4pOpc4xnS5dTNdKl6Obq7tUd7/uDd1Pw4yGsYYJhi0aVjfsyrD3esP1/PUEeqV6e/Su633SZ+gH6efoL9dv0L9ngBvYGcQaTDbYYHDGoHe49nDv4bzhpcP3D79tiBraGcYZTjPcYthq2G9kbBRiJDZaZ3TaqNdY19jfONt4lfFx4x4TuomvidBklckJk+cMHQaLkctYy2hh9JkamoaaSk03m7aZfjazNks0m2u2x+yeOcWcaZ5hvsq82bzPwsQi0mK6Ra3FbUuyJdMyy3KN5TnL91bWVslWC6warJ5Z61lzrIuta63v2lBt/Gwm2VTbXLMl2jJtc2zX27bboXZudll2lXaX7VF7d3uh/Xr7jhGEEZ4jRCOqR3Q6qDmwHIocah0eOOo6RjjOdWxwfDnSYmTqyOUjz4385uTmlOu01enOKK1RYaPmjmoa9drZzpnnXOl8zYXqEuwyy6XR5ZWrvavAdYPrTTe6W6TbArdmt6/uHu4S9zr3Hg8LjzSPKo9OpjYzhrmYed6T4BngOcvzqOdHL3evQq/9Xn95O3jneO/0fjbaerRg9NbRj3zMfLg+m326fBm+ab6bfLv8TP24ftV+D/3N/fn+2/yfsmxZ2axdrJcBTgGSgEMB79le7Bnsk4FYYEhgaWBbkFZQYlBF0P1gs+DM4NrgvhC3kGkhJ0MJoeGhy0M7OUYcHqeG0xfmETYjrCVcLTw+vCL8YYRdhCSiKRKNDItcGXk3yjJKFNUQDaI50Suj78VYx0yKORJLjI2JrYx9EjcqbnrcuXh6/MT4nfHvEgISlibcSbRJlCY2J6knjUuqSXqfHJi8IrlrzMgxM8ZcSjFIEaY0ppJSk1K3pfaPDRq7emz3OLdxJeNujLceP2X8hQkGE3InHJuoPpE78UAaIS05bWfaF240t5rbn85Jr0rv47F5a3gv+P78VfwegY9gheBphk/GioxnmT6ZKzN7svyyyrN6hWxhhfBVdmj2xuz3OdE523MGcpNz9+Sp5KXlHRZpiXJELfnG+VPyO8T24hJx1ySvSasn9UnCJdsKkILxBY2F2vBDvlVqI/1F+qDIt6iy6MPkpMkHpmhOEU1pnWo3ddHUp8XBxb9Nw6fxpjVPN50+Z/qDGawZm2ciM9NnNs8ynzV/VvfskNk75lDm5Mz5fa7T3BVz385Lntc032j+7PmPfgn5pbaEViIp6VzgvWDjQnyhcGHbIpdF6xZ9K+WXXixzKisv+7KYt/jir6N+XfvrwJKMJW1L3ZduWEZcJlp2Y7nf8h0rNFcUr3i0MnJl/SrGqtJVb1dPXH2h3LV84xrKGumarrURaxvXWaxbtu5LRVbF9cqAyj1VhlWLqt6v56+/ssF/Q91Go41lGz9tEm66uTlkc321VXX5FuKWoi1PtiZtPfcb87eabQbbyrZ93S7a3rUjbkdLjUdNzU7DnUtr0Vppbc+ucbvadwfubqxzqNu8R3dP2V6wV7r3+b60fTf2h+9vPsA8UHfQ8mDVIfqh0nqkfmp9X0NWQ1djSmPH4bDDzU3eTYeOOB7ZftT0aOUxnWNLj1OOzz8+cKL4RP9J8cneU5mnHjVPbL5zeszpay2xLW1nws+cPxt89vQ51rkT533OH73gdeHwRebFhkvul+pb3VoP/e72+6E297b6yx6XG9s925s6Rnccv+J35dTVwKtnr3GuXboedb3jRuKNm53jOrtu8m8+u5V769Xtotuf78y+S7hbek/jXvl9w/vVf9j+safLvevYg8AHrQ/jH955xHv04nHB4y/d859Qn5Q/NXla88z52dGe4J7252Ofd78Qv/jcW/Kn5p9VL21eHvzL/6/WvjF93a8krwZeL36j/2b7W9e3zf0x/fff5b37/L70g/6HHR+ZH899Sv709PPkL6Qva7/afm36Fv7t7kDewICYK+HKPwUwWNGMDABebweAmgIAHZ7PKGMV5z95QRRnVjkC/wkrzojy4g5AHfx+j+2FXzedAOzdCo9fUF99HAAxVAASPAHq4jJUB89q8nOlrBDhOWBTzNf0vHTwb4rizPlD3D/3QKbqCn7u/wUd5Xx4U4WNHgAAAGxlWElmTU0AKgAAAAgABAEaAAUAAAABAAAAPgEbAAUAAAABAAAARgEoAAMAAAABAAIAAIdpAAQAAAABAAAATgAAAAAAAACQAAAAAQAAAJAAAAABAAKgAgAEAAAAAQAAADKgAwAEAAAAAQAAADIAAAAAH+FGrQAAAAlwSFlzAAAWJQAAFiUBSVIk8AAAAxZJREFUaAXtWQFuwjAMLNMexA+AlwEvA/7BX5gv03VXC5c4bWFCWMqSOLbjs52kYqubUfcG9PUGGAqED5D/lslPRlozstvtOrTValX6w+HQamqoh1vrGXQ6nXA73rbb7Q3j/X5fGnho4E2hbopyRhcA4Lwn8AnQr2XmTwMSRR6ZiNYyQJ5y2M/ns/n6Szomj/3xeOQw32dQT5FFWfF8eDvmdcnKvdLzstH8Ow99qMEIm5PDBTeLbifqO/H8NEIY8Xk4bae+tjFuJWQB+rA7hVIe4GBiQw+mtSTmOugIQAqIRkzBtAKhjalvyGxAWhxhSbXoakA5bs6InhEaq+0BAtmYCwT2bQICBwgkW1YE4UGDn7WlNpoexNYrE1fw5XLpLBAWh3mp6R2BMyQrEQ5He4DAyw15fP16QnAmAdT01I7Nib60qINyQ4tIdaLxmH5kl/x0RrSsrKY7RlojjKibUz0LOuA9ohqZ0AYR1fY4kGZs0PSQ6nqtzTnk0reWRa0HgbEvB8wJVAHO4eyYjTQQOoneg+BGCpa8pfsUkNpoK9ilAdD+l21aTXrQa5VadGptD+SIqKbXkonKSrNmG9WYnUUmdf1qdA3UICCcPJLBupeJbNFmVV8bDo00MhORZs3fWlhj02vay0W2x/jVuVcgYxtb9O5ev9DxempzLDhjALg2KxA4SiDeafDBg/NKmkG/pnKPxtVAYIhORhuqU7ox5KnrI69rHrzaeDROXb/mTCE9rOThm4t8c4js0pvz/Xyz2fRjDHRtsJCdPEKq6xo95SOStm9pUbYgH61Rd0pGUqUFZ9RplAkaHEEfOQq9iNReJFPDX0Eom0XIo5RABmDQl0niD/69ADJAvc2E+p9oDdqlZJgN9FMpXVpTN6T+nCBg8yVA5gbxEiC4EKywb76cMG+5LJjhpnfk74TlRnhn8AuKOXz3YPMdyln9lU59/bZsoDoAYZEvLO80firimupUj5mapXu+N+ZYKa17/ZTSekpGrtdrt16vSxuLMN+kMZlorflBjAy+iv/Uw74kyA+QJaPbYvttMvID7eptNsrRgYcAAAAASUVORK5CYII=;" parent="A1PA44tEhQM_5LtgaNAi-33" vertex="1">
          <mxGeometry x="14.870000000000005" y="48" width="30" height="30" as="geometry" />
        </mxCell>
        <mxCell id="A1PA44tEhQM_5LtgaNAi-23" value="" style="shape=image;verticalLabelPosition=bottom;labelBackgroundColor=default;verticalAlign=top;aspect=fixed;imageAspect=0;image=data:image/png,iVBORw0KGgoAAAANSUhEUgAAAC4AAAAsCAYAAAAacYo8AAAMPWlDQ1BJQ0MgUHJvZmlsZQAASImVVwdYU8kWnluSkEBCCSAgJfQmiNQAUkJooXcEGyEJEEqIgaBiL4sKrl1UwIauiih2QOyInUWwYV8sqCjrYsGuvEkBXfeV702+mfnzz5n/nDl3bhkA1E9yxeJcVAOAPFGhJC4kgDEmJZVB6gE40AI0+GNyeQViVkxMBIBlsP97eXcDILL+qoNM65/j/7Vo8gUFPACQGIjT+QW8PIgPAoBX8cSSQgCIMt58cqFYhmEF2hIYIMQLZThTgatkOF2B98ptEuLYELcAoKLG5UoyAaC1Q55RxMuEGrQ+iJ1EfKEIAHUGxL55efl8iNMgtoE2Yohl+sz0H3Qy/6aZPqTJ5WYOYcVa5EUlUFggzuVO/T/T8b9LXq500IcVrGpZktA42Zph3m7m5IfLsBrEvaL0qGiItSD+IOTL7SFGKVnS0ESFPWrIK2DDnAFdiJ343MBwiA0hDhblRkUo+fQMYTAHYrhD0CnCQk4CxHoQLxQUBMUrbTZJ8uOUvtD6DAmbpeTPcyVyvzJf96U5iSyl/ussAUepj9GKsxKSIaZAbFEkTIqCmAaxY0FOfLjSZnRxFjtq0EYijZPFbwFxnEAUEqDQx4oyJMFxSvvSvILB9WKbsoScKCXeX5iVEKrID9bC48rjh2vB2gUiVuKgjqBgTMTgWviCwCDF2rFnAlFivFLng7gwIE4xF6eIc2OU9riZIDdExptB7FpQFK+ciycVwg2p0MczxIUxCYo48eJsbliMIh58GYgAbBAIGEAKazrIB9lA2Nbb0Av/KUaCARdIQCYQAAclMzgjWT4igm08KAZ/QiQABUPzAuSjAlAE+a9DrKJ1ABny0SL5jBzwBOI8EA5y4X+pfJZoyFsSeAwZ4T+8c2HlwXhzYZWN/3t+kP3OsCAToWSkgx4Z6oOWxCBiIDGUGEy0xQ1wX9wbj4CtP6zOOBP3HFzHd3vCE0IH4SHhOqGLcGuicK7kpygjQRfUD1bmIv3HXOBWUNMND8B9oDpUxnVxA+CAu0I/LNwPenaDLFsZtywrjJ+0/7aCH66G0o7sREbJw8j+ZJufZ9LsaG5DKrJc/5gfRazpQ/lmD4387J/9Q/b5sA//2RJbiB3AzmGnsAvYUawBMLATWCPWih2T4aHd9Vi+uwa9xcnjyYE6wn/4G7yyskwWONU69Th9UYwVCqbIntGAnS+eKhFmZhUyWPCNIGBwRDzHEQxnJ2c3AGTvF8Xj602s/L2B6LZ+5+b9AYDPiYGBgSPfubATAOzzgLf/4e+cDRO+OlQBOH+YJ5UUKThc1hDgU0Id3mn6wBiYAxu4HmfgDryBPwgCYSAaJIAUMAFGnwX3uQRMBtPBHFACysAysBpUgI1gC9gBdoP9oAEcBafAWXAJtIPr4A7cPd3gBegD78BnBEFICBWhI/qICWKJ2CPOCBPxRYKQCCQOSUHSkExEhEiR6cg8pAxZgVQgm5EaZB9yGDmFXEA6kFvIA6QHeY18QjFUDdVGjVArdCTKRFloOJqAjkcz0UloMTofXYKuRavRXWg9egq9hF5Hu9AXaD8GMFVMFzPFHDAmxsaisVQsA5NgM7FSrByrxuqwJnidr2JdWC/2ESfidJyBO8AdHIon4jx8Ej4TX4xX4DvwerwFv4o/wPvwbwQqwZBgT/AicAhjCJmEyYQSQjlhG+EQ4Qy8l7oJ74hEoi7RmugB78UUYjZxGnExcT1xD/EksYP4iNhPIpH0SfYkH1I0iUsqJJWQ1pF2kU6QrpC6SR9UVFVMVJxVglVSVUQqc1XKVXaqHFe5ovJU5TNZg2xJ9iJHk/nkqeSl5K3kJvJlcjf5M0WTYk3xoSRQsilzKGspdZQzlLuUN6qqqmaqnqqxqkLV2aprVfeqnld9oPpRTUvNTo2tNk5NqrZEbbvaSbVbam+oVKoV1Z+aSi2kLqHWUE9T71M/0Og0RxqHxqfNolXS6mlXaC/VyeqW6iz1CerF6uXqB9Qvq/dqkDWsNNgaXI2ZGpUahzU6Nfo16ZqjNKM18zQXa+7UvKD5TIukZaUVpMXXmq+1Reu01iM6Rjens+k8+jz6VvoZerc2Udtam6OdrV2mvVu7TbtPR0vHVSdJZ4pOpc4xnS5dTNdKl6Obq7tUd7/uDd1Pw4yGsYYJhi0aVjfsyrD3esP1/PUEeqV6e/Su633SZ+gH6efoL9dv0L9ngBvYGcQaTDbYYHDGoHe49nDv4bzhpcP3D79tiBraGcYZTjPcYthq2G9kbBRiJDZaZ3TaqNdY19jfONt4lfFx4x4TuomvidBklckJk+cMHQaLkctYy2hh9JkamoaaSk03m7aZfjazNks0m2u2x+yeOcWcaZ5hvsq82bzPwsQi0mK6Ra3FbUuyJdMyy3KN5TnL91bWVslWC6warJ5Z61lzrIuta63v2lBt/Gwm2VTbXLMl2jJtc2zX27bboXZudll2lXaX7VF7d3uh/Xr7jhGEEZ4jRCOqR3Q6qDmwHIocah0eOOo6RjjOdWxwfDnSYmTqyOUjz4385uTmlOu01enOKK1RYaPmjmoa9drZzpnnXOl8zYXqEuwyy6XR5ZWrvavAdYPrTTe6W6TbArdmt6/uHu4S9zr3Hg8LjzSPKo9OpjYzhrmYed6T4BngOcvzqOdHL3evQq/9Xn95O3jneO/0fjbaerRg9NbRj3zMfLg+m326fBm+ab6bfLv8TP24ftV+D/3N/fn+2/yfsmxZ2axdrJcBTgGSgEMB79le7Bnsk4FYYEhgaWBbkFZQYlBF0P1gs+DM4NrgvhC3kGkhJ0MJoeGhy0M7OUYcHqeG0xfmETYjrCVcLTw+vCL8YYRdhCSiKRKNDItcGXk3yjJKFNUQDaI50Suj78VYx0yKORJLjI2JrYx9EjcqbnrcuXh6/MT4nfHvEgISlibcSbRJlCY2J6knjUuqSXqfHJi8IrlrzMgxM8ZcSjFIEaY0ppJSk1K3pfaPDRq7emz3OLdxJeNujLceP2X8hQkGE3InHJuoPpE78UAaIS05bWfaF240t5rbn85Jr0rv47F5a3gv+P78VfwegY9gheBphk/GioxnmT6ZKzN7svyyyrN6hWxhhfBVdmj2xuz3OdE523MGcpNz9+Sp5KXlHRZpiXJELfnG+VPyO8T24hJx1ySvSasn9UnCJdsKkILxBY2F2vBDvlVqI/1F+qDIt6iy6MPkpMkHpmhOEU1pnWo3ddHUp8XBxb9Nw6fxpjVPN50+Z/qDGawZm2ciM9NnNs8ynzV/VvfskNk75lDm5Mz5fa7T3BVz385Lntc032j+7PmPfgn5pbaEViIp6VzgvWDjQnyhcGHbIpdF6xZ9K+WXXixzKisv+7KYt/jir6N+XfvrwJKMJW1L3ZduWEZcJlp2Y7nf8h0rNFcUr3i0MnJl/SrGqtJVb1dPXH2h3LV84xrKGumarrURaxvXWaxbtu5LRVbF9cqAyj1VhlWLqt6v56+/ssF/Q91Go41lGz9tEm66uTlkc321VXX5FuKWoi1PtiZtPfcb87eabQbbyrZ93S7a3rUjbkdLjUdNzU7DnUtr0Vppbc+ucbvadwfubqxzqNu8R3dP2V6wV7r3+b60fTf2h+9vPsA8UHfQ8mDVIfqh0nqkfmp9X0NWQ1djSmPH4bDDzU3eTYeOOB7ZftT0aOUxnWNLj1OOzz8+cKL4RP9J8cneU5mnHjVPbL5zeszpay2xLW1nws+cPxt89vQ51rkT533OH73gdeHwRebFhkvul+pb3VoP/e72+6E297b6yx6XG9s925s6Rnccv+J35dTVwKtnr3GuXboedb3jRuKNm53jOrtu8m8+u5V769Xtotuf78y+S7hbek/jXvl9w/vVf9j+safLvevYg8AHrQ/jH955xHv04nHB4y/d859Qn5Q/NXla88z52dGe4J7252Ofd78Qv/jcW/Kn5p9VL21eHvzL/6/WvjF93a8krwZeL36j/2b7W9e3zf0x/fff5b37/L70g/6HHR+ZH899Sv709PPkL6Qva7/afm36Fv7t7kDewICYK+HKPwUwWNGMDABebweAmgIAHZ7PKGMV5z95QRRnVjkC/wkrzojy4g5AHfx+j+2FXzedAOzdCo9fUF99HAAxVAASPAHq4jJUB89q8nOlrBDhOWBTzNf0vHTwb4rizPlD3D/3QKbqCn7u/wUd5Xx4U4WNHgAAAGxlWElmTU0AKgAAAAgABAEaAAUAAAABAAAAPgEbAAUAAAABAAAARgEoAAMAAAABAAIAAIdpAAQAAAABAAAATgAAAAAAAACQAAAAAQAAAJAAAAABAAKgAgAEAAAAAQAAAC6gAwAEAAAAAQAAACwAAAAAQnieYgAAAAlwSFlzAAAWJQAAFiUBSVIk8AAAArZJREFUWAnVmA2SgjAMRmFn76WeTD2ZejK3j5mPDbGlAREwM2z/0uYlDaVr+0zSfKH8bsl8v99788fjsa+HKkR8C0mg7PRTJfXz+RxGacKaCyoC6yFpy5GIqZ/QtiyodLlcsqspVUif0+mU1Rl0RrxbUkeRTRDP2+02WFppQ1mT1VMFWKB5vAg8N+Z1V08VUiLBQ534hnI4HLoOdKriPdmynWC7nfAvbo7pdb9yWiv0Kfcj+Q3OLsCV90BTj0iLUjWfPqyg44/cj8rqL6cHmwPNGpuC8zHiJPGRljPeyUE7kk+f0OFlzJ0e5HgCrJrcJMeJ9OPx6KI9iGJq0I/4Xeg67Z+qa0EFIhURHXuJoYtsrszthF/7rfs4F6Lr9drYe3Uy2hBR+nioewl9Gf0k3/aeRNuKnD17bV+y00U0uhNRu9KrvwXSNKUAgfNixxjfDbgFo54TRTvnWE5/Tt9ryEZWiUAzXeDRe8eIyeLQpA+QjqoEVhT7MuqaWlR+Z6DokhsgV5Od/nHDfdPuyqfyG2Ph45CjTTJ2nHE8Ssb0dFzaD5HdLa1RKielihaJpMAYNIDcRyw0Drdt24Th+z2uVHjREnj3lE4TmyZWx6cM6/g+O9eP5dDCp4oFzy1EX8m4BZUOpRcFBls1WRRchiklAvVt64zGIsGR7r8F9RRKtk9gua20Rm3EqNvoah2rI5Ny0jquMV+GwZkoOAsDCG31yTn0BUI9IlrfOlqaNwmcRQQjQAHLgB+PQGiu1ozMmQwuI0SapyS1cT9PDkegmTsb3Bt+pz0Vehfg7AwpEo20ArRpxEvQYym4C/BSpOmvSV2jtsLMcX8aaRlShrGahG+HKQqLCRcs3Tb9jz/0J/iqrdXBuf0JWmWVMqOwOjgMtYimVMmgDrs2+SVriDCvNesfiXmmlp31teB/tdRLqdN/SJsAAAAASUVORK5CYII=;" parent="A1PA44tEhQM_5LtgaNAi-33" vertex="1">
          <mxGeometry x="48.639999999999986" y="30" width="31.36" height="29.99" as="geometry" />
        </mxCell>
        <mxCell id="A1PA44tEhQM_5LtgaNAi-34" value="" style="group" parent="1" vertex="1" connectable="0">
          <mxGeometry x="-400" y="340" width="90" height="90" as="geometry" />
        </mxCell>
        <mxCell id="A1PA44tEhQM_5LtgaNAi-24" value="" style="shape=lineEllipse;line=vertical;perimeter=ellipsePerimeter;whiteSpace=wrap;html=1;backgroundOutline=1;" parent="A1PA44tEhQM_5LtgaNAi-34" vertex="1">
          <mxGeometry width="90" height="90" as="geometry" />
        </mxCell>
        <mxCell id="A1PA44tEhQM_5LtgaNAi-25" value="" style="endArrow=none;html=1;rounded=0;entryX=0.5;entryY=0.513;entryDx=0;entryDy=0;entryPerimeter=0;exitX=0;exitY=0.5;exitDx=0;exitDy=0;" parent="A1PA44tEhQM_5LtgaNAi-34" source="A1PA44tEhQM_5LtgaNAi-24" target="A1PA44tEhQM_5LtgaNAi-24" edge="1">
          <mxGeometry width="50" height="50" relative="1" as="geometry">
            <mxPoint x="-310" y="90" as="sourcePoint" />
            <mxPoint x="-260" y="40" as="targetPoint" />
          </mxGeometry>
        </mxCell>
        <mxCell id="A1PA44tEhQM_5LtgaNAi-29" value="" style="shape=image;verticalLabelPosition=bottom;labelBackgroundColor=default;verticalAlign=top;aspect=fixed;imageAspect=0;image=data:image/png,iVBORw0KGgoAAAANSUhEUgAAACIAAAAuCAYAAABNhcu5AAAMPWlDQ1BJQ0MgUHJvZmlsZQAASImVVwdYU8kWnluSkEBCCSAgJfQmiNQAUkJooXcEGyEJEEqIgaBiL4sKrl1UwIauiih2QOyInUWwYV8sqCjrYsGuvEkBXfeV702+mfnzz5n/nDl3bhkA1E9yxeJcVAOAPFGhJC4kgDEmJZVB6gE40AI0+GNyeQViVkxMBIBlsP97eXcDILL+qoNM65/j/7Vo8gUFPACQGIjT+QW8PIgPAoBX8cSSQgCIMt58cqFYhmEF2hIYIMQLZThTgatkOF2B98ptEuLYELcAoKLG5UoyAaC1Q55RxMuEGrQ+iJ1EfKEIAHUGxL55efl8iNMgtoE2Yohl+sz0H3Qy/6aZPqTJ5WYOYcVa5EUlUFggzuVO/T/T8b9LXq500IcVrGpZktA42Zph3m7m5IfLsBrEvaL0qGiItSD+IOTL7SFGKVnS0ESFPWrIK2DDnAFdiJ343MBwiA0hDhblRkUo+fQMYTAHYrhD0CnCQk4CxHoQLxQUBMUrbTZJ8uOUvtD6DAmbpeTPcyVyvzJf96U5iSyl/ussAUepj9GKsxKSIaZAbFEkTIqCmAaxY0FOfLjSZnRxFjtq0EYijZPFbwFxnEAUEqDQx4oyJMFxSvvSvILB9WKbsoScKCXeX5iVEKrID9bC48rjh2vB2gUiVuKgjqBgTMTgWviCwCDF2rFnAlFivFLng7gwIE4xF6eIc2OU9riZIDdExptB7FpQFK+ciycVwg2p0MczxIUxCYo48eJsbliMIh58GYgAbBAIGEAKazrIB9lA2Nbb0Av/KUaCARdIQCYQAAclMzgjWT4igm08KAZ/QiQABUPzAuSjAlAE+a9DrKJ1ABny0SL5jBzwBOI8EA5y4X+pfJZoyFsSeAwZ4T+8c2HlwXhzYZWN/3t+kP3OsCAToWSkgx4Z6oOWxCBiIDGUGEy0xQ1wX9wbj4CtP6zOOBP3HFzHd3vCE0IH4SHhOqGLcGuicK7kpygjQRfUD1bmIv3HXOBWUNMND8B9oDpUxnVxA+CAu0I/LNwPenaDLFsZtywrjJ+0/7aCH66G0o7sREbJw8j+ZJufZ9LsaG5DKrJc/5gfRazpQ/lmD4387J/9Q/b5sA//2RJbiB3AzmGnsAvYUawBMLATWCPWih2T4aHd9Vi+uwa9xcnjyYE6wn/4G7yyskwWONU69Th9UYwVCqbIntGAnS+eKhFmZhUyWPCNIGBwRDzHEQxnJ2c3AGTvF8Xj602s/L2B6LZ+5+b9AYDPiYGBgSPfubATAOzzgLf/4e+cDRO+OlQBOH+YJ5UUKThc1hDgU0Id3mn6wBiYAxu4HmfgDryBPwgCYSAaJIAUMAFGnwX3uQRMBtPBHFACysAysBpUgI1gC9gBdoP9oAEcBafAWXAJtIPr4A7cPd3gBegD78BnBEFICBWhI/qICWKJ2CPOCBPxRYKQCCQOSUHSkExEhEiR6cg8pAxZgVQgm5EaZB9yGDmFXEA6kFvIA6QHeY18QjFUDdVGjVArdCTKRFloOJqAjkcz0UloMTofXYKuRavRXWg9egq9hF5Hu9AXaD8GMFVMFzPFHDAmxsaisVQsA5NgM7FSrByrxuqwJnidr2JdWC/2ESfidJyBO8AdHIon4jx8Ej4TX4xX4DvwerwFv4o/wPvwbwQqwZBgT/AicAhjCJmEyYQSQjlhG+EQ4Qy8l7oJ74hEoi7RmugB78UUYjZxGnExcT1xD/EksYP4iNhPIpH0SfYkH1I0iUsqJJWQ1pF2kU6QrpC6SR9UVFVMVJxVglVSVUQqc1XKVXaqHFe5ovJU5TNZg2xJ9iJHk/nkqeSl5K3kJvJlcjf5M0WTYk3xoSRQsilzKGspdZQzlLuUN6qqqmaqnqqxqkLV2aprVfeqnld9oPpRTUvNTo2tNk5NqrZEbbvaSbVbam+oVKoV1Z+aSi2kLqHWUE9T71M/0Og0RxqHxqfNolXS6mlXaC/VyeqW6iz1CerF6uXqB9Qvq/dqkDWsNNgaXI2ZGpUahzU6Nfo16ZqjNKM18zQXa+7UvKD5TIukZaUVpMXXmq+1Reu01iM6Rjens+k8+jz6VvoZerc2Udtam6OdrV2mvVu7TbtPR0vHVSdJZ4pOpc4xnS5dTNdKl6Obq7tUd7/uDd1Pw4yGsYYJhi0aVjfsyrD3esP1/PUEeqV6e/Su633SZ+gH6efoL9dv0L9ngBvYGcQaTDbYYHDGoHe49nDv4bzhpcP3D79tiBraGcYZTjPcYthq2G9kbBRiJDZaZ3TaqNdY19jfONt4lfFx4x4TuomvidBklckJk+cMHQaLkctYy2hh9JkamoaaSk03m7aZfjazNks0m2u2x+yeOcWcaZ5hvsq82bzPwsQi0mK6Ra3FbUuyJdMyy3KN5TnL91bWVslWC6warJ5Z61lzrIuta63v2lBt/Gwm2VTbXLMl2jJtc2zX27bboXZudll2lXaX7VF7d3uh/Xr7jhGEEZ4jRCOqR3Q6qDmwHIocah0eOOo6RjjOdWxwfDnSYmTqyOUjz4385uTmlOu01enOKK1RYaPmjmoa9drZzpnnXOl8zYXqEuwyy6XR5ZWrvavAdYPrTTe6W6TbArdmt6/uHu4S9zr3Hg8LjzSPKo9OpjYzhrmYed6T4BngOcvzqOdHL3evQq/9Xn95O3jneO/0fjbaerRg9NbRj3zMfLg+m326fBm+ab6bfLv8TP24ftV+D/3N/fn+2/yfsmxZ2axdrJcBTgGSgEMB79le7Bnsk4FYYEhgaWBbkFZQYlBF0P1gs+DM4NrgvhC3kGkhJ0MJoeGhy0M7OUYcHqeG0xfmETYjrCVcLTw+vCL8YYRdhCSiKRKNDItcGXk3yjJKFNUQDaI50Suj78VYx0yKORJLjI2JrYx9EjcqbnrcuXh6/MT4nfHvEgISlibcSbRJlCY2J6knjUuqSXqfHJi8IrlrzMgxM8ZcSjFIEaY0ppJSk1K3pfaPDRq7emz3OLdxJeNujLceP2X8hQkGE3InHJuoPpE78UAaIS05bWfaF240t5rbn85Jr0rv47F5a3gv+P78VfwegY9gheBphk/GioxnmT6ZKzN7svyyyrN6hWxhhfBVdmj2xuz3OdE523MGcpNz9+Sp5KXlHRZpiXJELfnG+VPyO8T24hJx1ySvSasn9UnCJdsKkILxBY2F2vBDvlVqI/1F+qDIt6iy6MPkpMkHpmhOEU1pnWo3ddHUp8XBxb9Nw6fxpjVPN50+Z/qDGawZm2ciM9NnNs8ynzV/VvfskNk75lDm5Mz5fa7T3BVz385Lntc032j+7PmPfgn5pbaEViIp6VzgvWDjQnyhcGHbIpdF6xZ9K+WXXixzKisv+7KYt/jir6N+XfvrwJKMJW1L3ZduWEZcJlp2Y7nf8h0rNFcUr3i0MnJl/SrGqtJVb1dPXH2h3LV84xrKGumarrURaxvXWaxbtu5LRVbF9cqAyj1VhlWLqt6v56+/ssF/Q91Go41lGz9tEm66uTlkc321VXX5FuKWoi1PtiZtPfcb87eabQbbyrZ93S7a3rUjbkdLjUdNzU7DnUtr0Vppbc+ucbvadwfubqxzqNu8R3dP2V6wV7r3+b60fTf2h+9vPsA8UHfQ8mDVIfqh0nqkfmp9X0NWQ1djSmPH4bDDzU3eTYeOOB7ZftT0aOUxnWNLj1OOzz8+cKL4RP9J8cneU5mnHjVPbL5zeszpay2xLW1nws+cPxt89vQ51rkT533OH73gdeHwRebFhkvul+pb3VoP/e72+6E297b6yx6XG9s925s6Rnccv+J35dTVwKtnr3GuXboedb3jRuKNm53jOrtu8m8+u5V769Xtotuf78y+S7hbek/jXvl9w/vVf9j+safLvevYg8AHrQ/jH955xHv04nHB4y/d859Qn5Q/NXla88z52dGe4J7252Ofd78Qv/jcW/Kn5p9VL21eHvzL/6/WvjF93a8krwZeL36j/2b7W9e3zf0x/fff5b37/L70g/6HHR+ZH899Sv709PPkL6Qva7/afm36Fv7t7kDewICYK+HKPwUwWNGMDABebweAmgIAHZ7PKGMV5z95QRRnVjkC/wkrzojy4g5AHfx+j+2FXzedAOzdCo9fUF99HAAxVAASPAHq4jJUB89q8nOlrBDhOWBTzNf0vHTwb4rizPlD3D/3QKbqCn7u/wUd5Xx4U4WNHgAAAGxlWElmTU0AKgAAAAgABAEaAAUAAAABAAAAPgEbAAUAAAABAAAARgEoAAMAAAABAAIAAIdpAAQAAAABAAAATgAAAAAAAACQAAAAAQAAAJAAAAABAAKgAgAEAAAAAQAAACKgAwAEAAAAAQAAAC4AAAAAraClUwAAAAlwSFlzAAAWJQAAFiUBSVIk8AAAAnlJREFUWAntmGGSwiAMhdudvZd6MvVk6slcvs68bpqmEJXO7I/NDAMkkPdIoKDjs8jwB+TrD3CYKHz3JHK/34fr9Tq5PBwOU325XFIQ3SIC4Ol0WpCA1DiOQ4oMe+RTud1u7LMntZXz+TzpI5sdR3vwinf6AqT2AgnK8Xj0pkW/CxFABOijYm0LZNfpQkSpiVataEG0JnVrbWbSpohEabMuup2asuJQONIpsax6t5WWVjTA3S01r5DYjcirJHYhohPk0+GPNeBWuqZmiwSAZcNa3FW7bl0Nrys4qj4SzEAXfWOst263LxeejqouPx1b9IWMunFtWfk2oWY1WyIbNaGvFY3d8hVGhBVwhWuFtIujxXXO1f54PObVYa9JSU3NPIww9CN4Q0QiMAhAMpgaTUvpVhHRI4YVAKyoAK7XF55FKoWSGeRzVgCelEjQF5+b9mhOVpc+vrVvRBasNi5FZG8SEGwS2TMdNkJVIq+SIHJ8QdlHFNr4yMgmEZHAeUYYD7AdL1IZMiGRDAnvXFGwRGhH+mhhKyJZEgBILOAWQa/XXNW/3opGJJRbuzom0NcYaiv0fWosQe/LzqU9ExGAQmlrAJRv6b2jqG99Rnarm4kAwESJdSJw1a3V4UPR8FGSf19PRABlghecWUK0WyJfIt0aL/scESk+rSFvF/BSRD4F35oPIUWGdk26R8SDaZNHqbdju/3k1LulRCCUlr0LER5TPJi3XnYhM6+04Xm3rfAX3ysX6FRWRqPoEhH9cVc25GKdNh3lWC9sq44h9VFT3xtqij0x9FsSvuJXbJMKPbz1M4NIlbRNpeWiK5EWWM3eZY/UALK2fyI+Uj84cRKR15SyHgAAAABJRU5ErkJggg==;" parent="A1PA44tEhQM_5LtgaNAi-34" vertex="1">
          <mxGeometry x="19.47" y="10" width="22.17" height="30" as="geometry" />
        </mxCell>
        <mxCell id="A1PA44tEhQM_5LtgaNAi-30" value="" style="shape=image;verticalLabelPosition=bottom;labelBackgroundColor=default;verticalAlign=top;aspect=fixed;imageAspect=0;image=data:image/png,iVBORw0KGgoAAAANSUhEUgAAACIAAAAsCAYAAAAATWqyAAAMPWlDQ1BJQ0MgUHJvZmlsZQAASImVVwdYU8kWnluSkEBCCSAgJfQmiNQAUkJooXcEGyEJEEqIgaBiL4sKrl1UwIauiih2QOyInUWwYV8sqCjrYsGuvEkBXfeV702+mfnzz5n/nDl3bhkA1E9yxeJcVAOAPFGhJC4kgDEmJZVB6gE40AI0+GNyeQViVkxMBIBlsP97eXcDILL+qoNM65/j/7Vo8gUFPACQGIjT+QW8PIgPAoBX8cSSQgCIMt58cqFYhmEF2hIYIMQLZThTgatkOF2B98ptEuLYELcAoKLG5UoyAaC1Q55RxMuEGrQ+iJ1EfKEIAHUGxL55efl8iNMgtoE2Yohl+sz0H3Qy/6aZPqTJ5WYOYcVa5EUlUFggzuVO/T/T8b9LXq500IcVrGpZktA42Zph3m7m5IfLsBrEvaL0qGiItSD+IOTL7SFGKVnS0ESFPWrIK2DDnAFdiJ343MBwiA0hDhblRkUo+fQMYTAHYrhD0CnCQk4CxHoQLxQUBMUrbTZJ8uOUvtD6DAmbpeTPcyVyvzJf96U5iSyl/ussAUepj9GKsxKSIaZAbFEkTIqCmAaxY0FOfLjSZnRxFjtq0EYijZPFbwFxnEAUEqDQx4oyJMFxSvvSvILB9WKbsoScKCXeX5iVEKrID9bC48rjh2vB2gUiVuKgjqBgTMTgWviCwCDF2rFnAlFivFLng7gwIE4xF6eIc2OU9riZIDdExptB7FpQFK+ciycVwg2p0MczxIUxCYo48eJsbliMIh58GYgAbBAIGEAKazrIB9lA2Nbb0Av/KUaCARdIQCYQAAclMzgjWT4igm08KAZ/QiQABUPzAuSjAlAE+a9DrKJ1ABny0SL5jBzwBOI8EA5y4X+pfJZoyFsSeAwZ4T+8c2HlwXhzYZWN/3t+kP3OsCAToWSkgx4Z6oOWxCBiIDGUGEy0xQ1wX9wbj4CtP6zOOBP3HFzHd3vCE0IH4SHhOqGLcGuicK7kpygjQRfUD1bmIv3HXOBWUNMND8B9oDpUxnVxA+CAu0I/LNwPenaDLFsZtywrjJ+0/7aCH66G0o7sREbJw8j+ZJufZ9LsaG5DKrJc/5gfRazpQ/lmD4387J/9Q/b5sA//2RJbiB3AzmGnsAvYUawBMLATWCPWih2T4aHd9Vi+uwa9xcnjyYE6wn/4G7yyskwWONU69Th9UYwVCqbIntGAnS+eKhFmZhUyWPCNIGBwRDzHEQxnJ2c3AGTvF8Xj602s/L2B6LZ+5+b9AYDPiYGBgSPfubATAOzzgLf/4e+cDRO+OlQBOH+YJ5UUKThc1hDgU0Id3mn6wBiYAxu4HmfgDryBPwgCYSAaJIAUMAFGnwX3uQRMBtPBHFACysAysBpUgI1gC9gBdoP9oAEcBafAWXAJtIPr4A7cPd3gBegD78BnBEFICBWhI/qICWKJ2CPOCBPxRYKQCCQOSUHSkExEhEiR6cg8pAxZgVQgm5EaZB9yGDmFXEA6kFvIA6QHeY18QjFUDdVGjVArdCTKRFloOJqAjkcz0UloMTofXYKuRavRXWg9egq9hF5Hu9AXaD8GMFVMFzPFHDAmxsaisVQsA5NgM7FSrByrxuqwJnidr2JdWC/2ESfidJyBO8AdHIon4jx8Ej4TX4xX4DvwerwFv4o/wPvwbwQqwZBgT/AicAhjCJmEyYQSQjlhG+EQ4Qy8l7oJ74hEoi7RmugB78UUYjZxGnExcT1xD/EksYP4iNhPIpH0SfYkH1I0iUsqJJWQ1pF2kU6QrpC6SR9UVFVMVJxVglVSVUQqc1XKVXaqHFe5ovJU5TNZg2xJ9iJHk/nkqeSl5K3kJvJlcjf5M0WTYk3xoSRQsilzKGspdZQzlLuUN6qqqmaqnqqxqkLV2aprVfeqnld9oPpRTUvNTo2tNk5NqrZEbbvaSbVbam+oVKoV1Z+aSi2kLqHWUE9T71M/0Og0RxqHxqfNolXS6mlXaC/VyeqW6iz1CerF6uXqB9Qvq/dqkDWsNNgaXI2ZGpUahzU6Nfo16ZqjNKM18zQXa+7UvKD5TIukZaUVpMXXmq+1Reu01iM6Rjens+k8+jz6VvoZerc2Udtam6OdrV2mvVu7TbtPR0vHVSdJZ4pOpc4xnS5dTNdKl6Obq7tUd7/uDd1Pw4yGsYYJhi0aVjfsyrD3esP1/PUEeqV6e/Su633SZ+gH6efoL9dv0L9ngBvYGcQaTDbYYHDGoHe49nDv4bzhpcP3D79tiBraGcYZTjPcYthq2G9kbBRiJDZaZ3TaqNdY19jfONt4lfFx4x4TuomvidBklckJk+cMHQaLkctYy2hh9JkamoaaSk03m7aZfjazNks0m2u2x+yeOcWcaZ5hvsq82bzPwsQi0mK6Ra3FbUuyJdMyy3KN5TnL91bWVslWC6warJ5Z61lzrIuta63v2lBt/Gwm2VTbXLMl2jJtc2zX27bboXZudll2lXaX7VF7d3uh/Xr7jhGEEZ4jRCOqR3Q6qDmwHIocah0eOOo6RjjOdWxwfDnSYmTqyOUjz4385uTmlOu01enOKK1RYaPmjmoa9drZzpnnXOl8zYXqEuwyy6XR5ZWrvavAdYPrTTe6W6TbArdmt6/uHu4S9zr3Hg8LjzSPKo9OpjYzhrmYed6T4BngOcvzqOdHL3evQq/9Xn95O3jneO/0fjbaerRg9NbRj3zMfLg+m326fBm+ab6bfLv8TP24ftV+D/3N/fn+2/yfsmxZ2axdrJcBTgGSgEMB79le7Bnsk4FYYEhgaWBbkFZQYlBF0P1gs+DM4NrgvhC3kGkhJ0MJoeGhy0M7OUYcHqeG0xfmETYjrCVcLTw+vCL8YYRdhCSiKRKNDItcGXk3yjJKFNUQDaI50Suj78VYx0yKORJLjI2JrYx9EjcqbnrcuXh6/MT4nfHvEgISlibcSbRJlCY2J6knjUuqSXqfHJi8IrlrzMgxM8ZcSjFIEaY0ppJSk1K3pfaPDRq7emz3OLdxJeNujLceP2X8hQkGE3InHJuoPpE78UAaIS05bWfaF240t5rbn85Jr0rv47F5a3gv+P78VfwegY9gheBphk/GioxnmT6ZKzN7svyyyrN6hWxhhfBVdmj2xuz3OdE523MGcpNz9+Sp5KXlHRZpiXJELfnG+VPyO8T24hJx1ySvSasn9UnCJdsKkILxBY2F2vBDvlVqI/1F+qDIt6iy6MPkpMkHpmhOEU1pnWo3ddHUp8XBxb9Nw6fxpjVPN50+Z/qDGawZm2ciM9NnNs8ynzV/VvfskNk75lDm5Mz5fa7T3BVz385Lntc032j+7PmPfgn5pbaEViIp6VzgvWDjQnyhcGHbIpdF6xZ9K+WXXixzKisv+7KYt/jir6N+XfvrwJKMJW1L3ZduWEZcJlp2Y7nf8h0rNFcUr3i0MnJl/SrGqtJVb1dPXH2h3LV84xrKGumarrURaxvXWaxbtu5LRVbF9cqAyj1VhlWLqt6v56+/ssF/Q91Go41lGz9tEm66uTlkc321VXX5FuKWoi1PtiZtPfcb87eabQbbyrZ93S7a3rUjbkdLjUdNzU7DnUtr0Vppbc+ucbvadwfubqxzqNu8R3dP2V6wV7r3+b60fTf2h+9vPsA8UHfQ8mDVIfqh0nqkfmp9X0NWQ1djSmPH4bDDzU3eTYeOOB7ZftT0aOUxnWNLj1OOzz8+cKL4RP9J8cneU5mnHjVPbL5zeszpay2xLW1nws+cPxt89vQ51rkT533OH73gdeHwRebFhkvul+pb3VoP/e72+6E297b6yx6XG9s925s6Rnccv+J35dTVwKtnr3GuXboedb3jRuKNm53jOrtu8m8+u5V769Xtotuf78y+S7hbek/jXvl9w/vVf9j+safLvevYg8AHrQ/jH955xHv04nHB4y/d859Qn5Q/NXla88z52dGe4J7252Ofd78Qv/jcW/Kn5p9VL21eHvzL/6/WvjF93a8krwZeL36j/2b7W9e3zf0x/fff5b37/L70g/6HHR+ZH899Sv709PPkL6Qva7/afm36Fv7t7kDewICYK+HKPwUwWNGMDABebweAmgIAHZ7PKGMV5z95QRRnVjkC/wkrzojy4g5AHfx+j+2FXzedAOzdCo9fUF99HAAxVAASPAHq4jJUB89q8nOlrBDhOWBTzNf0vHTwb4rizPlD3D/3QKbqCn7u/wUd5Xx4U4WNHgAAAGxlWElmTU0AKgAAAAgABAEaAAUAAAABAAAAPgEbAAUAAAABAAAARgEoAAMAAAABAAIAAIdpAAQAAAABAAAATgAAAAAAAACQAAAAAQAAAJAAAAABAAKgAgAEAAAAAQAAACKgAwAEAAAAAQAAACwAAAAA12D2MwAAAAlwSFlzAAAWJQAAFiUBSVIk8AAAAslJREFUWAnNl1uS4jAMRcPU7Aj+G3bDLoBlsBrgnz0xOpm66RvHdhzITLWq0pZlPa4edtGbV1D3A+jXD8DQQ/i9JpDn89ldr9feJfxut+u22213PB7nw9CaNeh2u9Hi136/f8GfTqeeR8aHrEZd7XDJGQAInhJyAUzPfL8KELItZS4gc1VZfVjv93vE/Kao0vemxnl5PuE1E6kPr1auddLfwOSApplFiXNqs7Lz+dxdLpderxCqP5tcXzf0KDUnrlfiZ1tERZwoH184HD4G7h2Snxb74q2REwDBv0PYtoDAd9OteWc+DodDh10Ma6lbY3kpU7LRV9IpyalCWsW5lzVbEb8xS6vBsH99fXWsTvhMZX4+CwSnraRAWt2OK1xLanJ93Ri+Zuy6BFcw5sNJFa75yj5om81m8BNz0MmR1jRj5GnwwYEx+CrRBIg7JQNao0wFBGcxjJ0AIfezXDB81SoyeUeY9nA0fGH88on3c5eXblCrvAoEEDkS0NJ5zmZONgGiIKwlAoD0SjpL5aNolFoBatlKh3Wt9ozeER+41vcjAAeez2kExN2VAjhY1/+Y916Gs6E1Lnfeb02ufZwjly/2LZStSKkaZP14PFh6StunhzCCM3v9W8MbhHy2kkLrg1rLIhAM2cqWFRvOUltVJ1c9tx/dGgVJnclAwWoBOXMSkFTuOvCj1tRaEo6GH8Ho6XlHDqlNAfavIPlbkg9qjkwZ58roZ0vejgiUbZnHhR/XMQQqJYEhgqay/qDhj8DLV81kAgRlOVA2AGmtgoAvBZ8FIuStwaWvFTuSWQKmCkSOP1lbwfxzIFRHLa5VeHR9h6v0BjP7coZPXtkSrQIEEPxmnXvK9dbkwKwCxB2nlUn3rjviPxlE2WoOGMyU/ClIz3y/2rAqICvA+CSLzPu9B0751YDgmMAenAqxb6HJ/zWjvv3HzerD+i72P2RhM9703hzRAAAAAElFTkSuQmCC;" parent="A1PA44tEhQM_5LtgaNAi-34" vertex="1">
          <mxGeometry x="18.28" y="50" width="23.18" height="30" as="geometry" />
        </mxCell>
        <mxCell id="A1PA44tEhQM_5LtgaNAi-31" value="" style="shape=image;verticalLabelPosition=bottom;labelBackgroundColor=default;verticalAlign=top;aspect=fixed;imageAspect=0;image=data:image/png,iVBORw0KGgoAAAANSUhEUgAAADAAAAAwCAYAAABXAvmHAAAMPWlDQ1BJQ0MgUHJvZmlsZQAASImVVwdYU8kWnluSkEBCCSAgJfQmiNQAUkJooXcEGyEJEEqIgaBiL4sKrl1UwIauiih2QOyInUWwYV8sqCjrYsGuvEkBXfeV702+mfnzz5n/nDl3bhkA1E9yxeJcVAOAPFGhJC4kgDEmJZVB6gE40AI0+GNyeQViVkxMBIBlsP97eXcDILL+qoNM65/j/7Vo8gUFPACQGIjT+QW8PIgPAoBX8cSSQgCIMt58cqFYhmEF2hIYIMQLZThTgatkOF2B98ptEuLYELcAoKLG5UoyAaC1Q55RxMuEGrQ+iJ1EfKEIAHUGxL55efl8iNMgtoE2Yohl+sz0H3Qy/6aZPqTJ5WYOYcVa5EUlUFggzuVO/T/T8b9LXq500IcVrGpZktA42Zph3m7m5IfLsBrEvaL0qGiItSD+IOTL7SFGKVnS0ESFPWrIK2DDnAFdiJ343MBwiA0hDhblRkUo+fQMYTAHYrhD0CnCQk4CxHoQLxQUBMUrbTZJ8uOUvtD6DAmbpeTPcyVyvzJf96U5iSyl/ussAUepj9GKsxKSIaZAbFEkTIqCmAaxY0FOfLjSZnRxFjtq0EYijZPFbwFxnEAUEqDQx4oyJMFxSvvSvILB9WKbsoScKCXeX5iVEKrID9bC48rjh2vB2gUiVuKgjqBgTMTgWviCwCDF2rFnAlFivFLng7gwIE4xF6eIc2OU9riZIDdExptB7FpQFK+ciycVwg2p0MczxIUxCYo48eJsbliMIh58GYgAbBAIGEAKazrIB9lA2Nbb0Av/KUaCARdIQCYQAAclMzgjWT4igm08KAZ/QiQABUPzAuSjAlAE+a9DrKJ1ABny0SL5jBzwBOI8EA5y4X+pfJZoyFsSeAwZ4T+8c2HlwXhzYZWN/3t+kP3OsCAToWSkgx4Z6oOWxCBiIDGUGEy0xQ1wX9wbj4CtP6zOOBP3HFzHd3vCE0IH4SHhOqGLcGuicK7kpygjQRfUD1bmIv3HXOBWUNMND8B9oDpUxnVxA+CAu0I/LNwPenaDLFsZtywrjJ+0/7aCH66G0o7sREbJw8j+ZJufZ9LsaG5DKrJc/5gfRazpQ/lmD4387J/9Q/b5sA//2RJbiB3AzmGnsAvYUawBMLATWCPWih2T4aHd9Vi+uwa9xcnjyYE6wn/4G7yyskwWONU69Th9UYwVCqbIntGAnS+eKhFmZhUyWPCNIGBwRDzHEQxnJ2c3AGTvF8Xj602s/L2B6LZ+5+b9AYDPiYGBgSPfubATAOzzgLf/4e+cDRO+OlQBOH+YJ5UUKThc1hDgU0Id3mn6wBiYAxu4HmfgDryBPwgCYSAaJIAUMAFGnwX3uQRMBtPBHFACysAysBpUgI1gC9gBdoP9oAEcBafAWXAJtIPr4A7cPd3gBegD78BnBEFICBWhI/qICWKJ2CPOCBPxRYKQCCQOSUHSkExEhEiR6cg8pAxZgVQgm5EaZB9yGDmFXEA6kFvIA6QHeY18QjFUDdVGjVArdCTKRFloOJqAjkcz0UloMTofXYKuRavRXWg9egq9hF5Hu9AXaD8GMFVMFzPFHDAmxsaisVQsA5NgM7FSrByrxuqwJnidr2JdWC/2ESfidJyBO8AdHIon4jx8Ej4TX4xX4DvwerwFv4o/wPvwbwQqwZBgT/AicAhjCJmEyYQSQjlhG+EQ4Qy8l7oJ74hEoi7RmugB78UUYjZxGnExcT1xD/EksYP4iNhPIpH0SfYkH1I0iUsqJJWQ1pF2kU6QrpC6SR9UVFVMVJxVglVSVUQqc1XKVXaqHFe5ovJU5TNZg2xJ9iJHk/nkqeSl5K3kJvJlcjf5M0WTYk3xoSRQsilzKGspdZQzlLuUN6qqqmaqnqqxqkLV2aprVfeqnld9oPpRTUvNTo2tNk5NqrZEbbvaSbVbam+oVKoV1Z+aSi2kLqHWUE9T71M/0Og0RxqHxqfNolXS6mlXaC/VyeqW6iz1CerF6uXqB9Qvq/dqkDWsNNgaXI2ZGpUahzU6Nfo16ZqjNKM18zQXa+7UvKD5TIukZaUVpMXXmq+1Reu01iM6Rjens+k8+jz6VvoZerc2Udtam6OdrV2mvVu7TbtPR0vHVSdJZ4pOpc4xnS5dTNdKl6Obq7tUd7/uDd1Pw4yGsYYJhi0aVjfsyrD3esP1/PUEeqV6e/Su633SZ+gH6efoL9dv0L9ngBvYGcQaTDbYYHDGoHe49nDv4bzhpcP3D79tiBraGcYZTjPcYthq2G9kbBRiJDZaZ3TaqNdY19jfONt4lfFx4x4TuomvidBklckJk+cMHQaLkctYy2hh9JkamoaaSk03m7aZfjazNks0m2u2x+yeOcWcaZ5hvsq82bzPwsQi0mK6Ra3FbUuyJdMyy3KN5TnL91bWVslWC6warJ5Z61lzrIuta63v2lBt/Gwm2VTbXLMl2jJtc2zX27bboXZudll2lXaX7VF7d3uh/Xr7jhGEEZ4jRCOqR3Q6qDmwHIocah0eOOo6RjjOdWxwfDnSYmTqyOUjz4385uTmlOu01enOKK1RYaPmjmoa9drZzpnnXOl8zYXqEuwyy6XR5ZWrvavAdYPrTTe6W6TbArdmt6/uHu4S9zr3Hg8LjzSPKo9OpjYzhrmYed6T4BngOcvzqOdHL3evQq/9Xn95O3jneO/0fjbaerRg9NbRj3zMfLg+m326fBm+ab6bfLv8TP24ftV+D/3N/fn+2/yfsmxZ2axdrJcBTgGSgEMB79le7Bnsk4FYYEhgaWBbkFZQYlBF0P1gs+DM4NrgvhC3kGkhJ0MJoeGhy0M7OUYcHqeG0xfmETYjrCVcLTw+vCL8YYRdhCSiKRKNDItcGXk3yjJKFNUQDaI50Suj78VYx0yKORJLjI2JrYx9EjcqbnrcuXh6/MT4nfHvEgISlibcSbRJlCY2J6knjUuqSXqfHJi8IrlrzMgxM8ZcSjFIEaY0ppJSk1K3pfaPDRq7emz3OLdxJeNujLceP2X8hQkGE3InHJuoPpE78UAaIS05bWfaF240t5rbn85Jr0rv47F5a3gv+P78VfwegY9gheBphk/GioxnmT6ZKzN7svyyyrN6hWxhhfBVdmj2xuz3OdE523MGcpNz9+Sp5KXlHRZpiXJELfnG+VPyO8T24hJx1ySvSasn9UnCJdsKkILxBY2F2vBDvlVqI/1F+qDIt6iy6MPkpMkHpmhOEU1pnWo3ddHUp8XBxb9Nw6fxpjVPN50+Z/qDGawZm2ciM9NnNs8ynzV/VvfskNk75lDm5Mz5fa7T3BVz385Lntc032j+7PmPfgn5pbaEViIp6VzgvWDjQnyhcGHbIpdF6xZ9K+WXXixzKisv+7KYt/jir6N+XfvrwJKMJW1L3ZduWEZcJlp2Y7nf8h0rNFcUr3i0MnJl/SrGqtJVb1dPXH2h3LV84xrKGumarrURaxvXWaxbtu5LRVbF9cqAyj1VhlWLqt6v56+/ssF/Q91Go41lGz9tEm66uTlkc321VXX5FuKWoi1PtiZtPfcb87eabQbbyrZ93S7a3rUjbkdLjUdNzU7DnUtr0Vppbc+ucbvadwfubqxzqNu8R3dP2V6wV7r3+b60fTf2h+9vPsA8UHfQ8mDVIfqh0nqkfmp9X0NWQ1djSmPH4bDDzU3eTYeOOB7ZftT0aOUxnWNLj1OOzz8+cKL4RP9J8cneU5mnHjVPbL5zeszpay2xLW1nws+cPxt89vQ51rkT533OH73gdeHwRebFhkvul+pb3VoP/e72+6E297b6yx6XG9s925s6Rnccv+J35dTVwKtnr3GuXboedb3jRuKNm53jOrtu8m8+u5V769Xtotuf78y+S7hbek/jXvl9w/vVf9j+safLvevYg8AHrQ/jH955xHv04nHB4y/d859Qn5Q/NXla88z52dGe4J7252Ofd78Qv/jcW/Kn5p9VL21eHvzL/6/WvjF93a8krwZeL36j/2b7W9e3zf0x/fff5b37/L70g/6HHR+ZH899Sv709PPkL6Qva7/afm36Fv7t7kDewICYK+HKPwUwWNGMDABebweAmgIAHZ7PKGMV5z95QRRnVjkC/wkrzojy4g5AHfx+j+2FXzedAOzdCo9fUF99HAAxVAASPAHq4jJUB89q8nOlrBDhOWBTzNf0vHTwb4rizPlD3D/3QKbqCn7u/wUd5Xx4U4WNHgAAAGxlWElmTU0AKgAAAAgABAEaAAUAAAABAAAAPgEbAAUAAAABAAAARgEoAAMAAAABAAIAAIdpAAQAAAABAAAATgAAAAAAAACQAAAAAQAAAJAAAAABAAKgAgAEAAAAAQAAADCgAwAEAAAAAQAAADAAAAAAsR2FCgAAAAlwSFlzAAAWJQAAFiUBSVIk8AAAAx9JREFUaAXVmIFxwjAMRUOv07AEsASMA8zDEMAQsA71893nRGpbdqBJqjvXjiRL/9uyk7J4BOn+sXz9Y+wR+vdUBG63W3c6nWL65XIZ++122wxnEgKbzeYJdLVadbvdLj7f7/duvV7H9nTwBpyBMWW/3z9oVs7n8yMA5yzG3tq8cec5fNIOcED2CZADEthy9hyOSQgAEsB9EQF2o1ZGvYWob8nlctHw2cuesj2d+oNapp/yo3xSq0/8gC22lh0YtYS8RRCB1BnJzZ0NAUCLQA5sSj8LApSUwLesPoRmQYCah0Ar+FkQUOnkDnaqbKxu0h14F/ykO1ACTznVyiQfc4fDobter6AMWF8Fm15or5b00yJuQ9r2J1oAHo/HLuxAMj7EkHAmkvZfytqt+oSfvS4DkHjzpHrKq1YGfQvxrULju36xWMSelZXkvmVyes0b1NcylZ8OX0gWv915ls6OW75nFHtIX3/cQ3QBBXz/3rY27LQxpDqL3pYAA2xKanxS897RVZ0B6lv1yxVn6z0QmlZq2AeEzxsjt/rEsX79EqvJM8THLaF+beeS9K/InN+n9S4Bu6ql1bdEx7qBWIzvUgGr7ks+KRu/9XhCbN7IEuYMOlulLbWrGhL9ujrtXOxqXv2zQzT8aDYP4xYplpANDLiSCLznR8xUiaFTDEjVShGVJVBaGetnwUlvwQik9cMOaNlaCBTfAyFJiNkmXv0rZv982Wc7drPb1emP7ar0V0y+WuWQKK6g3Sl09pk5xERHbwWdYli9Ny6WEJMBngtsk8pHwGTzAMiu+cxrEZcAgCwJEtCkw04TAPSy1YCx8ZnXKi4BBbSgBVI2eoDgIyIeeOvLHM/f5rLjagJ20qfGkLbEIcFzi0xKwAK1O9JCYjYEAK3yazkLo/8qEUBmhf+vJWF3NCz2xRdZceYAIx9rgKR5LyvPrvSjEtBvPiT3AIYyEsZiPyqBEhJLKBzokuurzd4Efz3WQU3d+RzcgCy2FhzFf2heqb7/RFkEErF8OAe2TNgB2VsyTXYLAZiGiIj6qKz8MxmBSnyu22wOsYs04/ADwssI3LtiyccAAAAASUVORK5CYII=;" parent="A1PA44tEhQM_5LtgaNAi-34" vertex="1">
          <mxGeometry x="49.31999999999999" y="30" width="30" height="30" as="geometry" />
        </mxCell>
        <mxCell id="A1PA44tEhQM_5LtgaNAi-35" value="" style="group" parent="1" vertex="1" connectable="0">
          <mxGeometry x="-170" y="140" width="90" height="90" as="geometry" />
        </mxCell>
        <mxCell id="A1PA44tEhQM_5LtgaNAi-36" value="" style="shape=lineEllipse;line=vertical;perimeter=ellipsePerimeter;whiteSpace=wrap;html=1;backgroundOutline=1;" parent="A1PA44tEhQM_5LtgaNAi-35" vertex="1">
          <mxGeometry x="3" width="90" height="90" as="geometry" />
        </mxCell>
        <mxCell id="A1PA44tEhQM_5LtgaNAi-37" value="" style="endArrow=none;html=1;rounded=0;entryX=0.5;entryY=0.513;entryDx=0;entryDy=0;entryPerimeter=0;exitX=0;exitY=0.5;exitDx=0;exitDy=0;" parent="A1PA44tEhQM_5LtgaNAi-35" source="A1PA44tEhQM_5LtgaNAi-36" target="A1PA44tEhQM_5LtgaNAi-36" edge="1">
          <mxGeometry width="50" height="50" relative="1" as="geometry">
            <mxPoint x="-310" y="90" as="sourcePoint" />
            <mxPoint x="-260" y="40" as="targetPoint" />
          </mxGeometry>
        </mxCell>
        <mxCell id="MdbT-BWZGTubTPf6MlZ--31" value="" style="ellipse;whiteSpace=wrap;html=1;aspect=fixed;strokeColor=light-dark(#0066CC,#EDEDED);strokeWidth=2;" vertex="1" parent="A1PA44tEhQM_5LtgaNAi-35">
          <mxGeometry x="10.639999999999986" y="5.610000000000014" width="40" height="40" as="geometry" />
        </mxCell>
        <mxCell id="MdbT-BWZGTubTPf6MlZ--32" value="" style="shape=image;verticalLabelPosition=bottom;labelBackgroundColor=default;verticalAlign=top;aspect=fixed;imageAspect=0;image=data:image/png,iVBORw0KGgoAAAANSUhEUgAAACoAAAAyCAYAAAAqRkmtAAAMPWlDQ1BJQ0MgUHJvZmlsZQAASImVVwdYU8kWnluSkEBCCSAgJfQmiNQAUkJooXcEGyEJEEqIgaBiL4sKrl1UwIauiih2QOyInUWwYV8sqCjrYsGuvEkBXfeV702+mfnzz5n/nDl3bhkA1E9yxeJcVAOAPFGhJC4kgDEmJZVB6gE40AI0+GNyeQViVkxMBIBlsP97eXcDILL+qoNM65/j/7Vo8gUFPACQGIjT+QW8PIgPAoBX8cSSQgCIMt58cqFYhmEF2hIYIMQLZThTgatkOF2B98ptEuLYELcAoKLG5UoyAaC1Q55RxMuEGrQ+iJ1EfKEIAHUGxL55efl8iNMgtoE2Yohl+sz0H3Qy/6aZPqTJ5WYOYcVa5EUlUFggzuVO/T/T8b9LXq500IcVrGpZktA42Zph3m7m5IfLsBrEvaL0qGiItSD+IOTL7SFGKVnS0ESFPWrIK2DDnAFdiJ343MBwiA0hDhblRkUo+fQMYTAHYrhD0CnCQk4CxHoQLxQUBMUrbTZJ8uOUvtD6DAmbpeTPcyVyvzJf96U5iSyl/ussAUepj9GKsxKSIaZAbFEkTIqCmAaxY0FOfLjSZnRxFjtq0EYijZPFbwFxnEAUEqDQx4oyJMFxSvvSvILB9WKbsoScKCXeX5iVEKrID9bC48rjh2vB2gUiVuKgjqBgTMTgWviCwCDF2rFnAlFivFLng7gwIE4xF6eIc2OU9riZIDdExptB7FpQFK+ciycVwg2p0MczxIUxCYo48eJsbliMIh58GYgAbBAIGEAKazrIB9lA2Nbb0Av/KUaCARdIQCYQAAclMzgjWT4igm08KAZ/QiQABUPzAuSjAlAE+a9DrKJ1ABny0SL5jBzwBOI8EA5y4X+pfJZoyFsSeAwZ4T+8c2HlwXhzYZWN/3t+kP3OsCAToWSkgx4Z6oOWxCBiIDGUGEy0xQ1wX9wbj4CtP6zOOBP3HFzHd3vCE0IH4SHhOqGLcGuicK7kpygjQRfUD1bmIv3HXOBWUNMND8B9oDpUxnVxA+CAu0I/LNwPenaDLFsZtywrjJ+0/7aCH66G0o7sREbJw8j+ZJufZ9LsaG5DKrJc/5gfRazpQ/lmD4387J/9Q/b5sA//2RJbiB3AzmGnsAvYUawBMLATWCPWih2T4aHd9Vi+uwa9xcnjyYE6wn/4G7yyskwWONU69Th9UYwVCqbIntGAnS+eKhFmZhUyWPCNIGBwRDzHEQxnJ2c3AGTvF8Xj602s/L2B6LZ+5+b9AYDPiYGBgSPfubATAOzzgLf/4e+cDRO+OlQBOH+YJ5UUKThc1hDgU0Id3mn6wBiYAxu4HmfgDryBPwgCYSAaJIAUMAFGnwX3uQRMBtPBHFACysAysBpUgI1gC9gBdoP9oAEcBafAWXAJtIPr4A7cPd3gBegD78BnBEFICBWhI/qICWKJ2CPOCBPxRYKQCCQOSUHSkExEhEiR6cg8pAxZgVQgm5EaZB9yGDmFXEA6kFvIA6QHeY18QjFUDdVGjVArdCTKRFloOJqAjkcz0UloMTofXYKuRavRXWg9egq9hF5Hu9AXaD8GMFVMFzPFHDAmxsaisVQsA5NgM7FSrByrxuqwJnidr2JdWC/2ESfidJyBO8AdHIon4jx8Ej4TX4xX4DvwerwFv4o/wPvwbwQqwZBgT/AicAhjCJmEyYQSQjlhG+EQ4Qy8l7oJ74hEoi7RmugB78UUYjZxGnExcT1xD/EksYP4iNhPIpH0SfYkH1I0iUsqJJWQ1pF2kU6QrpC6SR9UVFVMVJxVglVSVUQqc1XKVXaqHFe5ovJU5TNZg2xJ9iJHk/nkqeSl5K3kJvJlcjf5M0WTYk3xoSRQsilzKGspdZQzlLuUN6qqqmaqnqqxqkLV2aprVfeqnld9oPpRTUvNTo2tNk5NqrZEbbvaSbVbam+oVKoV1Z+aSi2kLqHWUE9T71M/0Og0RxqHxqfNolXS6mlXaC/VyeqW6iz1CerF6uXqB9Qvq/dqkDWsNNgaXI2ZGpUahzU6Nfo16ZqjNKM18zQXa+7UvKD5TIukZaUVpMXXmq+1Reu01iM6Rjens+k8+jz6VvoZerc2Udtam6OdrV2mvVu7TbtPR0vHVSdJZ4pOpc4xnS5dTNdKl6Obq7tUd7/uDd1Pw4yGsYYJhi0aVjfsyrD3esP1/PUEeqV6e/Su633SZ+gH6efoL9dv0L9ngBvYGcQaTDbYYHDGoHe49nDv4bzhpcP3D79tiBraGcYZTjPcYthq2G9kbBRiJDZaZ3TaqNdY19jfONt4lfFx4x4TuomvidBklckJk+cMHQaLkctYy2hh9JkamoaaSk03m7aZfjazNks0m2u2x+yeOcWcaZ5hvsq82bzPwsQi0mK6Ra3FbUuyJdMyy3KN5TnL91bWVslWC6warJ5Z61lzrIuta63v2lBt/Gwm2VTbXLMl2jJtc2zX27bboXZudll2lXaX7VF7d3uh/Xr7jhGEEZ4jRCOqR3Q6qDmwHIocah0eOOo6RjjOdWxwfDnSYmTqyOUjz4385uTmlOu01enOKK1RYaPmjmoa9drZzpnnXOl8zYXqEuwyy6XR5ZWrvavAdYPrTTe6W6TbArdmt6/uHu4S9zr3Hg8LjzSPKo9OpjYzhrmYed6T4BngOcvzqOdHL3evQq/9Xn95O3jneO/0fjbaerRg9NbRj3zMfLg+m326fBm+ab6bfLv8TP24ftV+D/3N/fn+2/yfsmxZ2axdrJcBTgGSgEMB79le7Bnsk4FYYEhgaWBbkFZQYlBF0P1gs+DM4NrgvhC3kGkhJ0MJoeGhy0M7OUYcHqeG0xfmETYjrCVcLTw+vCL8YYRdhCSiKRKNDItcGXk3yjJKFNUQDaI50Suj78VYx0yKORJLjI2JrYx9EjcqbnrcuXh6/MT4nfHvEgISlibcSbRJlCY2J6knjUuqSXqfHJi8IrlrzMgxM8ZcSjFIEaY0ppJSk1K3pfaPDRq7emz3OLdxJeNujLceP2X8hQkGE3InHJuoPpE78UAaIS05bWfaF240t5rbn85Jr0rv47F5a3gv+P78VfwegY9gheBphk/GioxnmT6ZKzN7svyyyrN6hWxhhfBVdmj2xuz3OdE523MGcpNz9+Sp5KXlHRZpiXJELfnG+VPyO8T24hJx1ySvSasn9UnCJdsKkILxBY2F2vBDvlVqI/1F+qDIt6iy6MPkpMkHpmhOEU1pnWo3ddHUp8XBxb9Nw6fxpjVPN50+Z/qDGawZm2ciM9NnNs8ynzV/VvfskNk75lDm5Mz5fa7T3BVz385Lntc032j+7PmPfgn5pbaEViIp6VzgvWDjQnyhcGHbIpdF6xZ9K+WXXixzKisv+7KYt/jir6N+XfvrwJKMJW1L3ZduWEZcJlp2Y7nf8h0rNFcUr3i0MnJl/SrGqtJVb1dPXH2h3LV84xrKGumarrURaxvXWaxbtu5LRVbF9cqAyj1VhlWLqt6v56+/ssF/Q91Go41lGz9tEm66uTlkc321VXX5FuKWoi1PtiZtPfcb87eabQbbyrZ93S7a3rUjbkdLjUdNzU7DnUtr0Vppbc+ucbvadwfubqxzqNu8R3dP2V6wV7r3+b60fTf2h+9vPsA8UHfQ8mDVIfqh0nqkfmp9X0NWQ1djSmPH4bDDzU3eTYeOOB7ZftT0aOUxnWNLj1OOzz8+cKL4RP9J8cneU5mnHjVPbL5zeszpay2xLW1nws+cPxt89vQ51rkT533OH73gdeHwRebFhkvul+pb3VoP/e72+6E297b6yx6XG9s925s6Rnccv+J35dTVwKtnr3GuXboedb3jRuKNm53jOrtu8m8+u5V769Xtotuf78y+S7hbek/jXvl9w/vVf9j+safLvevYg8AHrQ/jH955xHv04nHB4y/d859Qn5Q/NXla88z52dGe4J7252Ofd78Qv/jcW/Kn5p9VL21eHvzL/6/WvjF93a8krwZeL36j/2b7W9e3zf0x/fff5b37/L70g/6HHR+ZH899Sv709PPkL6Qva7/afm36Fv7t7kDewICYK+HKPwUwWNGMDABebweAmgIAHZ7PKGMV5z95QRRnVjkC/wkrzojy4g5AHfx+j+2FXzedAOzdCo9fUF99HAAxVAASPAHq4jJUB89q8nOlrBDhOWBTzNf0vHTwb4rizPlD3D/3QKbqCn7u/wUd5Xx4U4WNHgAAAGxlWElmTU0AKgAAAAgABAEaAAUAAAABAAAAPgEbAAUAAAABAAAARgEoAAMAAAABAAIAAIdpAAQAAAABAAAATgAAAAAAAACQAAAAAQAAAJAAAAABAAKgAgAEAAAAAQAAACqgAwAEAAAAAQAAADIAAAAA7qCQTgAAAAlwSFlzAAAWJQAAFiUBSVIk8AAAAhhJREFUaAXtmQ1uhCAQhbXpvfRm6snUk215NK+ZTkB+lqG7qZMQcBidz8eA6XZ8OBvewD7egNEj3qCtV+pW9N8q+tn6zUPPO45j2LZtmKbJT6/rGgq79uEctbJ93x/zPPuG8bIsOLN9w7jEhpLg0lhAAVQagAkr/amxGagEwlgaQbVfxuix2fHklHQ834YapcXGnI/2mrz1tVZN1mlJLrOlj0GgZp1qfmPFYkL+LqBQVSqpVQ6BaZ9ZjcpaY12ybnktY5JjTW59TWX1sZXK22XpNQRqFK0E9k9AuaEAm2tmNYrv+TiOQ+q7nl2vuW9UGidV07ucS/8SijoIbw54QAuZ21ghd9hXqhTU0QrJZ3AOvcvoz085b77rkVgu5xVECAzxaHgGYEste9tRCSZkz6Scp6KlIKn4LFBCUA1ca3UBDr+VZYESMAQRq8VQ7DO+LNBYgl6QyF8N2hOyGrQ3ZBXoM5C4F63Gipaeu79kdxOOp0TJvfKFskFzILVaPGsB2QU0B5IxUgU5NgclAHqtGEFkDH26NwUFGJdP9kgKOCbnXOxFAM1Y3FdjlzUKACQgAJUjmOxTAGaghNJvr1WWL6Jj5fWzoNE/RdyDobYT7bfR74D9PHr4rO0S9Cp5DziZPwoqg15hfIO2XoVb0daKmv5XBL+C8JcQ9ud5/vx6gpMj9/QwB6Wy7gPCYVU/4utRdWfnm+7N1FrwL0vRszYfMMdgAAAAAElFTkSuQmCC;" vertex="1" parent="A1PA44tEhQM_5LtgaNAi-35">
          <mxGeometry x="17.79000000000002" y="11" width="24.54" height="29.21" as="geometry" />
        </mxCell>
        <mxCell id="MdbT-BWZGTubTPf6MlZ--33" value="" style="shape=image;verticalLabelPosition=bottom;labelBackgroundColor=default;verticalAlign=top;aspect=fixed;imageAspect=0;image=data:image/png,iVBORw0KGgoAAAANSUhEUgAAACwAAAA0CAYAAADxAdr3AAAMPWlDQ1BJQ0MgUHJvZmlsZQAASImVVwdYU8kWnluSkEBCCSAgJfQmiNQAUkJooXcEGyEJEEqIgaBiL4sKrl1UwIauiih2QOyInUWwYV8sqCjrYsGuvEkBXfeV702+mfnzz5n/nDl3bhkA1E9yxeJcVAOAPFGhJC4kgDEmJZVB6gE40AI0+GNyeQViVkxMBIBlsP97eXcDILL+qoNM65/j/7Vo8gUFPACQGIjT+QW8PIgPAoBX8cSSQgCIMt58cqFYhmEF2hIYIMQLZThTgatkOF2B98ptEuLYELcAoKLG5UoyAaC1Q55RxMuEGrQ+iJ1EfKEIAHUGxL55efl8iNMgtoE2Yohl+sz0H3Qy/6aZPqTJ5WYOYcVa5EUlUFggzuVO/T/T8b9LXq500IcVrGpZktA42Zph3m7m5IfLsBrEvaL0qGiItSD+IOTL7SFGKVnS0ESFPWrIK2DDnAFdiJ343MBwiA0hDhblRkUo+fQMYTAHYrhD0CnCQk4CxHoQLxQUBMUrbTZJ8uOUvtD6DAmbpeTPcyVyvzJf96U5iSyl/ussAUepj9GKsxKSIaZAbFEkTIqCmAaxY0FOfLjSZnRxFjtq0EYijZPFbwFxnEAUEqDQx4oyJMFxSvvSvILB9WKbsoScKCXeX5iVEKrID9bC48rjh2vB2gUiVuKgjqBgTMTgWviCwCDF2rFnAlFivFLng7gwIE4xF6eIc2OU9riZIDdExptB7FpQFK+ciycVwg2p0MczxIUxCYo48eJsbliMIh58GYgAbBAIGEAKazrIB9lA2Nbb0Av/KUaCARdIQCYQAAclMzgjWT4igm08KAZ/QiQABUPzAuSjAlAE+a9DrKJ1ABny0SL5jBzwBOI8EA5y4X+pfJZoyFsSeAwZ4T+8c2HlwXhzYZWN/3t+kP3OsCAToWSkgx4Z6oOWxCBiIDGUGEy0xQ1wX9wbj4CtP6zOOBP3HFzHd3vCE0IH4SHhOqGLcGuicK7kpygjQRfUD1bmIv3HXOBWUNMND8B9oDpUxnVxA+CAu0I/LNwPenaDLFsZtywrjJ+0/7aCH66G0o7sREbJw8j+ZJufZ9LsaG5DKrJc/5gfRazpQ/lmD4387J/9Q/b5sA//2RJbiB3AzmGnsAvYUawBMLATWCPWih2T4aHd9Vi+uwa9xcnjyYE6wn/4G7yyskwWONU69Th9UYwVCqbIntGAnS+eKhFmZhUyWPCNIGBwRDzHEQxnJ2c3AGTvF8Xj602s/L2B6LZ+5+b9AYDPiYGBgSPfubATAOzzgLf/4e+cDRO+OlQBOH+YJ5UUKThc1hDgU0Id3mn6wBiYAxu4HmfgDryBPwgCYSAaJIAUMAFGnwX3uQRMBtPBHFACysAysBpUgI1gC9gBdoP9oAEcBafAWXAJtIPr4A7cPd3gBegD78BnBEFICBWhI/qICWKJ2CPOCBPxRYKQCCQOSUHSkExEhEiR6cg8pAxZgVQgm5EaZB9yGDmFXEA6kFvIA6QHeY18QjFUDdVGjVArdCTKRFloOJqAjkcz0UloMTofXYKuRavRXWg9egq9hF5Hu9AXaD8GMFVMFzPFHDAmxsaisVQsA5NgM7FSrByrxuqwJnidr2JdWC/2ESfidJyBO8AdHIon4jx8Ej4TX4xX4DvwerwFv4o/wPvwbwQqwZBgT/AicAhjCJmEyYQSQjlhG+EQ4Qy8l7oJ74hEoi7RmugB78UUYjZxGnExcT1xD/EksYP4iNhPIpH0SfYkH1I0iUsqJJWQ1pF2kU6QrpC6SR9UVFVMVJxVglVSVUQqc1XKVXaqHFe5ovJU5TNZg2xJ9iJHk/nkqeSl5K3kJvJlcjf5M0WTYk3xoSRQsilzKGspdZQzlLuUN6qqqmaqnqqxqkLV2aprVfeqnld9oPpRTUvNTo2tNk5NqrZEbbvaSbVbam+oVKoV1Z+aSi2kLqHWUE9T71M/0Og0RxqHxqfNolXS6mlXaC/VyeqW6iz1CerF6uXqB9Qvq/dqkDWsNNgaXI2ZGpUahzU6Nfo16ZqjNKM18zQXa+7UvKD5TIukZaUVpMXXmq+1Reu01iM6Rjens+k8+jz6VvoZerc2Udtam6OdrV2mvVu7TbtPR0vHVSdJZ4pOpc4xnS5dTNdKl6Obq7tUd7/uDd1Pw4yGsYYJhi0aVjfsyrD3esP1/PUEeqV6e/Su633SZ+gH6efoL9dv0L9ngBvYGcQaTDbYYHDGoHe49nDv4bzhpcP3D79tiBraGcYZTjPcYthq2G9kbBRiJDZaZ3TaqNdY19jfONt4lfFx4x4TuomvidBklckJk+cMHQaLkctYy2hh9JkamoaaSk03m7aZfjazNks0m2u2x+yeOcWcaZ5hvsq82bzPwsQi0mK6Ra3FbUuyJdMyy3KN5TnL91bWVslWC6warJ5Z61lzrIuta63v2lBt/Gwm2VTbXLMl2jJtc2zX27bboXZudll2lXaX7VF7d3uh/Xr7jhGEEZ4jRCOqR3Q6qDmwHIocah0eOOo6RjjOdWxwfDnSYmTqyOUjz4385uTmlOu01enOKK1RYaPmjmoa9drZzpnnXOl8zYXqEuwyy6XR5ZWrvavAdYPrTTe6W6TbArdmt6/uHu4S9zr3Hg8LjzSPKo9OpjYzhrmYed6T4BngOcvzqOdHL3evQq/9Xn95O3jneO/0fjbaerRg9NbRj3zMfLg+m326fBm+ab6bfLv8TP24ftV+D/3N/fn+2/yfsmxZ2axdrJcBTgGSgEMB79le7Bnsk4FYYEhgaWBbkFZQYlBF0P1gs+DM4NrgvhC3kGkhJ0MJoeGhy0M7OUYcHqeG0xfmETYjrCVcLTw+vCL8YYRdhCSiKRKNDItcGXk3yjJKFNUQDaI50Suj78VYx0yKORJLjI2JrYx9EjcqbnrcuXh6/MT4nfHvEgISlibcSbRJlCY2J6knjUuqSXqfHJi8IrlrzMgxM8ZcSjFIEaY0ppJSk1K3pfaPDRq7emz3OLdxJeNujLceP2X8hQkGE3InHJuoPpE78UAaIS05bWfaF240t5rbn85Jr0rv47F5a3gv+P78VfwegY9gheBphk/GioxnmT6ZKzN7svyyyrN6hWxhhfBVdmj2xuz3OdE523MGcpNz9+Sp5KXlHRZpiXJELfnG+VPyO8T24hJx1ySvSasn9UnCJdsKkILxBY2F2vBDvlVqI/1F+qDIt6iy6MPkpMkHpmhOEU1pnWo3ddHUp8XBxb9Nw6fxpjVPN50+Z/qDGawZm2ciM9NnNs8ynzV/VvfskNk75lDm5Mz5fa7T3BVz385Lntc032j+7PmPfgn5pbaEViIp6VzgvWDjQnyhcGHbIpdF6xZ9K+WXXixzKisv+7KYt/jir6N+XfvrwJKMJW1L3ZduWEZcJlp2Y7nf8h0rNFcUr3i0MnJl/SrGqtJVb1dPXH2h3LV84xrKGumarrURaxvXWaxbtu5LRVbF9cqAyj1VhlWLqt6v56+/ssF/Q91Go41lGz9tEm66uTlkc321VXX5FuKWoi1PtiZtPfcb87eabQbbyrZ93S7a3rUjbkdLjUdNzU7DnUtr0Vppbc+ucbvadwfubqxzqNu8R3dP2V6wV7r3+b60fTf2h+9vPsA8UHfQ8mDVIfqh0nqkfmp9X0NWQ1djSmPH4bDDzU3eTYeOOB7ZftT0aOUxnWNLj1OOzz8+cKL4RP9J8cneU5mnHjVPbL5zeszpay2xLW1nws+cPxt89vQ51rkT533OH73gdeHwRebFhkvul+pb3VoP/e72+6E297b6yx6XG9s925s6Rnccv+J35dTVwKtnr3GuXboedb3jRuKNm53jOrtu8m8+u5V769Xtotuf78y+S7hbek/jXvl9w/vVf9j+safLvevYg8AHrQ/jH955xHv04nHB4y/d859Qn5Q/NXla88z52dGe4J7252Ofd78Qv/jcW/Kn5p9VL21eHvzL/6/WvjF93a8krwZeL36j/2b7W9e3zf0x/fff5b37/L70g/6HHR+ZH899Sv709PPkL6Qva7/afm36Fv7t7kDewICYK+HKPwUwWNGMDABebweAmgIAHZ7PKGMV5z95QRRnVjkC/wkrzojy4g5AHfx+j+2FXzedAOzdCo9fUF99HAAxVAASPAHq4jJUB89q8nOlrBDhOWBTzNf0vHTwb4rizPlD3D/3QKbqCn7u/wUd5Xx4U4WNHgAAAGxlWElmTU0AKgAAAAgABAEaAAUAAAABAAAAPgEbAAUAAAABAAAARgEoAAMAAAABAAIAAIdpAAQAAAABAAAATgAAAAAAAACQAAAAAQAAAJAAAAABAAKgAgAEAAAAAQAAACygAwAEAAAAAQAAADQAAAAAxtTS5gAAAAlwSFlzAAAWJQAAFiUBSVIk8AAAAp9JREFUaAXtWIuNwjAMTU+3FzAAMwGTARL7MAKXF/Gq19Ckdmg5IdVSzkn8e3Ecw9E9IoUvop8vwpqgroCXvrE1w2uGswx8rCR2u13A6LoujePxGC6XSwbHsEQfXpoijMfhcHicz+cUCnPsYXDPiiFYFVv1CA5cabvdJsDgHlocMIEhm0o8SL6vOmPzxWs4AouYQiBPC/kTDyQrw3TsFJ/Yi9BSSeSlMhV7eE9T2k85HgqH0WSgxnLw1i+cmAFrLTI74FbCAeGDfryZZZxfQ9Uklc1mk7j2zlJdjvmMQAf2p9MprdGPXUTkVs7rjEEerVlCrNZM2+/0eSIGAmBccyvBFj68ftyAGQT8HVLASIKVXH3YW7/Q53cHtY2HbaZmwN6IOWBd80FbfLoAX6/X3idffb9RmUC3pu/qFNbagV7E1A+sUYcY6BbgYwQZ7MBJ3Mv3Ka9x88sBIAJGQA3K/ZjFUeDQhYx64CXdGljIzIBzgHlAlU8FfUduBqwZwnyMmEGAX4rMgAkGvER6qJLOu/vl6OI5r18RDaaWQw0MGhamtqY9M4L6VzIBtvTfjx3KcisxpX1LKulrlyg9Stq+8yhNNUzANSD64MYA4R3ooQjeyycBtzw42JAUpB6Kci+fBbCCwrxEeviSztT+JGA4YElo5tQx5eA1mgOwqUvEq4xYQuD/YWnx/KPftCIgFS0zr2WEMs2MXjlLAbUJnSlSP1O6JXn9DsWK4GLa+hLBHGCtNAfgDsE8d6cfECwVqz1s8ZMryBm2D2H+XYIWXpC0m4ubHt1cwebwswKeI4s1H2uGa9mZQ+buEi1B2QrJ4QOfkOw45Bbf7j5scao6t9st7Pd73XqZ3+/3l73SxuKAS4Fb99dH15o5q92aYWumWvX+AHI3rGcFHjqlAAAAAElFTkSuQmCC;" vertex="1" parent="A1PA44tEhQM_5LtgaNAi-35">
          <mxGeometry x="17.94999999999999" y="48" width="25.38" height="30" as="geometry" />
        </mxCell>
        <mxCell id="MdbT-BWZGTubTPf6MlZ--35" value="" style="shape=image;verticalLabelPosition=bottom;labelBackgroundColor=default;verticalAlign=top;aspect=fixed;imageAspect=0;image=data:image/png,iVBORw0KGgoAAAANSUhEUgAAADIAAAA2CAYAAACFrsqnAAAMPWlDQ1BJQ0MgUHJvZmlsZQAASImVVwdYU8kWnluSkEBCCSAgJfQmiNQAUkJooXcEGyEJEEqIgaBiL4sKrl1UwIauiih2QOyInUWwYV8sqCjrYsGuvEkBXfeV702+mfnzz5n/nDl3bhkA1E9yxeJcVAOAPFGhJC4kgDEmJZVB6gE40AI0+GNyeQViVkxMBIBlsP97eXcDILL+qoNM65/j/7Vo8gUFPACQGIjT+QW8PIgPAoBX8cSSQgCIMt58cqFYhmEF2hIYIMQLZThTgatkOF2B98ptEuLYELcAoKLG5UoyAaC1Q55RxMuEGrQ+iJ1EfKEIAHUGxL55efl8iNMgtoE2Yohl+sz0H3Qy/6aZPqTJ5WYOYcVa5EUlUFggzuVO/T/T8b9LXq500IcVrGpZktA42Zph3m7m5IfLsBrEvaL0qGiItSD+IOTL7SFGKVnS0ESFPWrIK2DDnAFdiJ343MBwiA0hDhblRkUo+fQMYTAHYrhD0CnCQk4CxHoQLxQUBMUrbTZJ8uOUvtD6DAmbpeTPcyVyvzJf96U5iSyl/ussAUepj9GKsxKSIaZAbFEkTIqCmAaxY0FOfLjSZnRxFjtq0EYijZPFbwFxnEAUEqDQx4oyJMFxSvvSvILB9WKbsoScKCXeX5iVEKrID9bC48rjh2vB2gUiVuKgjqBgTMTgWviCwCDF2rFnAlFivFLng7gwIE4xF6eIc2OU9riZIDdExptB7FpQFK+ciycVwg2p0MczxIUxCYo48eJsbliMIh58GYgAbBAIGEAKazrIB9lA2Nbb0Av/KUaCARdIQCYQAAclMzgjWT4igm08KAZ/QiQABUPzAuSjAlAE+a9DrKJ1ABny0SL5jBzwBOI8EA5y4X+pfJZoyFsSeAwZ4T+8c2HlwXhzYZWN/3t+kP3OsCAToWSkgx4Z6oOWxCBiIDGUGEy0xQ1wX9wbj4CtP6zOOBP3HFzHd3vCE0IH4SHhOqGLcGuicK7kpygjQRfUD1bmIv3HXOBWUNMND8B9oDpUxnVxA+CAu0I/LNwPenaDLFsZtywrjJ+0/7aCH66G0o7sREbJw8j+ZJufZ9LsaG5DKrJc/5gfRazpQ/lmD4387J/9Q/b5sA//2RJbiB3AzmGnsAvYUawBMLATWCPWih2T4aHd9Vi+uwa9xcnjyYE6wn/4G7yyskwWONU69Th9UYwVCqbIntGAnS+eKhFmZhUyWPCNIGBwRDzHEQxnJ2c3AGTvF8Xj602s/L2B6LZ+5+b9AYDPiYGBgSPfubATAOzzgLf/4e+cDRO+OlQBOH+YJ5UUKThc1hDgU0Id3mn6wBiYAxu4HmfgDryBPwgCYSAaJIAUMAFGnwX3uQRMBtPBHFACysAysBpUgI1gC9gBdoP9oAEcBafAWXAJtIPr4A7cPd3gBegD78BnBEFICBWhI/qICWKJ2CPOCBPxRYKQCCQOSUHSkExEhEiR6cg8pAxZgVQgm5EaZB9yGDmFXEA6kFvIA6QHeY18QjFUDdVGjVArdCTKRFloOJqAjkcz0UloMTofXYKuRavRXWg9egq9hF5Hu9AXaD8GMFVMFzPFHDAmxsaisVQsA5NgM7FSrByrxuqwJnidr2JdWC/2ESfidJyBO8AdHIon4jx8Ej4TX4xX4DvwerwFv4o/wPvwbwQqwZBgT/AicAhjCJmEyYQSQjlhG+EQ4Qy8l7oJ74hEoi7RmugB78UUYjZxGnExcT1xD/EksYP4iNhPIpH0SfYkH1I0iUsqJJWQ1pF2kU6QrpC6SR9UVFVMVJxVglVSVUQqc1XKVXaqHFe5ovJU5TNZg2xJ9iJHk/nkqeSl5K3kJvJlcjf5M0WTYk3xoSRQsilzKGspdZQzlLuUN6qqqmaqnqqxqkLV2aprVfeqnld9oPpRTUvNTo2tNk5NqrZEbbvaSbVbam+oVKoV1Z+aSi2kLqHWUE9T71M/0Og0RxqHxqfNolXS6mlXaC/VyeqW6iz1CerF6uXqB9Qvq/dqkDWsNNgaXI2ZGpUahzU6Nfo16ZqjNKM18zQXa+7UvKD5TIukZaUVpMXXmq+1Reu01iM6Rjens+k8+jz6VvoZerc2Udtam6OdrV2mvVu7TbtPR0vHVSdJZ4pOpc4xnS5dTNdKl6Obq7tUd7/uDd1Pw4yGsYYJhi0aVjfsyrD3esP1/PUEeqV6e/Su633SZ+gH6efoL9dv0L9ngBvYGcQaTDbYYHDGoHe49nDv4bzhpcP3D79tiBraGcYZTjPcYthq2G9kbBRiJDZaZ3TaqNdY19jfONt4lfFx4x4TuomvidBklckJk+cMHQaLkctYy2hh9JkamoaaSk03m7aZfjazNks0m2u2x+yeOcWcaZ5hvsq82bzPwsQi0mK6Ra3FbUuyJdMyy3KN5TnL91bWVslWC6warJ5Z61lzrIuta63v2lBt/Gwm2VTbXLMl2jJtc2zX27bboXZudll2lXaX7VF7d3uh/Xr7jhGEEZ4jRCOqR3Q6qDmwHIocah0eOOo6RjjOdWxwfDnSYmTqyOUjz4385uTmlOu01enOKK1RYaPmjmoa9drZzpnnXOl8zYXqEuwyy6XR5ZWrvavAdYPrTTe6W6TbArdmt6/uHu4S9zr3Hg8LjzSPKo9OpjYzhrmYed6T4BngOcvzqOdHL3evQq/9Xn95O3jneO/0fjbaerRg9NbRj3zMfLg+m326fBm+ab6bfLv8TP24ftV+D/3N/fn+2/yfsmxZ2axdrJcBTgGSgEMB79le7Bnsk4FYYEhgaWBbkFZQYlBF0P1gs+DM4NrgvhC3kGkhJ0MJoeGhy0M7OUYcHqeG0xfmETYjrCVcLTw+vCL8YYRdhCSiKRKNDItcGXk3yjJKFNUQDaI50Suj78VYx0yKORJLjI2JrYx9EjcqbnrcuXh6/MT4nfHvEgISlibcSbRJlCY2J6knjUuqSXqfHJi8IrlrzMgxM8ZcSjFIEaY0ppJSk1K3pfaPDRq7emz3OLdxJeNujLceP2X8hQkGE3InHJuoPpE78UAaIS05bWfaF240t5rbn85Jr0rv47F5a3gv+P78VfwegY9gheBphk/GioxnmT6ZKzN7svyyyrN6hWxhhfBVdmj2xuz3OdE523MGcpNz9+Sp5KXlHRZpiXJELfnG+VPyO8T24hJx1ySvSasn9UnCJdsKkILxBY2F2vBDvlVqI/1F+qDIt6iy6MPkpMkHpmhOEU1pnWo3ddHUp8XBxb9Nw6fxpjVPN50+Z/qDGawZm2ciM9NnNs8ynzV/VvfskNk75lDm5Mz5fa7T3BVz385Lntc032j+7PmPfgn5pbaEViIp6VzgvWDjQnyhcGHbIpdF6xZ9K+WXXixzKisv+7KYt/jir6N+XfvrwJKMJW1L3ZduWEZcJlp2Y7nf8h0rNFcUr3i0MnJl/SrGqtJVb1dPXH2h3LV84xrKGumarrURaxvXWaxbtu5LRVbF9cqAyj1VhlWLqt6v56+/ssF/Q91Go41lGz9tEm66uTlkc321VXX5FuKWoi1PtiZtPfcb87eabQbbyrZ93S7a3rUjbkdLjUdNzU7DnUtr0Vppbc+ucbvadwfubqxzqNu8R3dP2V6wV7r3+b60fTf2h+9vPsA8UHfQ8mDVIfqh0nqkfmp9X0NWQ1djSmPH4bDDzU3eTYeOOB7ZftT0aOUxnWNLj1OOzz8+cKL4RP9J8cneU5mnHjVPbL5zeszpay2xLW1nws+cPxt89vQ51rkT533OH73gdeHwRebFhkvul+pb3VoP/e72+6E297b6yx6XG9s925s6Rnccv+J35dTVwKtnr3GuXboedb3jRuKNm53jOrtu8m8+u5V769Xtotuf78y+S7hbek/jXvl9w/vVf9j+safLvevYg8AHrQ/jH955xHv04nHB4y/d859Qn5Q/NXla88z52dGe4J7252Ofd78Qv/jcW/Kn5p9VL21eHvzL/6/WvjF93a8krwZeL36j/2b7W9e3zf0x/fff5b37/L70g/6HHR+ZH899Sv709PPkL6Qva7/afm36Fv7t7kDewICYK+HKPwUwWNGMDABebweAmgIAHZ7PKGMV5z95QRRnVjkC/wkrzojy4g5AHfx+j+2FXzedAOzdCo9fUF99HAAxVAASPAHq4jJUB89q8nOlrBDhOWBTzNf0vHTwb4rizPlD3D/3QKbqCn7u/wUd5Xx4U4WNHgAAAGxlWElmTU0AKgAAAAgABAEaAAUAAAABAAAAPgEbAAUAAAABAAAARgEoAAMAAAABAAIAAIdpAAQAAAABAAAATgAAAAAAAACQAAAAAQAAAJAAAAABAAKgAgAEAAAAAQAAADKgAwAEAAAAAQAAADYAAAAA6mHgbQAAAAlwSFlzAAAWJQAAFiUBSVIk8AAAAqlJREFUaAXtWYtxwjAMddoOwibAKEwCbAKTAJvAJK1e7pRTFTuRjN2kuejO9U+W35OsOKHNN0lYgHwsgENLYSUyt0iuEVkjUskDX5Xsus3e7/eAwnI6nbhpqmeRI/v9PpzP5w4w2k3TBBcZXIhTyvF4/N7tdr8g3G43XNK98V9KqhNU/8+7AIwCQlJ4HKQsMoujRaCTIvMmqYQJC9vaOtrriA6geeDNIiKUI4S5L0SoP5gaqe1tq31EBQWJT1h7OTNmZ1b3yOPxSPl7fHyM6RTznCP6sTyEZRbJHgOI44ViJTNbIpwrIGORSZ9aeAWxvIqY7hIL21o60uv6LpFzlv1tcbNYytBhsKi1cI4g8S1ShYj27hAQkNBgJ31qyctMexNzGqwkx8B5HeohfbmW20UiwkDgXY4Gj0lwPMebl6zfJsLnHIC1APi/ICK9njoKkogmWrLfd6PRuoWEjEiKqHG7UbXsC1F+Y5PXo2K6yKIr/YNZRPSPArofg0G5FBsuNzYas4iCPFZI9pQQyi7ZUzp6HMcRxStZEZFu3G63shttE/HoOA/iCKLgZyEUtL2SRcTyAZQ6bhokg7fk3BC5LCLSYAqw1OH8YK9LMnSM8OQMqN+Rt4nENgdQ6WFJBPrcj63NHvMmFfSRjLRhW9CWIuegQ6C7afSH7hPojul0xlTjk47GiRa7ZLPZtPrIldfrFZ7PZ9u/XC7hcDgEJDe8jnmeQ5TQl8eqXST+XK/XVh9rUVyiiLm68C5t1hXavI0WG5Hzeo51ZA0d2MM6r2S/ong3sui/Q6RKsruORCHllUghRxYzs0akmCsLGVpMRBo8Fgs5JcsMLkgUfVnSozjgzRo1yphM/m8FvukB2vJJkCI0eURSwLzji8mRlYg39LX114jU9rDX/mIi8gM1nySlnXwQOQAAAABJRU5ErkJggg==;" vertex="1" parent="A1PA44tEhQM_5LtgaNAi-35">
          <mxGeometry x="50" y="30" width="27.78" height="30" as="geometry" />
        </mxCell>
        <mxCell id="A1PA44tEhQM_5LtgaNAi-42" value="" style="group" parent="1" vertex="1" connectable="0">
          <mxGeometry x="-170" y="310" width="90" height="90" as="geometry" />
        </mxCell>
        <mxCell id="A1PA44tEhQM_5LtgaNAi-43" value="" style="shape=lineEllipse;line=vertical;perimeter=ellipsePerimeter;whiteSpace=wrap;html=1;backgroundOutline=1;" parent="A1PA44tEhQM_5LtgaNAi-42" vertex="1">
          <mxGeometry width="90" height="90" as="geometry" />
        </mxCell>
        <mxCell id="A1PA44tEhQM_5LtgaNAi-44" value="" style="endArrow=none;html=1;rounded=0;entryX=0.5;entryY=0.513;entryDx=0;entryDy=0;entryPerimeter=0;exitX=0;exitY=0.5;exitDx=0;exitDy=0;" parent="A1PA44tEhQM_5LtgaNAi-42" source="A1PA44tEhQM_5LtgaNAi-43" target="A1PA44tEhQM_5LtgaNAi-43" edge="1">
          <mxGeometry width="50" height="50" relative="1" as="geometry">
            <mxPoint x="-310" y="90" as="sourcePoint" />
            <mxPoint x="-260" y="40" as="targetPoint" />
          </mxGeometry>
        </mxCell>
        <mxCell id="MdbT-BWZGTubTPf6MlZ--30" value="" style="ellipse;whiteSpace=wrap;html=1;aspect=fixed;strokeColor=light-dark(#0066CC,#EDEDED);strokeWidth=2;" vertex="1" parent="A1PA44tEhQM_5LtgaNAi-42">
          <mxGeometry x="10" y="9" width="40" height="40" as="geometry" />
        </mxCell>
        <mxCell id="MdbT-BWZGTubTPf6MlZ--36" value="" style="shape=image;verticalLabelPosition=bottom;labelBackgroundColor=default;verticalAlign=top;aspect=fixed;imageAspect=0;image=data:image/png,iVBORw0KGgoAAAANSUhEUgAAACwAAAA0CAYAAADxAdr3AAAMPWlDQ1BJQ0MgUHJvZmlsZQAASImVVwdYU8kWnluSkEBCCSAgJfQmiNQAUkJooXcEGyEJEEqIgaBiL4sKrl1UwIauiih2QOyInUWwYV8sqCjrYsGuvEkBXfeV702+mfnzz5n/nDl3bhkA1E9yxeJcVAOAPFGhJC4kgDEmJZVB6gE40AI0+GNyeQViVkxMBIBlsP97eXcDILL+qoNM65/j/7Vo8gUFPACQGIjT+QW8PIgPAoBX8cSSQgCIMt58cqFYhmEF2hIYIMQLZThTgatkOF2B98ptEuLYELcAoKLG5UoyAaC1Q55RxMuEGrQ+iJ1EfKEIAHUGxL55efl8iNMgtoE2Yohl+sz0H3Qy/6aZPqTJ5WYOYcVa5EUlUFggzuVO/T/T8b9LXq500IcVrGpZktA42Zph3m7m5IfLsBrEvaL0qGiItSD+IOTL7SFGKVnS0ESFPWrIK2DDnAFdiJ343MBwiA0hDhblRkUo+fQMYTAHYrhD0CnCQk4CxHoQLxQUBMUrbTZJ8uOUvtD6DAmbpeTPcyVyvzJf96U5iSyl/ussAUepj9GKsxKSIaZAbFEkTIqCmAaxY0FOfLjSZnRxFjtq0EYijZPFbwFxnEAUEqDQx4oyJMFxSvvSvILB9WKbsoScKCXeX5iVEKrID9bC48rjh2vB2gUiVuKgjqBgTMTgWviCwCDF2rFnAlFivFLng7gwIE4xF6eIc2OU9riZIDdExptB7FpQFK+ciycVwg2p0MczxIUxCYo48eJsbliMIh58GYgAbBAIGEAKazrIB9lA2Nbb0Av/KUaCARdIQCYQAAclMzgjWT4igm08KAZ/QiQABUPzAuSjAlAE+a9DrKJ1ABny0SL5jBzwBOI8EA5y4X+pfJZoyFsSeAwZ4T+8c2HlwXhzYZWN/3t+kP3OsCAToWSkgx4Z6oOWxCBiIDGUGEy0xQ1wX9wbj4CtP6zOOBP3HFzHd3vCE0IH4SHhOqGLcGuicK7kpygjQRfUD1bmIv3HXOBWUNMND8B9oDpUxnVxA+CAu0I/LNwPenaDLFsZtywrjJ+0/7aCH66G0o7sREbJw8j+ZJufZ9LsaG5DKrJc/5gfRazpQ/lmD4387J/9Q/b5sA//2RJbiB3AzmGnsAvYUawBMLATWCPWih2T4aHd9Vi+uwa9xcnjyYE6wn/4G7yyskwWONU69Th9UYwVCqbIntGAnS+eKhFmZhUyWPCNIGBwRDzHEQxnJ2c3AGTvF8Xj602s/L2B6LZ+5+b9AYDPiYGBgSPfubATAOzzgLf/4e+cDRO+OlQBOH+YJ5UUKThc1hDgU0Id3mn6wBiYAxu4HmfgDryBPwgCYSAaJIAUMAFGnwX3uQRMBtPBHFACysAysBpUgI1gC9gBdoP9oAEcBafAWXAJtIPr4A7cPd3gBegD78BnBEFICBWhI/qICWKJ2CPOCBPxRYKQCCQOSUHSkExEhEiR6cg8pAxZgVQgm5EaZB9yGDmFXEA6kFvIA6QHeY18QjFUDdVGjVArdCTKRFloOJqAjkcz0UloMTofXYKuRavRXWg9egq9hF5Hu9AXaD8GMFVMFzPFHDAmxsaisVQsA5NgM7FSrByrxuqwJnidr2JdWC/2ESfidJyBO8AdHIon4jx8Ej4TX4xX4DvwerwFv4o/wPvwbwQqwZBgT/AicAhjCJmEyYQSQjlhG+EQ4Qy8l7oJ74hEoi7RmugB78UUYjZxGnExcT1xD/EksYP4iNhPIpH0SfYkH1I0iUsqJJWQ1pF2kU6QrpC6SR9UVFVMVJxVglVSVUQqc1XKVXaqHFe5ovJU5TNZg2xJ9iJHk/nkqeSl5K3kJvJlcjf5M0WTYk3xoSRQsilzKGspdZQzlLuUN6qqqmaqnqqxqkLV2aprVfeqnld9oPpRTUvNTo2tNk5NqrZEbbvaSbVbam+oVKoV1Z+aSi2kLqHWUE9T71M/0Og0RxqHxqfNolXS6mlXaC/VyeqW6iz1CerF6uXqB9Qvq/dqkDWsNNgaXI2ZGpUahzU6Nfo16ZqjNKM18zQXa+7UvKD5TIukZaUVpMXXmq+1Reu01iM6Rjens+k8+jz6VvoZerc2Udtam6OdrV2mvVu7TbtPR0vHVSdJZ4pOpc4xnS5dTNdKl6Obq7tUd7/uDd1Pw4yGsYYJhi0aVjfsyrD3esP1/PUEeqV6e/Su633SZ+gH6efoL9dv0L9ngBvYGcQaTDbYYHDGoHe49nDv4bzhpcP3D79tiBraGcYZTjPcYthq2G9kbBRiJDZaZ3TaqNdY19jfONt4lfFx4x4TuomvidBklckJk+cMHQaLkctYy2hh9JkamoaaSk03m7aZfjazNks0m2u2x+yeOcWcaZ5hvsq82bzPwsQi0mK6Ra3FbUuyJdMyy3KN5TnL91bWVslWC6warJ5Z61lzrIuta63v2lBt/Gwm2VTbXLMl2jJtc2zX27bboXZudll2lXaX7VF7d3uh/Xr7jhGEEZ4jRCOqR3Q6qDmwHIocah0eOOo6RjjOdWxwfDnSYmTqyOUjz4385uTmlOu01enOKK1RYaPmjmoa9drZzpnnXOl8zYXqEuwyy6XR5ZWrvavAdYPrTTe6W6TbArdmt6/uHu4S9zr3Hg8LjzSPKo9OpjYzhrmYed6T4BngOcvzqOdHL3evQq/9Xn95O3jneO/0fjbaerRg9NbRj3zMfLg+m326fBm+ab6bfLv8TP24ftV+D/3N/fn+2/yfsmxZ2axdrJcBTgGSgEMB79le7Bnsk4FYYEhgaWBbkFZQYlBF0P1gs+DM4NrgvhC3kGkhJ0MJoeGhy0M7OUYcHqeG0xfmETYjrCVcLTw+vCL8YYRdhCSiKRKNDItcGXk3yjJKFNUQDaI50Suj78VYx0yKORJLjI2JrYx9EjcqbnrcuXh6/MT4nfHvEgISlibcSbRJlCY2J6knjUuqSXqfHJi8IrlrzMgxM8ZcSjFIEaY0ppJSk1K3pfaPDRq7emz3OLdxJeNujLceP2X8hQkGE3InHJuoPpE78UAaIS05bWfaF240t5rbn85Jr0rv47F5a3gv+P78VfwegY9gheBphk/GioxnmT6ZKzN7svyyyrN6hWxhhfBVdmj2xuz3OdE523MGcpNz9+Sp5KXlHRZpiXJELfnG+VPyO8T24hJx1ySvSasn9UnCJdsKkILxBY2F2vBDvlVqI/1F+qDIt6iy6MPkpMkHpmhOEU1pnWo3ddHUp8XBxb9Nw6fxpjVPN50+Z/qDGawZm2ciM9NnNs8ynzV/VvfskNk75lDm5Mz5fa7T3BVz385Lntc032j+7PmPfgn5pbaEViIp6VzgvWDjQnyhcGHbIpdF6xZ9K+WXXixzKisv+7KYt/jir6N+XfvrwJKMJW1L3ZduWEZcJlp2Y7nf8h0rNFcUr3i0MnJl/SrGqtJVb1dPXH2h3LV84xrKGumarrURaxvXWaxbtu5LRVbF9cqAyj1VhlWLqt6v56+/ssF/Q91Go41lGz9tEm66uTlkc321VXX5FuKWoi1PtiZtPfcb87eabQbbyrZ93S7a3rUjbkdLjUdNzU7DnUtr0Vppbc+ucbvadwfubqxzqNu8R3dP2V6wV7r3+b60fTf2h+9vPsA8UHfQ8mDVIfqh0nqkfmp9X0NWQ1djSmPH4bDDzU3eTYeOOB7ZftT0aOUxnWNLj1OOzz8+cKL4RP9J8cneU5mnHjVPbL5zeszpay2xLW1nws+cPxt89vQ51rkT533OH73gdeHwRebFhkvul+pb3VoP/e72+6E297b6yx6XG9s925s6Rnccv+J35dTVwKtnr3GuXboedb3jRuKNm53jOrtu8m8+u5V769Xtotuf78y+S7hbek/jXvl9w/vVf9j+safLvevYg8AHrQ/jH955xHv04nHB4y/d859Qn5Q/NXla88z52dGe4J7252Ofd78Qv/jcW/Kn5p9VL21eHvzL/6/WvjF93a8krwZeL36j/2b7W9e3zf0x/fff5b37/L70g/6HHR+ZH899Sv709PPkL6Qva7/afm36Fv7t7kDewICYK+HKPwUwWNGMDABebweAmgIAHZ7PKGMV5z95QRRnVjkC/wkrzojy4g5AHfx+j+2FXzedAOzdCo9fUF99HAAxVAASPAHq4jJUB89q8nOlrBDhOWBTzNf0vHTwb4rizPlD3D/3QKbqCn7u/wUd5Xx4U4WNHgAAAGxlWElmTU0AKgAAAAgABAEaAAUAAAABAAAAPgEbAAUAAAABAAAARgEoAAMAAAABAAIAAIdpAAQAAAABAAAATgAAAAAAAACQAAAAAQAAAJAAAAABAAKgAgAEAAAAAQAAACygAwAEAAAAAQAAADQAAAAAxtTS5gAAAAlwSFlzAAAWJQAAFiUBSVIk8AAAAn9JREFUaAXtmQ1ugzAMhcO0e7U9WduTtT3ZlpfpSa6V4MRgWCUsRYT8+fPDCWydfrKlD7KvD2ItqAdw9BP7jnbwfD7T/X5Pp9OpuLrdbstcYtNF2OPx+Dmfz6Wgfr1esblLQd1ryTvRmgc4AEsDOKFl+0g9BFiCoS6NwLpdjpmrh5wSWdnM9WfIYVqrzv6u61w0S/u0ijKPvWuHpEQLBjmdVSwbsDXGag8HhspSWa26Baj7Q3JY5iLzlnnNezlmqK4jiLyn0vq4G/EZnhIaBjmM4oXeHJgbD9AeC8lhfC9M05Ss7wZXPnuitOZIFfWpwJT4VwpnmGIZPKHULG/AWrPdZqkl+6GWVkz34x5jsudy/sr+zU4JAMjHPAdTA8R4FKwB6CXWtVWpDB3zSufsn1N/CaScawIThurgXquNANC+hZnABK3BtHK1NnatNhO45WgPWLC4gPeCdQHvCQvgoT/z8Sq9XC4pbzDztZs3YjHMka9g63XNec0rqHsMp0BepPs04JPgppUnC/q81pXDPbAaAsHpNq5T6+sNwASmE1xbxjHs572egwAAiwLFPTYLLB1rtehMjtFtNSWZGqsDSzWoCpUBJB2zTwbEuTUoBoh5HmvOIhxBpCNC8oq+XmOgtWB61qgCE04vQOUICqcMSI9t3XPuSJByrSqwBWH1SweyTiG8sFirCiydrFUnrDcVyLEJMJ4IUmGJspsCrwUL6HCFkQI1ZRGEx3yzOj21YBGAN5eHvtayKt2GrzJ8peHHGNRfr9fbXP5I89bYc9Mp1tAwKJh9z5ZamvQ4CVM4P/IevYbHTIhqeNaOE0L+GRgZzwEcqS7WPhQ+FFYKfFxK/ALDOTpiWdvvUQAAAABJRU5ErkJggg==;" vertex="1" parent="A1PA44tEhQM_5LtgaNAi-42">
          <mxGeometry x="18" y="14" width="25.38" height="30" as="geometry" />
        </mxCell>
        <mxCell id="MdbT-BWZGTubTPf6MlZ--38" value="" style="shape=image;verticalLabelPosition=bottom;labelBackgroundColor=default;verticalAlign=top;aspect=fixed;imageAspect=0;image=data:image/png,iVBORw0KGgoAAAANSUhEUgAAACwAAAA2CAYAAAC8yXv8AAAMPWlDQ1BJQ0MgUHJvZmlsZQAASImVVwdYU8kWnluSkEBCCSAgJfQmiNQAUkJooXcEGyEJEEqIgaBiL4sKrl1UwIauiih2QOyInUWwYV8sqCjrYsGuvEkBXfeV702+mfnzz5n/nDl3bhkA1E9yxeJcVAOAPFGhJC4kgDEmJZVB6gE40AI0+GNyeQViVkxMBIBlsP97eXcDILL+qoNM65/j/7Vo8gUFPACQGIjT+QW8PIgPAoBX8cSSQgCIMt58cqFYhmEF2hIYIMQLZThTgatkOF2B98ptEuLYELcAoKLG5UoyAaC1Q55RxMuEGrQ+iJ1EfKEIAHUGxL55efl8iNMgtoE2Yohl+sz0H3Qy/6aZPqTJ5WYOYcVa5EUlUFggzuVO/T/T8b9LXq500IcVrGpZktA42Zph3m7m5IfLsBrEvaL0qGiItSD+IOTL7SFGKVnS0ESFPWrIK2DDnAFdiJ343MBwiA0hDhblRkUo+fQMYTAHYrhD0CnCQk4CxHoQLxQUBMUrbTZJ8uOUvtD6DAmbpeTPcyVyvzJf96U5iSyl/ussAUepj9GKsxKSIaZAbFEkTIqCmAaxY0FOfLjSZnRxFjtq0EYijZPFbwFxnEAUEqDQx4oyJMFxSvvSvILB9WKbsoScKCXeX5iVEKrID9bC48rjh2vB2gUiVuKgjqBgTMTgWviCwCDF2rFnAlFivFLng7gwIE4xF6eIc2OU9riZIDdExptB7FpQFK+ciycVwg2p0MczxIUxCYo48eJsbliMIh58GYgAbBAIGEAKazrIB9lA2Nbb0Av/KUaCARdIQCYQAAclMzgjWT4igm08KAZ/QiQABUPzAuSjAlAE+a9DrKJ1ABny0SL5jBzwBOI8EA5y4X+pfJZoyFsSeAwZ4T+8c2HlwXhzYZWN/3t+kP3OsCAToWSkgx4Z6oOWxCBiIDGUGEy0xQ1wX9wbj4CtP6zOOBP3HFzHd3vCE0IH4SHhOqGLcGuicK7kpygjQRfUD1bmIv3HXOBWUNMND8B9oDpUxnVxA+CAu0I/LNwPenaDLFsZtywrjJ+0/7aCH66G0o7sREbJw8j+ZJufZ9LsaG5DKrJc/5gfRazpQ/lmD4387J/9Q/b5sA//2RJbiB3AzmGnsAvYUawBMLATWCPWih2T4aHd9Vi+uwa9xcnjyYE6wn/4G7yyskwWONU69Th9UYwVCqbIntGAnS+eKhFmZhUyWPCNIGBwRDzHEQxnJ2c3AGTvF8Xj602s/L2B6LZ+5+b9AYDPiYGBgSPfubATAOzzgLf/4e+cDRO+OlQBOH+YJ5UUKThc1hDgU0Id3mn6wBiYAxu4HmfgDryBPwgCYSAaJIAUMAFGnwX3uQRMBtPBHFACysAysBpUgI1gC9gBdoP9oAEcBafAWXAJtIPr4A7cPd3gBegD78BnBEFICBWhI/qICWKJ2CPOCBPxRYKQCCQOSUHSkExEhEiR6cg8pAxZgVQgm5EaZB9yGDmFXEA6kFvIA6QHeY18QjFUDdVGjVArdCTKRFloOJqAjkcz0UloMTofXYKuRavRXWg9egq9hF5Hu9AXaD8GMFVMFzPFHDAmxsaisVQsA5NgM7FSrByrxuqwJnidr2JdWC/2ESfidJyBO8AdHIon4jx8Ej4TX4xX4DvwerwFv4o/wPvwbwQqwZBgT/AicAhjCJmEyYQSQjlhG+EQ4Qy8l7oJ74hEoi7RmugB78UUYjZxGnExcT1xD/EksYP4iNhPIpH0SfYkH1I0iUsqJJWQ1pF2kU6QrpC6SR9UVFVMVJxVglVSVUQqc1XKVXaqHFe5ovJU5TNZg2xJ9iJHk/nkqeSl5K3kJvJlcjf5M0WTYk3xoSRQsilzKGspdZQzlLuUN6qqqmaqnqqxqkLV2aprVfeqnld9oPpRTUvNTo2tNk5NqrZEbbvaSbVbam+oVKoV1Z+aSi2kLqHWUE9T71M/0Og0RxqHxqfNolXS6mlXaC/VyeqW6iz1CerF6uXqB9Qvq/dqkDWsNNgaXI2ZGpUahzU6Nfo16ZqjNKM18zQXa+7UvKD5TIukZaUVpMXXmq+1Reu01iM6Rjens+k8+jz6VvoZerc2Udtam6OdrV2mvVu7TbtPR0vHVSdJZ4pOpc4xnS5dTNdKl6Obq7tUd7/uDd1Pw4yGsYYJhi0aVjfsyrD3esP1/PUEeqV6e/Su633SZ+gH6efoL9dv0L9ngBvYGcQaTDbYYHDGoHe49nDv4bzhpcP3D79tiBraGcYZTjPcYthq2G9kbBRiJDZaZ3TaqNdY19jfONt4lfFx4x4TuomvidBklckJk+cMHQaLkctYy2hh9JkamoaaSk03m7aZfjazNks0m2u2x+yeOcWcaZ5hvsq82bzPwsQi0mK6Ra3FbUuyJdMyy3KN5TnL91bWVslWC6warJ5Z61lzrIuta63v2lBt/Gwm2VTbXLMl2jJtc2zX27bboXZudll2lXaX7VF7d3uh/Xr7jhGEEZ4jRCOqR3Q6qDmwHIocah0eOOo6RjjOdWxwfDnSYmTqyOUjz4385uTmlOu01enOKK1RYaPmjmoa9drZzpnnXOl8zYXqEuwyy6XR5ZWrvavAdYPrTTe6W6TbArdmt6/uHu4S9zr3Hg8LjzSPKo9OpjYzhrmYed6T4BngOcvzqOdHL3evQq/9Xn95O3jneO/0fjbaerRg9NbRj3zMfLg+m326fBm+ab6bfLv8TP24ftV+D/3N/fn+2/yfsmxZ2axdrJcBTgGSgEMB79le7Bnsk4FYYEhgaWBbkFZQYlBF0P1gs+DM4NrgvhC3kGkhJ0MJoeGhy0M7OUYcHqeG0xfmETYjrCVcLTw+vCL8YYRdhCSiKRKNDItcGXk3yjJKFNUQDaI50Suj78VYx0yKORJLjI2JrYx9EjcqbnrcuXh6/MT4nfHvEgISlibcSbRJlCY2J6knjUuqSXqfHJi8IrlrzMgxM8ZcSjFIEaY0ppJSk1K3pfaPDRq7emz3OLdxJeNujLceP2X8hQkGE3InHJuoPpE78UAaIS05bWfaF240t5rbn85Jr0rv47F5a3gv+P78VfwegY9gheBphk/GioxnmT6ZKzN7svyyyrN6hWxhhfBVdmj2xuz3OdE523MGcpNz9+Sp5KXlHRZpiXJELfnG+VPyO8T24hJx1ySvSasn9UnCJdsKkILxBY2F2vBDvlVqI/1F+qDIt6iy6MPkpMkHpmhOEU1pnWo3ddHUp8XBxb9Nw6fxpjVPN50+Z/qDGawZm2ciM9NnNs8ynzV/VvfskNk75lDm5Mz5fa7T3BVz385Lntc032j+7PmPfgn5pbaEViIp6VzgvWDjQnyhcGHbIpdF6xZ9K+WXXixzKisv+7KYt/jir6N+XfvrwJKMJW1L3ZduWEZcJlp2Y7nf8h0rNFcUr3i0MnJl/SrGqtJVb1dPXH2h3LV84xrKGumarrURaxvXWaxbtu5LRVbF9cqAyj1VhlWLqt6v56+/ssF/Q91Go41lGz9tEm66uTlkc321VXX5FuKWoi1PtiZtPfcb87eabQbbyrZ93S7a3rUjbkdLjUdNzU7DnUtr0Vppbc+ucbvadwfubqxzqNu8R3dP2V6wV7r3+b60fTf2h+9vPsA8UHfQ8mDVIfqh0nqkfmp9X0NWQ1djSmPH4bDDzU3eTYeOOB7ZftT0aOUxnWNLj1OOzz8+cKL4RP9J8cneU5mnHjVPbL5zeszpay2xLW1nws+cPxt89vQ51rkT533OH73gdeHwRebFhkvul+pb3VoP/e72+6E297b6yx6XG9s925s6Rnccv+J35dTVwKtnr3GuXboedb3jRuKNm53jOrtu8m8+u5V769Xtotuf78y+S7hbek/jXvl9w/vVf9j+safLvevYg8AHrQ/jH955xHv04nHB4y/d859Qn5Q/NXla88z52dGe4J7252Ofd78Qv/jcW/Kn5p9VL21eHvzL/6/WvjF93a8krwZeL36j/2b7W9e3zf0x/fff5b37/L70g/6HHR+ZH899Sv709PPkL6Qva7/afm36Fv7t7kDewICYK+HKPwUwWNGMDABebweAmgIAHZ7PKGMV5z95QRRnVjkC/wkrzojy4g5AHfx+j+2FXzedAOzdCo9fUF99HAAxVAASPAHq4jJUB89q8nOlrBDhOWBTzNf0vHTwb4rizPlD3D/3QKbqCn7u/wUd5Xx4U4WNHgAAAGxlWElmTU0AKgAAAAgABAEaAAUAAAABAAAAPgEbAAUAAAABAAAARgEoAAMAAAABAAIAAIdpAAQAAAABAAAATgAAAAAAAACQAAAAAQAAAJAAAAABAAKgAgAEAAAAAQAAACygAwAEAAAAAQAAADYAAAAAvBSBhgAAAAlwSFlzAAAWJQAAFiUBSVIk8AAAAt9JREFUaAXtWFuOwjAMbFd7Jb6Bq/DHKYCTAd8civVYO8gb8rBbwgqplorT2LEnE8db7XgXGT5Ivj4Iq0JdAPc+sYXh3gx/906A+LvdTtPcbjfV+/1+WK1W+uhE5AdtracIlvvhcLifz2dNgzHm8HAukn+IOEd9CQ7aymazUcDQUekKmMDAphVuJJ23PqVx1y4hwATTMFDri/mRDZk357C0k57zAk1LIi0VT86/Z+VYgYvCx+H+5MJymFK/COYCbGuR7EB7BRtEDMaZwixzufrwer3WArtcLqrxU6rLh4MZCFB94/rT6aTvx+NRdeiHyD2axykJ7nNYmsO0/1xlR0wEwDjmqYK1iDElTggwk0DPEQsYJETE3YdZfwLWVb/wH8dRH7sW6+fIJMDRhClg+84L7Y3pBny9Xh8xeesfE5UBfGv+4U7hrR/B9LgoWIM6xINuAZ0T2LAOmsK5dJ72lnbdHgAiYCS0STkvLGaBwxc2+kGXfFtgYXcBTgGmCa3dk3SOjwuwZQjjnJBBgO8pLsAEA10Su6mSzyvmywh+o6f1W0rq2VRpbWS+2dZszxRQ/y5NwJ7++85NNT8vLRip0yzDLR/aqcN/LGzWVv2Ir/bQUnfAenvh0i7Blgefml8LB+3VSzflwmENBWDTjXpjMkaqZwMmgzgJjK3k5mC3TNsN2rWlcRUwFrEkSoFph7ZimayxXIprY9nx3yzW8jsmG2lSmC27ucTcTMo81tZssJekCdgyZRMTLDaSA8uEJVs3wEhMcExCnWOdQGvaxqv55WxNhu0isMXHzkfH3DCARyUEOBo85092p4BFvLcCngv2rYBfAfZtgFH3qNu0DPAOW0SaX2uSaJbgg2e73Q4CbMh99PCDyJtkVJq93hP88M8UYXKQFvi0mhvJ2Z6cORE5jqgv+rTkqT7RkujWJQCkBRb2qHQvCZ7kq3T3S/cqoIyzACYTvfTCcC9mGXdhmEz00j+n9fblV3vm5QAAAABJRU5ErkJggg==;" vertex="1" parent="A1PA44tEhQM_5LtgaNAi-42">
          <mxGeometry x="18" y="50" width="24.44" height="30" as="geometry" />
        </mxCell>
        <mxCell id="MdbT-BWZGTubTPf6MlZ--39" value="" style="shape=image;verticalLabelPosition=bottom;labelBackgroundColor=default;verticalAlign=top;aspect=fixed;imageAspect=0;image=data:image/png,iVBORw0KGgoAAAANSUhEUgAAACwAAAA2CAYAAAC8yXv8AAAMPWlDQ1BJQ0MgUHJvZmlsZQAASImVVwdYU8kWnluSkEBCCSAgJfQmiNQAUkJooXcEGyEJEEqIgaBiL4sKrl1UwIauiih2QOyInUWwYV8sqCjrYsGuvEkBXfeV702+mfnzz5n/nDl3bhkA1E9yxeJcVAOAPFGhJC4kgDEmJZVB6gE40AI0+GNyeQViVkxMBIBlsP97eXcDILL+qoNM65/j/7Vo8gUFPACQGIjT+QW8PIgPAoBX8cSSQgCIMt58cqFYhmEF2hIYIMQLZThTgatkOF2B98ptEuLYELcAoKLG5UoyAaC1Q55RxMuEGrQ+iJ1EfKEIAHUGxL55efl8iNMgtoE2Yohl+sz0H3Qy/6aZPqTJ5WYOYcVa5EUlUFggzuVO/T/T8b9LXq500IcVrGpZktA42Zph3m7m5IfLsBrEvaL0qGiItSD+IOTL7SFGKVnS0ESFPWrIK2DDnAFdiJ343MBwiA0hDhblRkUo+fQMYTAHYrhD0CnCQk4CxHoQLxQUBMUrbTZJ8uOUvtD6DAmbpeTPcyVyvzJf96U5iSyl/ussAUepj9GKsxKSIaZAbFEkTIqCmAaxY0FOfLjSZnRxFjtq0EYijZPFbwFxnEAUEqDQx4oyJMFxSvvSvILB9WKbsoScKCXeX5iVEKrID9bC48rjh2vB2gUiVuKgjqBgTMTgWviCwCDF2rFnAlFivFLng7gwIE4xF6eIc2OU9riZIDdExptB7FpQFK+ciycVwg2p0MczxIUxCYo48eJsbliMIh58GYgAbBAIGEAKazrIB9lA2Nbb0Av/KUaCARdIQCYQAAclMzgjWT4igm08KAZ/QiQABUPzAuSjAlAE+a9DrKJ1ABny0SL5jBzwBOI8EA5y4X+pfJZoyFsSeAwZ4T+8c2HlwXhzYZWN/3t+kP3OsCAToWSkgx4Z6oOWxCBiIDGUGEy0xQ1wX9wbj4CtP6zOOBP3HFzHd3vCE0IH4SHhOqGLcGuicK7kpygjQRfUD1bmIv3HXOBWUNMND8B9oDpUxnVxA+CAu0I/LNwPenaDLFsZtywrjJ+0/7aCH66G0o7sREbJw8j+ZJufZ9LsaG5DKrJc/5gfRazpQ/lmD4387J/9Q/b5sA//2RJbiB3AzmGnsAvYUawBMLATWCPWih2T4aHd9Vi+uwa9xcnjyYE6wn/4G7yyskwWONU69Th9UYwVCqbIntGAnS+eKhFmZhUyWPCNIGBwRDzHEQxnJ2c3AGTvF8Xj602s/L2B6LZ+5+b9AYDPiYGBgSPfubATAOzzgLf/4e+cDRO+OlQBOH+YJ5UUKThc1hDgU0Id3mn6wBiYAxu4HmfgDryBPwgCYSAaJIAUMAFGnwX3uQRMBtPBHFACysAysBpUgI1gC9gBdoP9oAEcBafAWXAJtIPr4A7cPd3gBegD78BnBEFICBWhI/qICWKJ2CPOCBPxRYKQCCQOSUHSkExEhEiR6cg8pAxZgVQgm5EaZB9yGDmFXEA6kFvIA6QHeY18QjFUDdVGjVArdCTKRFloOJqAjkcz0UloMTofXYKuRavRXWg9egq9hF5Hu9AXaD8GMFVMFzPFHDAmxsaisVQsA5NgM7FSrByrxuqwJnidr2JdWC/2ESfidJyBO8AdHIon4jx8Ej4TX4xX4DvwerwFv4o/wPvwbwQqwZBgT/AicAhjCJmEyYQSQjlhG+EQ4Qy8l7oJ74hEoi7RmugB78UUYjZxGnExcT1xD/EksYP4iNhPIpH0SfYkH1I0iUsqJJWQ1pF2kU6QrpC6SR9UVFVMVJxVglVSVUQqc1XKVXaqHFe5ovJU5TNZg2xJ9iJHk/nkqeSl5K3kJvJlcjf5M0WTYk3xoSRQsilzKGspdZQzlLuUN6qqqmaqnqqxqkLV2aprVfeqnld9oPpRTUvNTo2tNk5NqrZEbbvaSbVbam+oVKoV1Z+aSi2kLqHWUE9T71M/0Og0RxqHxqfNolXS6mlXaC/VyeqW6iz1CerF6uXqB9Qvq/dqkDWsNNgaXI2ZGpUahzU6Nfo16ZqjNKM18zQXa+7UvKD5TIukZaUVpMXXmq+1Reu01iM6Rjens+k8+jz6VvoZerc2Udtam6OdrV2mvVu7TbtPR0vHVSdJZ4pOpc4xnS5dTNdKl6Obq7tUd7/uDd1Pw4yGsYYJhi0aVjfsyrD3esP1/PUEeqV6e/Su633SZ+gH6efoL9dv0L9ngBvYGcQaTDbYYHDGoHe49nDv4bzhpcP3D79tiBraGcYZTjPcYthq2G9kbBRiJDZaZ3TaqNdY19jfONt4lfFx4x4TuomvidBklckJk+cMHQaLkctYy2hh9JkamoaaSk03m7aZfjazNks0m2u2x+yeOcWcaZ5hvsq82bzPwsQi0mK6Ra3FbUuyJdMyy3KN5TnL91bWVslWC6warJ5Z61lzrIuta63v2lBt/Gwm2VTbXLMl2jJtc2zX27bboXZudll2lXaX7VF7d3uh/Xr7jhGEEZ4jRCOqR3Q6qDmwHIocah0eOOo6RjjOdWxwfDnSYmTqyOUjz4385uTmlOu01enOKK1RYaPmjmoa9drZzpnnXOl8zYXqEuwyy6XR5ZWrvavAdYPrTTe6W6TbArdmt6/uHu4S9zr3Hg8LjzSPKo9OpjYzhrmYed6T4BngOcvzqOdHL3evQq/9Xn95O3jneO/0fjbaerRg9NbRj3zMfLg+m326fBm+ab6bfLv8TP24ftV+D/3N/fn+2/yfsmxZ2axdrJcBTgGSgEMB79le7Bnsk4FYYEhgaWBbkFZQYlBF0P1gs+DM4NrgvhC3kGkhJ0MJoeGhy0M7OUYcHqeG0xfmETYjrCVcLTw+vCL8YYRdhCSiKRKNDItcGXk3yjJKFNUQDaI50Suj78VYx0yKORJLjI2JrYx9EjcqbnrcuXh6/MT4nfHvEgISlibcSbRJlCY2J6knjUuqSXqfHJi8IrlrzMgxM8ZcSjFIEaY0ppJSk1K3pfaPDRq7emz3OLdxJeNujLceP2X8hQkGE3InHJuoPpE78UAaIS05bWfaF240t5rbn85Jr0rv47F5a3gv+P78VfwegY9gheBphk/GioxnmT6ZKzN7svyyyrN6hWxhhfBVdmj2xuz3OdE523MGcpNz9+Sp5KXlHRZpiXJELfnG+VPyO8T24hJx1ySvSasn9UnCJdsKkILxBY2F2vBDvlVqI/1F+qDIt6iy6MPkpMkHpmhOEU1pnWo3ddHUp8XBxb9Nw6fxpjVPN50+Z/qDGawZm2ciM9NnNs8ynzV/VvfskNk75lDm5Mz5fa7T3BVz385Lntc032j+7PmPfgn5pbaEViIp6VzgvWDjQnyhcGHbIpdF6xZ9K+WXXixzKisv+7KYt/jir6N+XfvrwJKMJW1L3ZduWEZcJlp2Y7nf8h0rNFcUr3i0MnJl/SrGqtJVb1dPXH2h3LV84xrKGumarrURaxvXWaxbtu5LRVbF9cqAyj1VhlWLqt6v56+/ssF/Q91Go41lGz9tEm66uTlkc321VXX5FuKWoi1PtiZtPfcb87eabQbbyrZ93S7a3rUjbkdLjUdNzU7DnUtr0Vppbc+ucbvadwfubqxzqNu8R3dP2V6wV7r3+b60fTf2h+9vPsA8UHfQ8mDVIfqh0nqkfmp9X0NWQ1djSmPH4bDDzU3eTYeOOB7ZftT0aOUxnWNLj1OOzz8+cKL4RP9J8cneU5mnHjVPbL5zeszpay2xLW1nws+cPxt89vQ51rkT533OH73gdeHwRebFhkvul+pb3VoP/e72+6E297b6yx6XG9s925s6Rnccv+J35dTVwKtnr3GuXboedb3jRuKNm53jOrtu8m8+u5V769Xtotuf78y+S7hbek/jXvl9w/vVf9j+safLvevYg8AHrQ/jH955xHv04nHB4y/d859Qn5Q/NXla88z52dGe4J7252Ofd78Qv/jcW/Kn5p9VL21eHvzL/6/WvjF93a8krwZeL36j/2b7W9e3zf0x/fff5b37/L70g/6HHR+ZH899Sv709PPkL6Qva7/afm36Fv7t7kDewICYK+HKPwUwWNGMDABebweAmgIAHZ7PKGMV5z95QRRnVjkC/wkrzojy4g5AHfx+j+2FXzedAOzdCo9fUF99HAAxVAASPAHq4jJUB89q8nOlrBDhOWBTzNf0vHTwb4rizPlD3D/3QKbqCn7u/wUd5Xx4U4WNHgAAAGxlWElmTU0AKgAAAAgABAEaAAUAAAABAAAAPgEbAAUAAAABAAAARgEoAAMAAAABAAIAAIdpAAQAAAABAAAATgAAAAAAAACQAAAAAQAAAJAAAAABAAKgAgAEAAAAAQAAACygAwAEAAAAAQAAADYAAAAAvBSBhgAAAAlwSFlzAAAWJQAAFiUBSVIk8AAAAo9JREFUaAXtWAGSwjAIbG/uX+rL1JepL/Oyzq2DlARS01RnykwmCVDYbCmtjvckwxfJzxdhfUDdAC99xzaGl2b4d+kEVvzr9TpgUE6nE5fu3L0kDofDcD6fn8CwHsdxCINGH+4lx+Pxvt/vX9JdLhe8Byb6FyexGcR68SWAYQC4FOoB3pPuJZHAZUXWddbJO1Fru2YRbCdwjxHJ1Z3hVMMmeQm4qZ8oI6dq7QOWMfAAJkCTmi7lW60P3263CXkhRek0PWysYd3ucrm7trUsiP+HLgL6IwCzllHPnnTrEnj1Rl7Bbi/2TtTKLlnUvVjavHz+PfAiBO0EhVkLSgEDD6AnbwPWbJUSAqwGhT3AWgexYs0CLJu+Zgc2DUomJkBeF2WWMaoBMyEYIbvUSRC0MVGruQowQBKUBgCAtGFeHbBkEWtLJGDL3kIXYjgCVjKcO1ALwKEXh/wNllg0xW345lX1Shew/nGo91bKVOuWuo3Ou02yHEq9MqF5PnReTJQPYiE2Ro24DEtadrud3JrrBMDUQ4my4c98xMI3cfOf+bKV5diAPuF5DOmjWxt8tE5eq20W826XkICtANBZSZFcAqQPZi08bKnkeM3bgAmMSRmYAPVeHoK2CCn0dQFLQPqWSRuASIawl2zSV/oQBA+HazzxPVIEBkQyrJGcOsxcEyT3XnLa6W8dhj6cQ4DhzKAAhYHgAE6Rdm2jT25mTMTwJAzYCzTXzoNGwCLHqoBrwa4KGOXEmq+5O6sxPAfsagyz22hmcQhPfA8vQqU9Bxb1DJsnXf8MxKcpv5vxETRLvBO1srMj4LbnRqS1dWU4ASqSmkqiaIdxBIOu1wc5VH3AfwLuDfDSd2FjeGNYMfB1JfEHMjocFO3GWyEAAAAASUVORK5CYII=;" vertex="1" parent="A1PA44tEhQM_5LtgaNAi-42">
          <mxGeometry x="50" y="30" width="24.44" height="30" as="geometry" />
        </mxCell>
        <mxCell id="MdbT-BWZGTubTPf6MlZ--1" value="" style="endArrow=classic;html=1;rounded=0;exitX=0.956;exitY=0.272;exitDx=0;exitDy=0;exitPerimeter=0;entryX=0;entryY=0;entryDx=0;entryDy=0;strokeWidth=1.5;" edge="1" parent="1" source="A1PA44tEhQM_5LtgaNAi-9" target="A1PA44tEhQM_5LtgaNAi-36">
          <mxGeometry width="50" height="50" relative="1" as="geometry">
            <mxPoint x="-260" y="120" as="sourcePoint" />
            <mxPoint x="-210" y="70" as="targetPoint" />
          </mxGeometry>
        </mxCell>
        <mxCell id="MdbT-BWZGTubTPf6MlZ--3" value="" style="endArrow=classic;html=1;rounded=0;exitX=1;exitY=0.5;exitDx=0;exitDy=0;entryX=0;entryY=0;entryDx=0;entryDy=0;strokeWidth=1.5;" edge="1" parent="1" source="A1PA44tEhQM_5LtgaNAi-9" target="A1PA44tEhQM_5LtgaNAi-43">
          <mxGeometry width="50" height="50" relative="1" as="geometry">
            <mxPoint x="-240" y="140" as="sourcePoint" />
            <mxPoint x="-93" y="179" as="targetPoint" />
          </mxGeometry>
        </mxCell>
        <mxCell id="MdbT-BWZGTubTPf6MlZ--4" value="" style="endArrow=classic;html=1;rounded=0;exitX=0.967;exitY=0.35;exitDx=0;exitDy=0;exitPerimeter=0;strokeWidth=1.5;entryX=0.033;entryY=0.317;entryDx=0;entryDy=0;entryPerimeter=0;" edge="1" parent="1" source="A1PA44tEhQM_5LtgaNAi-16" target="A1PA44tEhQM_5LtgaNAi-36">
          <mxGeometry width="50" height="50" relative="1" as="geometry">
            <mxPoint x="-230" y="130" as="sourcePoint" />
            <mxPoint x="-170" y="160" as="targetPoint" />
          </mxGeometry>
        </mxCell>
        <mxCell id="MdbT-BWZGTubTPf6MlZ--5" value="" style="endArrow=classic;html=1;rounded=0;exitX=1;exitY=0.5;exitDx=0;exitDy=0;entryX=0.056;entryY=0.261;entryDx=0;entryDy=0;strokeWidth=1.5;entryPerimeter=0;" edge="1" parent="1" source="A1PA44tEhQM_5LtgaNAi-16" target="A1PA44tEhQM_5LtgaNAi-43">
          <mxGeometry width="50" height="50" relative="1" as="geometry">
            <mxPoint x="120" y="350" as="sourcePoint" />
            <mxPoint x="255" y="270" as="targetPoint" />
          </mxGeometry>
        </mxCell>
        <mxCell id="MdbT-BWZGTubTPf6MlZ--6" value="" style="endArrow=classic;html=1;rounded=0;exitX=0.956;exitY=0.239;exitDx=0;exitDy=0;exitPerimeter=0;strokeWidth=1.5;entryX=0;entryY=0.394;entryDx=0;entryDy=0;entryPerimeter=0;" edge="1" parent="1" source="A1PA44tEhQM_5LtgaNAi-24" target="A1PA44tEhQM_5LtgaNAi-36">
          <mxGeometry width="50" height="50" relative="1" as="geometry">
            <mxPoint x="-100" y="410" as="sourcePoint" />
            <mxPoint x="-180" y="170" as="targetPoint" />
          </mxGeometry>
        </mxCell>
        <mxCell id="MdbT-BWZGTubTPf6MlZ--7" value="" style="endArrow=classic;html=1;rounded=0;exitX=1;exitY=0.5;exitDx=0;exitDy=0;strokeWidth=1.5;entryX=0;entryY=0.372;entryDx=0;entryDy=0;entryPerimeter=0;" edge="1" parent="1" source="A1PA44tEhQM_5LtgaNAi-24" target="A1PA44tEhQM_5LtgaNAi-43">
          <mxGeometry width="50" height="50" relative="1" as="geometry">
            <mxPoint x="-200" y="320" as="sourcePoint" />
            <mxPoint x="-170" y="350" as="targetPoint" />
          </mxGeometry>
        </mxCell>
        <mxCell id="MdbT-BWZGTubTPf6MlZ--8" value="&lt;font style=&quot;font-size: 14px;&quot;&gt;平方误差&lt;/font&gt;&lt;div&gt;&lt;font size=&quot;3&quot;&gt;C&lt;/font&gt;&lt;/div&gt;" style="rounded=0;whiteSpace=wrap;html=1;strokeWidth=2;" vertex="1" parent="1">
          <mxGeometry x="-10" y="100" width="80" height="330" as="geometry" />
        </mxCell>
        <mxCell id="MdbT-BWZGTubTPf6MlZ--11" value="" style="endArrow=classic;html=1;rounded=0;exitX=0.956;exitY=0.272;exitDx=0;exitDy=0;exitPerimeter=0;strokeWidth=3;strokeColor=#00CCCC;" edge="1" parent="1">
          <mxGeometry width="50" height="50" relative="1" as="geometry">
            <mxPoint x="-70" y="184.5" as="sourcePoint" />
            <mxPoint x="-20" y="184.5" as="targetPoint" />
          </mxGeometry>
        </mxCell>
        <mxCell id="A1PA44tEhQM_5LtgaNAi-32" value="" style="group" parent="1" vertex="1" connectable="0">
          <mxGeometry x="-400" y="90" width="90" height="90" as="geometry" />
        </mxCell>
        <mxCell id="A1PA44tEhQM_5LtgaNAi-9" value="" style="shape=lineEllipse;line=vertical;perimeter=ellipsePerimeter;whiteSpace=wrap;html=1;backgroundOutline=1;" parent="A1PA44tEhQM_5LtgaNAi-32" vertex="1">
          <mxGeometry width="90" height="90" as="geometry" />
        </mxCell>
        <mxCell id="A1PA44tEhQM_5LtgaNAi-8" value="" style="endArrow=none;html=1;rounded=0;entryX=0.5;entryY=0.513;entryDx=0;entryDy=0;entryPerimeter=0;exitX=0;exitY=0.5;exitDx=0;exitDy=0;" parent="A1PA44tEhQM_5LtgaNAi-32" source="A1PA44tEhQM_5LtgaNAi-9" target="A1PA44tEhQM_5LtgaNAi-9" edge="1">
          <mxGeometry width="50" height="50" relative="1" as="geometry">
            <mxPoint x="-310" y="90" as="sourcePoint" />
            <mxPoint x="-260" y="40" as="targetPoint" />
          </mxGeometry>
        </mxCell>
        <mxCell id="A1PA44tEhQM_5LtgaNAi-14" value="" style="shape=image;verticalLabelPosition=bottom;labelBackgroundColor=default;verticalAlign=top;aspect=fixed;imageAspect=0;image=data:image/png,iVBORw0KGgoAAAANSUhEUgAAACoAAAA2CAYAAACx1wu7AAAMPWlDQ1BJQ0MgUHJvZmlsZQAASImVVwdYU8kWnluSkEBCCSAgJfQmiNQAUkJooXcEGyEJEEqIgaBiL4sKrl1UwIauiih2QOyInUWwYV8sqCjrYsGuvEkBXfeV702+mfnzz5n/nDl3bhkA1E9yxeJcVAOAPFGhJC4kgDEmJZVB6gE40AI0+GNyeQViVkxMBIBlsP97eXcDILL+qoNM65/j/7Vo8gUFPACQGIjT+QW8PIgPAoBX8cSSQgCIMt58cqFYhmEF2hIYIMQLZThTgatkOF2B98ptEuLYELcAoKLG5UoyAaC1Q55RxMuEGrQ+iJ1EfKEIAHUGxL55efl8iNMgtoE2Yohl+sz0H3Qy/6aZPqTJ5WYOYcVa5EUlUFggzuVO/T/T8b9LXq500IcVrGpZktA42Zph3m7m5IfLsBrEvaL0qGiItSD+IOTL7SFGKVnS0ESFPWrIK2DDnAFdiJ343MBwiA0hDhblRkUo+fQMYTAHYrhD0CnCQk4CxHoQLxQUBMUrbTZJ8uOUvtD6DAmbpeTPcyVyvzJf96U5iSyl/ussAUepj9GKsxKSIaZAbFEkTIqCmAaxY0FOfLjSZnRxFjtq0EYijZPFbwFxnEAUEqDQx4oyJMFxSvvSvILB9WKbsoScKCXeX5iVEKrID9bC48rjh2vB2gUiVuKgjqBgTMTgWviCwCDF2rFnAlFivFLng7gwIE4xF6eIc2OU9riZIDdExptB7FpQFK+ciycVwg2p0MczxIUxCYo48eJsbliMIh58GYgAbBAIGEAKazrIB9lA2Nbb0Av/KUaCARdIQCYQAAclMzgjWT4igm08KAZ/QiQABUPzAuSjAlAE+a9DrKJ1ABny0SL5jBzwBOI8EA5y4X+pfJZoyFsSeAwZ4T+8c2HlwXhzYZWN/3t+kP3OsCAToWSkgx4Z6oOWxCBiIDGUGEy0xQ1wX9wbj4CtP6zOOBP3HFzHd3vCE0IH4SHhOqGLcGuicK7kpygjQRfUD1bmIv3HXOBWUNMND8B9oDpUxnVxA+CAu0I/LNwPenaDLFsZtywrjJ+0/7aCH66G0o7sREbJw8j+ZJufZ9LsaG5DKrJc/5gfRazpQ/lmD4387J/9Q/b5sA//2RJbiB3AzmGnsAvYUawBMLATWCPWih2T4aHd9Vi+uwa9xcnjyYE6wn/4G7yyskwWONU69Th9UYwVCqbIntGAnS+eKhFmZhUyWPCNIGBwRDzHEQxnJ2c3AGTvF8Xj602s/L2B6LZ+5+b9AYDPiYGBgSPfubATAOzzgLf/4e+cDRO+OlQBOH+YJ5UUKThc1hDgU0Id3mn6wBiYAxu4HmfgDryBPwgCYSAaJIAUMAFGnwX3uQRMBtPBHFACysAysBpUgI1gC9gBdoP9oAEcBafAWXAJtIPr4A7cPd3gBegD78BnBEFICBWhI/qICWKJ2CPOCBPxRYKQCCQOSUHSkExEhEiR6cg8pAxZgVQgm5EaZB9yGDmFXEA6kFvIA6QHeY18QjFUDdVGjVArdCTKRFloOJqAjkcz0UloMTofXYKuRavRXWg9egq9hF5Hu9AXaD8GMFVMFzPFHDAmxsaisVQsA5NgM7FSrByrxuqwJnidr2JdWC/2ESfidJyBO8AdHIon4jx8Ej4TX4xX4DvwerwFv4o/wPvwbwQqwZBgT/AicAhjCJmEyYQSQjlhG+EQ4Qy8l7oJ74hEoi7RmugB78UUYjZxGnExcT1xD/EksYP4iNhPIpH0SfYkH1I0iUsqJJWQ1pF2kU6QrpC6SR9UVFVMVJxVglVSVUQqc1XKVXaqHFe5ovJU5TNZg2xJ9iJHk/nkqeSl5K3kJvJlcjf5M0WTYk3xoSRQsilzKGspdZQzlLuUN6qqqmaqnqqxqkLV2aprVfeqnld9oPpRTUvNTo2tNk5NqrZEbbvaSbVbam+oVKoV1Z+aSi2kLqHWUE9T71M/0Og0RxqHxqfNolXS6mlXaC/VyeqW6iz1CerF6uXqB9Qvq/dqkDWsNNgaXI2ZGpUahzU6Nfo16ZqjNKM18zQXa+7UvKD5TIukZaUVpMXXmq+1Reu01iM6Rjens+k8+jz6VvoZerc2Udtam6OdrV2mvVu7TbtPR0vHVSdJZ4pOpc4xnS5dTNdKl6Obq7tUd7/uDd1Pw4yGsYYJhi0aVjfsyrD3esP1/PUEeqV6e/Su633SZ+gH6efoL9dv0L9ngBvYGcQaTDbYYHDGoHe49nDv4bzhpcP3D79tiBraGcYZTjPcYthq2G9kbBRiJDZaZ3TaqNdY19jfONt4lfFx4x4TuomvidBklckJk+cMHQaLkctYy2hh9JkamoaaSk03m7aZfjazNks0m2u2x+yeOcWcaZ5hvsq82bzPwsQi0mK6Ra3FbUuyJdMyy3KN5TnL91bWVslWC6warJ5Z61lzrIuta63v2lBt/Gwm2VTbXLMl2jJtc2zX27bboXZudll2lXaX7VF7d3uh/Xr7jhGEEZ4jRCOqR3Q6qDmwHIocah0eOOo6RjjOdWxwfDnSYmTqyOUjz4385uTmlOu01enOKK1RYaPmjmoa9drZzpnnXOl8zYXqEuwyy6XR5ZWrvavAdYPrTTe6W6TbArdmt6/uHu4S9zr3Hg8LjzSPKo9OpjYzhrmYed6T4BngOcvzqOdHL3evQq/9Xn95O3jneO/0fjbaerRg9NbRj3zMfLg+m326fBm+ab6bfLv8TP24ftV+D/3N/fn+2/yfsmxZ2axdrJcBTgGSgEMB79le7Bnsk4FYYEhgaWBbkFZQYlBF0P1gs+DM4NrgvhC3kGkhJ0MJoeGhy0M7OUYcHqeG0xfmETYjrCVcLTw+vCL8YYRdhCSiKRKNDItcGXk3yjJKFNUQDaI50Suj78VYx0yKORJLjI2JrYx9EjcqbnrcuXh6/MT4nfHvEgISlibcSbRJlCY2J6knjUuqSXqfHJi8IrlrzMgxM8ZcSjFIEaY0ppJSk1K3pfaPDRq7emz3OLdxJeNujLceP2X8hQkGE3InHJuoPpE78UAaIS05bWfaF240t5rbn85Jr0rv47F5a3gv+P78VfwegY9gheBphk/GioxnmT6ZKzN7svyyyrN6hWxhhfBVdmj2xuz3OdE523MGcpNz9+Sp5KXlHRZpiXJELfnG+VPyO8T24hJx1ySvSasn9UnCJdsKkILxBY2F2vBDvlVqI/1F+qDIt6iy6MPkpMkHpmhOEU1pnWo3ddHUp8XBxb9Nw6fxpjVPN50+Z/qDGawZm2ciM9NnNs8ynzV/VvfskNk75lDm5Mz5fa7T3BVz385Lntc032j+7PmPfgn5pbaEViIp6VzgvWDjQnyhcGHbIpdF6xZ9K+WXXixzKisv+7KYt/jir6N+XfvrwJKMJW1L3ZduWEZcJlp2Y7nf8h0rNFcUr3i0MnJl/SrGqtJVb1dPXH2h3LV84xrKGumarrURaxvXWaxbtu5LRVbF9cqAyj1VhlWLqt6v56+/ssF/Q91Go41lGz9tEm66uTlkc321VXX5FuKWoi1PtiZtPfcb87eabQbbyrZ93S7a3rUjbkdLjUdNzU7DnUtr0Vppbc+ucbvadwfubqxzqNu8R3dP2V6wV7r3+b60fTf2h+9vPsA8UHfQ8mDVIfqh0nqkfmp9X0NWQ1djSmPH4bDDzU3eTYeOOB7ZftT0aOUxnWNLj1OOzz8+cKL4RP9J8cneU5mnHjVPbL5zeszpay2xLW1nws+cPxt89vQ51rkT533OH73gdeHwRebFhkvul+pb3VoP/e72+6E297b6yx6XG9s925s6Rnccv+J35dTVwKtnr3GuXboedb3jRuKNm53jOrtu8m8+u5V769Xtotuf78y+S7hbek/jXvl9w/vVf9j+safLvevYg8AHrQ/jH955xHv04nHB4y/d859Qn5Q/NXla88z52dGe4J7252Ofd78Qv/jcW/Kn5p9VL21eHvzL/6/WvjF93a8krwZeL36j/2b7W9e3zf0x/fff5b37/L70g/6HHR+ZH899Sv709PPkL6Qva7/afm36Fv7t7kDewICYK+HKPwUwWNGMDABebweAmgIAHZ7PKGMV5z95QRRnVjkC/wkrzojy4g5AHfx+j+2FXzedAOzdCo9fUF99HAAxVAASPAHq4jJUB89q8nOlrBDhOWBTzNf0vHTwb4rizPlD3D/3QKbqCn7u/wUd5Xx4U4WNHgAAAGxlWElmTU0AKgAAAAgABAEaAAUAAAABAAAAPgEbAAUAAAABAAAARgEoAAMAAAABAAIAAIdpAAQAAAABAAAATgAAAAAAAACQAAAAAQAAAJAAAAABAAKgAgAEAAAAAQAAACqgAwAEAAAAAQAAADYAAAAAGyA2jgAAAAlwSFlzAAAWJQAAFiUBSVIk8AAAAqRJREFUaAXtWNGNwjAMbdGNhQQMwEzATAwASOzF+fXuIeOLU7tNP06qpeA0cezn5yQF+pdI9w9k8w8wDhBXoK0rtTK6MtqaAevvcDh0aH3fD/p8PluT+jPu0SXldrvhnn7t9/sX+qfTaWgYQ8NYRLqI0RwbAAQ4KxhnAnau9Lw4UI85MOnNlYAuej3d73fB8iO6zzHqy+XCrq9L6FuOoezcn9avoBpYLW0Na/vlp1CfIUMComronW6ury7Wkxa598zNL2vfewv9qQIWsR5+IxKKhI0PhxZspGQlENmDBB8hoDqYBjsVKH1E79DZQDOBmCxLnl2bZlTvUQaPaoAEm1mQaUYRgECzZSdImxTGI75SF376SpGsILiiHo9HJ4n+DEz4TN2jCEaRErJb1QCJNw/s8e3JCpIPJWBLUXuWIO/S0w7bAc0Tvcbr19bTb5hRXXbZU0M57TsarEnQN2lYg7ExidiETz02vAT8aPoQ6Hmy0FKHgUrWb5Do23LhmYnoBFqBDQMlCGgLkmB0MhxrpUNAo2zpZFoBpJ+NOB8VfZBGjX8Npqyp+ibimtYl9cquWZeANXeT5kIeEZjNi6JPPRKryZTDNgpUM1UDoFm3QOADTdvUEinNhfYo985ut2P3j/b2JF6h/PPhz6LMQAm9HtOMWqZop8vu2cBW++LaqB4tPRxJ4kNDoJJESzoHaKr0pfKitBwXNjPFzNmWGLJjHhO65B7b2pfnR9t4/VDpsViDQqlZbugISPiYA7SHg0wNUGqIAPzQw8PIB7YIvzwnwy7wCkHmjsxhNHWYRghbdHoF2preldHWjIZ/hc4JzDcXNXzhmstccel7NAv4+Xx2x+Oxuux6vXbb7bZqszjQavTE5HqYEmSFTFdGQzQljFZGE2SFTL8Bj8W8eeTvejsAAAAASUVORK5CYII=;" parent="A1PA44tEhQM_5LtgaNAi-32" vertex="1">
          <mxGeometry x="18" y="48" width="23.33" height="30" as="geometry" />
        </mxCell>
        <mxCell id="MdbT-BWZGTubTPf6MlZ--22" value="" style="ellipse;whiteSpace=wrap;html=1;aspect=fixed;strokeColor=light-dark(#0066CC,#EDEDED);strokeWidth=2;" vertex="1" parent="A1PA44tEhQM_5LtgaNAi-32">
          <mxGeometry x="50" y="25.00999999999999" width="40" height="40" as="geometry" />
        </mxCell>
        <mxCell id="A1PA44tEhQM_5LtgaNAi-15" value="" style="shape=image;verticalLabelPosition=bottom;labelBackgroundColor=default;verticalAlign=top;aspect=fixed;imageAspect=0;image=data:image/png,iVBORw0KGgoAAAANSUhEUgAAADIAAAAyCAYAAAAeP4ixAAAMPWlDQ1BJQ0MgUHJvZmlsZQAASImVVwdYU8kWnluSkEBCCSAgJfQmiNQAUkJooXcEGyEJEEqIgaBiL4sKrl1UwIauiih2QOyInUWwYV8sqCjrYsGuvEkBXfeV702+mfnzz5n/nDl3bhkA1E9yxeJcVAOAPFGhJC4kgDEmJZVB6gE40AI0+GNyeQViVkxMBIBlsP97eXcDILL+qoNM65/j/7Vo8gUFPACQGIjT+QW8PIgPAoBX8cSSQgCIMt58cqFYhmEF2hIYIMQLZThTgatkOF2B98ptEuLYELcAoKLG5UoyAaC1Q55RxMuEGrQ+iJ1EfKEIAHUGxL55efl8iNMgtoE2Yohl+sz0H3Qy/6aZPqTJ5WYOYcVa5EUlUFggzuVO/T/T8b9LXq500IcVrGpZktA42Zph3m7m5IfLsBrEvaL0qGiItSD+IOTL7SFGKVnS0ESFPWrIK2DDnAFdiJ343MBwiA0hDhblRkUo+fQMYTAHYrhD0CnCQk4CxHoQLxQUBMUrbTZJ8uOUvtD6DAmbpeTPcyVyvzJf96U5iSyl/ussAUepj9GKsxKSIaZAbFEkTIqCmAaxY0FOfLjSZnRxFjtq0EYijZPFbwFxnEAUEqDQx4oyJMFxSvvSvILB9WKbsoScKCXeX5iVEKrID9bC48rjh2vB2gUiVuKgjqBgTMTgWviCwCDF2rFnAlFivFLng7gwIE4xF6eIc2OU9riZIDdExptB7FpQFK+ciycVwg2p0MczxIUxCYo48eJsbliMIh58GYgAbBAIGEAKazrIB9lA2Nbb0Av/KUaCARdIQCYQAAclMzgjWT4igm08KAZ/QiQABUPzAuSjAlAE+a9DrKJ1ABny0SL5jBzwBOI8EA5y4X+pfJZoyFsSeAwZ4T+8c2HlwXhzYZWN/3t+kP3OsCAToWSkgx4Z6oOWxCBiIDGUGEy0xQ1wX9wbj4CtP6zOOBP3HFzHd3vCE0IH4SHhOqGLcGuicK7kpygjQRfUD1bmIv3HXOBWUNMND8B9oDpUxnVxA+CAu0I/LNwPenaDLFsZtywrjJ+0/7aCH66G0o7sREbJw8j+ZJufZ9LsaG5DKrJc/5gfRazpQ/lmD4387J/9Q/b5sA//2RJbiB3AzmGnsAvYUawBMLATWCPWih2T4aHd9Vi+uwa9xcnjyYE6wn/4G7yyskwWONU69Th9UYwVCqbIntGAnS+eKhFmZhUyWPCNIGBwRDzHEQxnJ2c3AGTvF8Xj602s/L2B6LZ+5+b9AYDPiYGBgSPfubATAOzzgLf/4e+cDRO+OlQBOH+YJ5UUKThc1hDgU0Id3mn6wBiYAxu4HmfgDryBPwgCYSAaJIAUMAFGnwX3uQRMBtPBHFACysAysBpUgI1gC9gBdoP9oAEcBafAWXAJtIPr4A7cPd3gBegD78BnBEFICBWhI/qICWKJ2CPOCBPxRYKQCCQOSUHSkExEhEiR6cg8pAxZgVQgm5EaZB9yGDmFXEA6kFvIA6QHeY18QjFUDdVGjVArdCTKRFloOJqAjkcz0UloMTofXYKuRavRXWg9egq9hF5Hu9AXaD8GMFVMFzPFHDAmxsaisVQsA5NgM7FSrByrxuqwJnidr2JdWC/2ESfidJyBO8AdHIon4jx8Ej4TX4xX4DvwerwFv4o/wPvwbwQqwZBgT/AicAhjCJmEyYQSQjlhG+EQ4Qy8l7oJ74hEoi7RmugB78UUYjZxGnExcT1xD/EksYP4iNhPIpH0SfYkH1I0iUsqJJWQ1pF2kU6QrpC6SR9UVFVMVJxVglVSVUQqc1XKVXaqHFe5ovJU5TNZg2xJ9iJHk/nkqeSl5K3kJvJlcjf5M0WTYk3xoSRQsilzKGspdZQzlLuUN6qqqmaqnqqxqkLV2aprVfeqnld9oPpRTUvNTo2tNk5NqrZEbbvaSbVbam+oVKoV1Z+aSi2kLqHWUE9T71M/0Og0RxqHxqfNolXS6mlXaC/VyeqW6iz1CerF6uXqB9Qvq/dqkDWsNNgaXI2ZGpUahzU6Nfo16ZqjNKM18zQXa+7UvKD5TIukZaUVpMXXmq+1Reu01iM6Rjens+k8+jz6VvoZerc2Udtam6OdrV2mvVu7TbtPR0vHVSdJZ4pOpc4xnS5dTNdKl6Obq7tUd7/uDd1Pw4yGsYYJhi0aVjfsyrD3esP1/PUEeqV6e/Su633SZ+gH6efoL9dv0L9ngBvYGcQaTDbYYHDGoHe49nDv4bzhpcP3D79tiBraGcYZTjPcYthq2G9kbBRiJDZaZ3TaqNdY19jfONt4lfFx4x4TuomvidBklckJk+cMHQaLkctYy2hh9JkamoaaSk03m7aZfjazNks0m2u2x+yeOcWcaZ5hvsq82bzPwsQi0mK6Ra3FbUuyJdMyy3KN5TnL91bWVslWC6warJ5Z61lzrIuta63v2lBt/Gwm2VTbXLMl2jJtc2zX27bboXZudll2lXaX7VF7d3uh/Xr7jhGEEZ4jRCOqR3Q6qDmwHIocah0eOOo6RjjOdWxwfDnSYmTqyOUjz4385uTmlOu01enOKK1RYaPmjmoa9drZzpnnXOl8zYXqEuwyy6XR5ZWrvavAdYPrTTe6W6TbArdmt6/uHu4S9zr3Hg8LjzSPKo9OpjYzhrmYed6T4BngOcvzqOdHL3evQq/9Xn95O3jneO/0fjbaerRg9NbRj3zMfLg+m326fBm+ab6bfLv8TP24ftV+D/3N/fn+2/yfsmxZ2axdrJcBTgGSgEMB79le7Bnsk4FYYEhgaWBbkFZQYlBF0P1gs+DM4NrgvhC3kGkhJ0MJoeGhy0M7OUYcHqeG0xfmETYjrCVcLTw+vCL8YYRdhCSiKRKNDItcGXk3yjJKFNUQDaI50Suj78VYx0yKORJLjI2JrYx9EjcqbnrcuXh6/MT4nfHvEgISlibcSbRJlCY2J6knjUuqSXqfHJi8IrlrzMgxM8ZcSjFIEaY0ppJSk1K3pfaPDRq7emz3OLdxJeNujLceP2X8hQkGE3InHJuoPpE78UAaIS05bWfaF240t5rbn85Jr0rv47F5a3gv+P78VfwegY9gheBphk/GioxnmT6ZKzN7svyyyrN6hWxhhfBVdmj2xuz3OdE523MGcpNz9+Sp5KXlHRZpiXJELfnG+VPyO8T24hJx1ySvSasn9UnCJdsKkILxBY2F2vBDvlVqI/1F+qDIt6iy6MPkpMkHpmhOEU1pnWo3ddHUp8XBxb9Nw6fxpjVPN50+Z/qDGawZm2ciM9NnNs8ynzV/VvfskNk75lDm5Mz5fa7T3BVz385Lntc032j+7PmPfgn5pbaEViIp6VzgvWDjQnyhcGHbIpdF6xZ9K+WXXixzKisv+7KYt/jir6N+XfvrwJKMJW1L3ZduWEZcJlp2Y7nf8h0rNFcUr3i0MnJl/SrGqtJVb1dPXH2h3LV84xrKGumarrURaxvXWaxbtu5LRVbF9cqAyj1VhlWLqt6v56+/ssF/Q91Go41lGz9tEm66uTlkc321VXX5FuKWoi1PtiZtPfcb87eabQbbyrZ93S7a3rUjbkdLjUdNzU7DnUtr0Vppbc+ucbvadwfubqxzqNu8R3dP2V6wV7r3+b60fTf2h+9vPsA8UHfQ8mDVIfqh0nqkfmp9X0NWQ1djSmPH4bDDzU3eTYeOOB7ZftT0aOUxnWNLj1OOzz8+cKL4RP9J8cneU5mnHjVPbL5zeszpay2xLW1nws+cPxt89vQ51rkT533OH73gdeHwRebFhkvul+pb3VoP/e72+6E297b6yx6XG9s925s6Rnccv+J35dTVwKtnr3GuXboedb3jRuKNm53jOrtu8m8+u5V769Xtotuf78y+S7hbek/jXvl9w/vVf9j+safLvevYg8AHrQ/jH955xHv04nHB4y/d859Qn5Q/NXla88z52dGe4J7252Ofd78Qv/jcW/Kn5p9VL21eHvzL/6/WvjF93a8krwZeL36j/2b7W9e3zf0x/fff5b37/L70g/6HHR+ZH899Sv709PPkL6Qva7/afm36Fv7t7kDewICYK+HKPwUwWNGMDABebweAmgIAHZ7PKGMV5z95QRRnVjkC/wkrzojy4g5AHfx+j+2FXzedAOzdCo9fUF99HAAxVAASPAHq4jJUB89q8nOlrBDhOWBTzNf0vHTwb4rizPlD3D/3QKbqCn7u/wUd5Xx4U4WNHgAAAGxlWElmTU0AKgAAAAgABAEaAAUAAAABAAAAPgEbAAUAAAABAAAARgEoAAMAAAABAAIAAIdpAAQAAAABAAAATgAAAAAAAACQAAAAAQAAAJAAAAABAAKgAgAEAAAAAQAAADKgAwAEAAAAAQAAADIAAAAAH+FGrQAAAAlwSFlzAAAWJQAAFiUBSVIk8AAAAqpJREFUaAXtWAGSwiAM1Jv7l/oy9WXqy7wsc8ukKVBIaes4zUyPQkjYDSTUO75FDl8gP1/AIVDYiXzaTn7NjvxuGdnn8xmXP5/P8d31gqq1hQhwVMs3W7xfr1c3lIPbcoYhwFvQ6JOYx/XqOXK73QTvWHi0cNwul8t4wtSIh/0cG0ZecL0fj8fAFY8Z2lZZ/WgBPEjgsUIiKZ2da/urHy0cISEDFoJ3KKfTKQxgTrNYZlv2BXzYKVsIajCN97fGaoE5zB1PfgDORxBh3oAE3j1yhFHzeexswHKL3PHK6slugfYgAZ+bEsHliEpld4LkLOli33Mee9gguVPVCTkigJuX2CRHsBOv1yvsho0yxiF2l+y8Ub+ZesYAkawRllkBEiKfalM7NeV71u8RfODd7/eD/l0hIA6IOMbw4N2K6+a2Tmx/imlOz8jq2q/HZJ0Q8dqdyq1TO96eVeKZgAHWitZB/7FENFC8p4S7kSKamt9jbBzSgtcaEjAnEe93UwFCVtV0IbI0CtCs6OTmZ3l2ck9FlqJR4KzLuvEx6tjVu7ZWfmDx6qOlAZaOTA3ZyPr/Bb7nknbdIzVHpnRX4H6B4A6CsF+yCRMLf6qJzMkPANUgSaCAq1nVlOz0rhOaY7bVwPE1y6hjnhyj+Fg7b99FJLeYjjSJkDT7Odu549VEJCHjWjq6HNS/ITRoHElty/ndW1tBSn0BGMovWlQaCKoN+hwTgGEOdJiDfknok/5Kc0u68ioJS4IjYBLgVKufArgZEQLGTuDJyZSedr2IVJdfe6YFgB0a9Kf0g8kdOtXJ3mGtRV3sRBYNr8P5viOOoC1rwjK4Zou7BWWXpVcYxosWY6WynsPpLr9zwytkggu29Jf6/KGu1G7yn8YSIK9uT3Zv5Jay23dkqch6/f4BkkgDORdGJ64AAAAASUVORK5CYII=;" parent="A1PA44tEhQM_5LtgaNAi-32" vertex="1">
          <mxGeometry x="51.46000000000001" y="29.610000000000014" width="30.79" height="30.79" as="geometry" />
        </mxCell>
        <mxCell id="MdbT-BWZGTubTPf6MlZ--26" value="" style="ellipse;whiteSpace=wrap;html=1;aspect=fixed;strokeColor=light-dark(#0066CC,#EDEDED);strokeWidth=2;" vertex="1" parent="A1PA44tEhQM_5LtgaNAi-32">
          <mxGeometry x="8" y="8" width="40" height="40" as="geometry" />
        </mxCell>
        <mxCell id="A1PA44tEhQM_5LtgaNAi-13" value="" style="shape=image;verticalLabelPosition=bottom;labelBackgroundColor=default;verticalAlign=top;aspect=fixed;imageAspect=0;image=data:image/png,iVBORw0KGgoAAAANSUhEUgAAACgAAAAyCAYAAAAus5mQAAAMPWlDQ1BJQ0MgUHJvZmlsZQAASImVVwdYU8kWnluSkEBCCSAgJfQmiNQAUkJooXcEGyEJEEqIgaBiL4sKrl1UwIauiih2QOyInUWwYV8sqCjrYsGuvEkBXfeV702+mfnzz5n/nDl3bhkA1E9yxeJcVAOAPFGhJC4kgDEmJZVB6gE40AI0+GNyeQViVkxMBIBlsP97eXcDILL+qoNM65/j/7Vo8gUFPACQGIjT+QW8PIgPAoBX8cSSQgCIMt58cqFYhmEF2hIYIMQLZThTgatkOF2B98ptEuLYELcAoKLG5UoyAaC1Q55RxMuEGrQ+iJ1EfKEIAHUGxL55efl8iNMgtoE2Yohl+sz0H3Qy/6aZPqTJ5WYOYcVa5EUlUFggzuVO/T/T8b9LXq500IcVrGpZktA42Zph3m7m5IfLsBrEvaL0qGiItSD+IOTL7SFGKVnS0ESFPWrIK2DDnAFdiJ343MBwiA0hDhblRkUo+fQMYTAHYrhD0CnCQk4CxHoQLxQUBMUrbTZJ8uOUvtD6DAmbpeTPcyVyvzJf96U5iSyl/ussAUepj9GKsxKSIaZAbFEkTIqCmAaxY0FOfLjSZnRxFjtq0EYijZPFbwFxnEAUEqDQx4oyJMFxSvvSvILB9WKbsoScKCXeX5iVEKrID9bC48rjh2vB2gUiVuKgjqBgTMTgWviCwCDF2rFnAlFivFLng7gwIE4xF6eIc2OU9riZIDdExptB7FpQFK+ciycVwg2p0MczxIUxCYo48eJsbliMIh58GYgAbBAIGEAKazrIB9lA2Nbb0Av/KUaCARdIQCYQAAclMzgjWT4igm08KAZ/QiQABUPzAuSjAlAE+a9DrKJ1ABny0SL5jBzwBOI8EA5y4X+pfJZoyFsSeAwZ4T+8c2HlwXhzYZWN/3t+kP3OsCAToWSkgx4Z6oOWxCBiIDGUGEy0xQ1wX9wbj4CtP6zOOBP3HFzHd3vCE0IH4SHhOqGLcGuicK7kpygjQRfUD1bmIv3HXOBWUNMND8B9oDpUxnVxA+CAu0I/LNwPenaDLFsZtywrjJ+0/7aCH66G0o7sREbJw8j+ZJufZ9LsaG5DKrJc/5gfRazpQ/lmD4387J/9Q/b5sA//2RJbiB3AzmGnsAvYUawBMLATWCPWih2T4aHd9Vi+uwa9xcnjyYE6wn/4G7yyskwWONU69Th9UYwVCqbIntGAnS+eKhFmZhUyWPCNIGBwRDzHEQxnJ2c3AGTvF8Xj602s/L2B6LZ+5+b9AYDPiYGBgSPfubATAOzzgLf/4e+cDRO+OlQBOH+YJ5UUKThc1hDgU0Id3mn6wBiYAxu4HmfgDryBPwgCYSAaJIAUMAFGnwX3uQRMBtPBHFACysAysBpUgI1gC9gBdoP9oAEcBafAWXAJtIPr4A7cPd3gBegD78BnBEFICBWhI/qICWKJ2CPOCBPxRYKQCCQOSUHSkExEhEiR6cg8pAxZgVQgm5EaZB9yGDmFXEA6kFvIA6QHeY18QjFUDdVGjVArdCTKRFloOJqAjkcz0UloMTofXYKuRavRXWg9egq9hF5Hu9AXaD8GMFVMFzPFHDAmxsaisVQsA5NgM7FSrByrxuqwJnidr2JdWC/2ESfidJyBO8AdHIon4jx8Ej4TX4xX4DvwerwFv4o/wPvwbwQqwZBgT/AicAhjCJmEyYQSQjlhG+EQ4Qy8l7oJ74hEoi7RmugB78UUYjZxGnExcT1xD/EksYP4iNhPIpH0SfYkH1I0iUsqJJWQ1pF2kU6QrpC6SR9UVFVMVJxVglVSVUQqc1XKVXaqHFe5ovJU5TNZg2xJ9iJHk/nkqeSl5K3kJvJlcjf5M0WTYk3xoSRQsilzKGspdZQzlLuUN6qqqmaqnqqxqkLV2aprVfeqnld9oPpRTUvNTo2tNk5NqrZEbbvaSbVbam+oVKoV1Z+aSi2kLqHWUE9T71M/0Og0RxqHxqfNolXS6mlXaC/VyeqW6iz1CerF6uXqB9Qvq/dqkDWsNNgaXI2ZGpUahzU6Nfo16ZqjNKM18zQXa+7UvKD5TIukZaUVpMXXmq+1Reu01iM6Rjens+k8+jz6VvoZerc2Udtam6OdrV2mvVu7TbtPR0vHVSdJZ4pOpc4xnS5dTNdKl6Obq7tUd7/uDd1Pw4yGsYYJhi0aVjfsyrD3esP1/PUEeqV6e/Su633SZ+gH6efoL9dv0L9ngBvYGcQaTDbYYHDGoHe49nDv4bzhpcP3D79tiBraGcYZTjPcYthq2G9kbBRiJDZaZ3TaqNdY19jfONt4lfFx4x4TuomvidBklckJk+cMHQaLkctYy2hh9JkamoaaSk03m7aZfjazNks0m2u2x+yeOcWcaZ5hvsq82bzPwsQi0mK6Ra3FbUuyJdMyy3KN5TnL91bWVslWC6warJ5Z61lzrIuta63v2lBt/Gwm2VTbXLMl2jJtc2zX27bboXZudll2lXaX7VF7d3uh/Xr7jhGEEZ4jRCOqR3Q6qDmwHIocah0eOOo6RjjOdWxwfDnSYmTqyOUjz4385uTmlOu01enOKK1RYaPmjmoa9drZzpnnXOl8zYXqEuwyy6XR5ZWrvavAdYPrTTe6W6TbArdmt6/uHu4S9zr3Hg8LjzSPKo9OpjYzhrmYed6T4BngOcvzqOdHL3evQq/9Xn95O3jneO/0fjbaerRg9NbRj3zMfLg+m326fBm+ab6bfLv8TP24ftV+D/3N/fn+2/yfsmxZ2axdrJcBTgGSgEMB79le7Bnsk4FYYEhgaWBbkFZQYlBF0P1gs+DM4NrgvhC3kGkhJ0MJoeGhy0M7OUYcHqeG0xfmETYjrCVcLTw+vCL8YYRdhCSiKRKNDItcGXk3yjJKFNUQDaI50Suj78VYx0yKORJLjI2JrYx9EjcqbnrcuXh6/MT4nfHvEgISlibcSbRJlCY2J6knjUuqSXqfHJi8IrlrzMgxM8ZcSjFIEaY0ppJSk1K3pfaPDRq7emz3OLdxJeNujLceP2X8hQkGE3InHJuoPpE78UAaIS05bWfaF240t5rbn85Jr0rv47F5a3gv+P78VfwegY9gheBphk/GioxnmT6ZKzN7svyyyrN6hWxhhfBVdmj2xuz3OdE523MGcpNz9+Sp5KXlHRZpiXJELfnG+VPyO8T24hJx1ySvSasn9UnCJdsKkILxBY2F2vBDvlVqI/1F+qDIt6iy6MPkpMkHpmhOEU1pnWo3ddHUp8XBxb9Nw6fxpjVPN50+Z/qDGawZm2ciM9NnNs8ynzV/VvfskNk75lDm5Mz5fa7T3BVz385Lntc032j+7PmPfgn5pbaEViIp6VzgvWDjQnyhcGHbIpdF6xZ9K+WXXixzKisv+7KYt/jir6N+XfvrwJKMJW1L3ZduWEZcJlp2Y7nf8h0rNFcUr3i0MnJl/SrGqtJVb1dPXH2h3LV84xrKGumarrURaxvXWaxbtu5LRVbF9cqAyj1VhlWLqt6v56+/ssF/Q91Go41lGz9tEm66uTlkc321VXX5FuKWoi1PtiZtPfcb87eabQbbyrZ93S7a3rUjbkdLjUdNzU7DnUtr0Vppbc+ucbvadwfubqxzqNu8R3dP2V6wV7r3+b60fTf2h+9vPsA8UHfQ8mDVIfqh0nqkfmp9X0NWQ1djSmPH4bDDzU3eTYeOOB7ZftT0aOUxnWNLj1OOzz8+cKL4RP9J8cneU5mnHjVPbL5zeszpay2xLW1nws+cPxt89vQ51rkT533OH73gdeHwRebFhkvul+pb3VoP/e72+6E297b6yx6XG9s925s6Rnccv+J35dTVwKtnr3GuXboedb3jRuKNm53jOrtu8m8+u5V769Xtotuf78y+S7hbek/jXvl9w/vVf9j+safLvevYg8AHrQ/jH955xHv04nHB4y/d859Qn5Q/NXla88z52dGe4J7252Ofd78Qv/jcW/Kn5p9VL21eHvzL/6/WvjF93a8krwZeL36j/2b7W9e3zf0x/fff5b37/L70g/6HHR+ZH899Sv709PPkL6Qva7/afm36Fv7t7kDewICYK+HKPwUwWNGMDABebweAmgIAHZ7PKGMV5z95QRRnVjkC/wkrzojy4g5AHfx+j+2FXzedAOzdCo9fUF99HAAxVAASPAHq4jJUB89q8nOlrBDhOWBTzNf0vHTwb4rizPlD3D/3QKbqCn7u/wUd5Xx4U4WNHgAAAGxlWElmTU0AKgAAAAgABAEaAAUAAAABAAAAPgEbAAUAAAABAAAARgEoAAMAAAABAAIAAIdpAAQAAAABAAAATgAAAAAAAACQAAAAAQAAAJAAAAABAAKgAgAEAAAAAQAAACigAwAEAAAAAQAAADIAAAAAOpwAiQAAAAlwSFlzAAAWJQAAFiUBSVIk8AAAAlRJREFUWAntmFuSgjAQRWFq9qWuTF2ZujKnD1NXM5h0BzCMH3RVTEiH9OHmBfZ3s+6D7euD2Qa0DXDpCH28gt9Ln7D2/uv12pGw/X4/pOEi+mEVt7TL5XI3oEcyHnaN+/F4vOOLrIsaLPULJu0HOIGm9bly0zl4Op2M49UYYtnhcFAxmzcFVMTz+fyYf9QBmEKqXTbPyfquOuaYBR3SuE8DLPrStk1XMSpZsKwwqoyUXGWIBZPm2nJ2u11a/VpO5VyrrFVMHlnzbWYMIDjmYI2tDmhjOGzaNXC0WRUQ1WqGNYVfDbAEh6Ke+V7vzgk+VMspp3Pa66rH+bq231fDcXe73brcdkI9ZqDlgB695/PeRORDNYvsppyyadzJJwmKcLbKLECXvhTIr4GJTgr1U8xT2qhcUkQqyK/rqL8af/UiUXBWo1YkuT35n/ROOB6gGhCQUnDmnOevUarUphqw1AH1UtRrM9e3GLAlHA81G5BhbQ03G3DJnGMec3+tTVZwKhztSYBp1ZcWWw56EmANHG1SY3UDpjR1tVcD8tRR52ozhhRwMwWlHAFKJjhv+OYAhmcxHzf6uKbc970J+fttyxuK3kj0ETQ43/lTUkT1emoNm5Qyhj9HHNeeevSnvqJ2ik3uzkHBCE43ql6QBB63Uds0nwMYDrEF7qxjY3kar1QkDevY/2y5vOQCAuFZSzDF/bd/FgQQ5RtgpFDk3xSMFIr87iqObq7xsxWROHHIsfSrkJ3A2w1WAQSKYzH38Y7Ps+b/LHjBa3zbIqlRyWuzKeipU+P7AWVwdN00hC97AAAAAElFTkSuQmCC;" parent="A1PA44tEhQM_5LtgaNAi-32" vertex="1">
          <mxGeometry x="16" y="13" width="24" height="30" as="geometry" />
        </mxCell>
        <mxCell id="MdbT-BWZGTubTPf6MlZ--41" value="" style="endArrow=classic;html=1;rounded=0;exitX=0.5;exitY=0.239;exitDx=0;exitDy=0;exitPerimeter=0;strokeWidth=3;strokeColor=#009999;" edge="1" parent="1" source="A1PA44tEhQM_5LtgaNAi-9">
          <mxGeometry width="50" height="50" relative="1" as="geometry">
            <mxPoint x="-244.60000000000002" y="70" as="sourcePoint" />
            <mxPoint x="-20" y="160" as="targetPoint" />
          </mxGeometry>
        </mxCell>
        <mxCell id="MdbT-BWZGTubTPf6MlZ--47" value="" style="endArrow=classic;html=1;rounded=0;strokeWidth=3;strokeColor=#009999;edgeStyle=orthogonalEdgeStyle;curved=1;" edge="1" parent="1">
          <mxGeometry width="50" height="50" relative="1" as="geometry">
            <mxPoint x="-360" y="130" as="sourcePoint" />
            <mxPoint x="-20" y="320" as="targetPoint" />
            <Array as="points">
              <mxPoint x="-360" y="320" />
            </Array>
          </mxGeometry>
        </mxCell>
        <mxCell id="MdbT-BWZGTubTPf6MlZ--48" value="" style="endArrow=classic;html=1;rounded=0;exitX=0.956;exitY=0.272;exitDx=0;exitDy=0;exitPerimeter=0;strokeWidth=3;strokeColor=#00CCCC;" edge="1" parent="1">
          <mxGeometry width="50" height="50" relative="1" as="geometry">
            <mxPoint x="-70" y="354.5" as="sourcePoint" />
            <mxPoint x="-20" y="354.5" as="targetPoint" />
          </mxGeometry>
        </mxCell>
        <mxCell id="MdbT-BWZGTubTPf6MlZ--49" value="&lt;div&gt;利用链式&lt;/div&gt;&lt;div&gt;法则时，&lt;/div&gt;&lt;div&gt;通过两条&lt;/div&gt;&lt;div&gt;路径&lt;/div&gt;&lt;div&gt;到达平方&lt;/div&gt;&lt;div&gt;误差。&lt;/div&gt;&lt;div&gt;图中带有&lt;/div&gt;&lt;div&gt;圆圈的&lt;/div&gt;&lt;div&gt;地方表示&lt;/div&gt;&lt;div&gt;相关&lt;/div&gt;&lt;div&gt;的变量。&lt;/div&gt;" style="text;html=1;align=left;verticalAlign=middle;resizable=0;points=[];autosize=1;strokeColor=none;fillColor=none;" vertex="1" parent="1">
          <mxGeometry x="80" y="160" width="70" height="170" as="geometry" />
        </mxCell>
        <mxCell id="MdbT-BWZGTubTPf6MlZ--54" value="&lt;font style=&quot;font-size: 14px;&quot;&gt;隐藏层（层2）&lt;/font&gt;" style="text;html=1;align=center;verticalAlign=middle;resizable=0;points=[];autosize=1;strokeColor=none;fillColor=none;" vertex="1" parent="1">
          <mxGeometry x="-400" y="50" width="120" height="30" as="geometry" />
        </mxCell>
        <mxCell id="MdbT-BWZGTubTPf6MlZ--55" value="&lt;font style=&quot;font-size: 14px;&quot;&gt;输出层（层3）&lt;/font&gt;" style="text;html=1;align=center;verticalAlign=middle;resizable=0;points=[];autosize=1;strokeColor=none;fillColor=none;" vertex="1" parent="1">
          <mxGeometry x="-170" y="50" width="120" height="30" as="geometry" />
        </mxCell>
      </root>
    </mxGraphModel>
  </diagram>
</mxfile>
